<svg width="216" height="101" viewBox="0 0 216 101" fill="none" xmlns="http://www.w3.org/2000/svg">
<rect x="0.5" y="0.5" width="215" height="100" rx="2.5" fill="white" stroke="#EBEBEB"/>
<path d="M0 3C0 1.34315 1.34315 0 3 0H213C214.657 0 216 1.34315 216 3V5H0V3Z" fill="#DB5860"/>
<path d="M15.0021 11C11.7664 10.999 8.8488 12.9473 7.60986 15.9364C6.37093 18.9255 7.0547 22.3665 9.3423 24.6548C11.6299 26.9431 15.0707 27.628 18.0602 26.39C21.0496 25.152 22.9989 22.235 22.9989 18.9993C22.9996 14.5821 19.4193 11.0007 15.0021 11ZM18.8052 21.5299L17.5317 22.8034L15.0019 20.2736L12.4722 22.8034L11.1987 21.5299L13.7285 19.0001L11.1987 16.4703L12.4722 15.1969L15.0019 17.7267L17.5317 15.1969L18.8052 16.4703L16.2754 19.0001L18.8052 21.5299Z" fill="#DB5860"/>
<path d="M53 53C53 51.3431 54.3431 50 56 50H103C104.657 50 106 51.3431 106 53V71C106 72.6569 104.657 74 103 74H56C54.3431 74 53 72.6569 53 71V53Z" fill="#008EFF"/>
<path d="M72.9023 66H73.957V62.3613L76.957 57.5449H75.7559L73.4766 61.3008H73.3828L71.1035 57.5449H69.9023L72.9023 62.3613V66ZM79.8926 66.1113C81.3809 66.1113 82.2832 65.2676 82.5 64.4121L82.5117 64.3652H81.4922L81.4688 64.418C81.2988 64.7988 80.7715 65.2031 79.916 65.2031C78.791 65.2031 78.0703 64.4414 78.041 63.1348H82.5879V62.7363C82.5879 60.8496 81.5449 59.5723 79.8281 59.5723C78.1113 59.5723 76.998 60.9082 76.998 62.8594V62.8652C76.998 64.8457 78.0879 66.1113 79.8926 66.1113ZM79.8223 60.4805C80.7539 60.4805 81.4453 61.0723 81.5508 62.3203H78.0586C78.1699 61.1191 78.8848 60.4805 79.8223 60.4805ZM86.3379 66.1113C87.7734 66.1113 88.8691 65.332 88.8691 64.207V64.1953C88.8691 63.293 88.2949 62.7773 87.1055 62.4902L86.1328 62.2559C85.3887 62.0742 85.0723 61.8047 85.0723 61.377V61.3652C85.0723 60.8086 85.623 60.4219 86.373 60.4219C87.1348 60.4219 87.627 60.7676 87.7617 61.2656H88.7637C88.623 60.2344 87.7031 59.5723 86.3789 59.5723C85.0371 59.5723 84.0293 60.3633 84.0293 61.4121V61.418C84.0293 62.3262 84.5625 62.8418 85.7461 63.123L86.7246 63.3574C87.5039 63.5449 87.8262 63.8438 87.8262 64.2715V64.2832C87.8262 64.8574 87.2227 65.2617 86.373 65.2617C85.5645 65.2617 85.0605 64.916 84.8906 64.3887H83.8477C83.9648 65.4316 84.9316 66.1113 86.3379 66.1113Z" fill="white"/>
<path d="M114 53C114 51.3431 115.343 50 117 50H159C160.657 50 162 51.3431 162 53V71C162 72.6569 160.657 74 159 74H117C115.343 74 114 72.6569 114 71V53Z" fill="white"/>
<path d="M131.08 66H132.123V59.4434H132.217L136.805 66H137.83V57.5449H136.787V64.125H136.693L132.105 57.5449H131.08V66ZM142.453 66.1113C144.252 66.1113 145.365 64.8691 145.365 62.8477V62.8359C145.365 60.8086 144.252 59.5723 142.453 59.5723C140.654 59.5723 139.541 60.8086 139.541 62.8359V62.8477C139.541 64.8691 140.654 66.1113 142.453 66.1113ZM142.453 65.209C141.258 65.209 140.584 64.3359 140.584 62.8477V62.8359C140.584 61.3418 141.258 60.4746 142.453 60.4746C143.648 60.4746 144.322 61.3418 144.322 62.8359V62.8477C144.322 64.3359 143.648 65.209 142.453 65.209Z" fill="#1F2326"/>
<path d="M117 51H159V49H117V51ZM161 53V71H163V53H161ZM159 73H117V75H159V73ZM115 71V53H113V71H115ZM117 73C115.895 73 115 72.1046 115 71H113C113 73.2091 114.791 75 117 75V73ZM161 71C161 72.1046 160.105 73 159 73V75C161.209 75 163 73.2091 163 71H161ZM159 51C160.105 51 161 51.8954 161 53H163C163 50.7909 161.209 49 159 49V51ZM117 49C114.791 49 113 50.7909 113 53H115C115 51.8954 115.895 51 117 51V49Z" fill="#B8D1E5"/>
<path d="M56.8496 38.1992C58.7363 38.1992 59.9727 37.2148 59.9727 35.6328V35.627C59.9727 34.4082 59.2754 33.6992 57.5117 33.3066L56.5742 33.0957C55.4258 32.8438 54.9629 32.3867 54.9629 31.7129V31.707C54.9629 30.8223 55.7773 30.3242 56.832 30.3184C57.9336 30.3125 58.6367 30.8633 58.7539 31.6074L58.7656 31.6836H59.8203L59.8145 31.6016C59.7266 30.3418 58.5488 29.3457 56.8613 29.3457C55.1152 29.3457 53.8906 30.3359 53.8848 31.7363V31.7422C53.8848 32.9668 54.6172 33.7461 56.3105 34.1211L57.248 34.3262C58.4082 34.584 58.8945 35.0645 58.8945 35.7676V35.7734C58.8945 36.6348 58.0566 37.2266 56.9082 37.2266C55.6895 37.2266 54.8105 36.6934 54.7344 35.8496L54.7285 35.7852H53.6738L53.6797 35.8496C53.8027 37.2266 54.998 38.1992 56.8496 38.1992ZM63.3359 38.1113C64.1855 38.1113 64.8477 37.7422 65.2461 37.0684H65.3398V38H66.3594V33.6758C66.3594 32.3633 65.498 31.5723 63.957 31.5723C62.6094 31.5723 61.6484 32.2402 61.4844 33.2305L61.4785 33.2656H62.498L62.5039 33.248C62.668 32.7559 63.166 32.4746 63.9219 32.4746C64.8652 32.4746 65.3398 32.8965 65.3398 33.6758V34.25L63.5293 34.3613C62.0586 34.4492 61.2266 35.0996 61.2266 36.2246V36.2363C61.2266 37.3848 62.1348 38.1113 63.3359 38.1113ZM62.2695 36.2129V36.2012C62.2695 35.5742 62.6914 35.2344 63.6523 35.1758L65.3398 35.0703V35.6445C65.3398 36.5469 64.584 37.2266 63.5469 37.2266C62.8145 37.2266 62.2695 36.8516 62.2695 36.2129ZM69.7754 38H70.8066L73.1445 31.6836H72.0664L70.3379 36.8867H70.2441L68.5156 31.6836H67.4375L69.7754 38ZM76.8359 38.1113C78.3242 38.1113 79.2266 37.2676 79.4434 36.4121L79.4551 36.3652H78.4355L78.4121 36.418C78.2422 36.7988 77.7148 37.2031 76.8594 37.2031C75.7344 37.2031 75.0137 36.4414 74.9844 35.1348H79.5312V34.7363C79.5312 32.8496 78.4883 31.5723 76.7715 31.5723C75.0547 31.5723 73.9414 32.9082 73.9414 34.8594V34.8652C73.9414 36.8457 75.0312 38.1113 76.8359 38.1113ZM76.7656 32.4805C77.6973 32.4805 78.3887 33.0723 78.4941 34.3203H75.002C75.1133 33.1191 75.8281 32.4805 76.7656 32.4805ZM84.4883 40.1094H85.5078V37.0039H85.6016C85.9473 37.6777 86.7031 38.1113 87.5703 38.1113C89.1758 38.1113 90.2188 36.8281 90.2188 34.8477V34.8359C90.2188 32.8672 89.1699 31.5723 87.5703 31.5723C86.6914 31.5723 85.9883 31.9883 85.6016 32.6914H85.5078V31.6836H84.4883V40.1094ZM87.3359 37.209C86.1875 37.209 85.4844 36.3066 85.4844 34.8477V34.8359C85.4844 33.377 86.1875 32.4746 87.3359 32.4746C88.4902 32.4746 89.1758 33.3652 89.1758 34.8359V34.8477C89.1758 36.3184 88.4902 37.209 87.3359 37.209ZM93.5469 38.1113C94.3965 38.1113 95.0586 37.7422 95.457 37.0684H95.5508V38H96.5703V33.6758C96.5703 32.3633 95.709 31.5723 94.168 31.5723C92.8203 31.5723 91.8594 32.2402 91.6953 33.2305L91.6895 33.2656H92.709L92.7148 33.248C92.8789 32.7559 93.377 32.4746 94.1328 32.4746C95.0762 32.4746 95.5508 32.8965 95.5508 33.6758V34.25L93.7402 34.3613C92.2695 34.4492 91.4375 35.0996 91.4375 36.2246V36.2363C91.4375 37.3848 92.3457 38.1113 93.5469 38.1113ZM92.4805 36.2129V36.2012C92.4805 35.5742 92.9023 35.2344 93.8633 35.1758L95.5508 35.0703V35.6445C95.5508 36.5469 94.7949 37.2266 93.7578 37.2266C93.0254 37.2266 92.4805 36.8516 92.4805 36.2129ZM101.035 40.2266C102.758 40.2266 103.848 39.3242 103.848 37.9121V31.6836H102.828V32.7266H102.758C102.371 32.0117 101.68 31.5723 100.789 31.5723C99.1367 31.5723 98.1172 32.8555 98.1172 34.625V34.6367C98.1172 36.4062 99.1309 37.6719 100.766 37.6719C101.633 37.6719 102.348 37.2793 102.746 36.582H102.84V37.8594C102.84 38.791 102.166 39.3242 101.035 39.3242C100.127 39.3242 99.5645 38.9844 99.4531 38.5039L99.4473 38.498H98.3926L98.3809 38.5039C98.5391 39.541 99.5117 40.2266 101.035 40.2266ZM100.988 36.7695C99.8164 36.7695 99.1602 35.8906 99.1602 34.6367V34.625C99.1602 33.3711 99.8164 32.4746 100.988 32.4746C102.154 32.4746 102.863 33.3711 102.863 34.625V34.6367C102.863 35.8906 102.16 36.7695 100.988 36.7695ZM108.324 38.1113C109.812 38.1113 110.715 37.2676 110.932 36.4121L110.943 36.3652H109.924L109.9 36.418C109.73 36.7988 109.203 37.2031 108.348 37.2031C107.223 37.2031 106.502 36.4414 106.473 35.1348H111.02V34.7363C111.02 32.8496 109.977 31.5723 108.26 31.5723C106.543 31.5723 105.43 32.9082 105.43 34.8594V34.8652C105.43 36.8457 106.52 38.1113 108.324 38.1113ZM108.254 32.4805C109.186 32.4805 109.877 33.0723 109.982 34.3203H106.49C106.602 33.1191 107.316 32.4805 108.254 32.4805ZM113.955 35.3867H114.98V35.0059C114.98 34.3906 115.191 34.0625 115.936 33.623C116.686 33.1719 117.16 32.5215 117.16 31.6074V31.5957C117.16 30.3945 116.152 29.4805 114.676 29.4805C113.029 29.4805 112.186 30.4883 112.121 31.748V31.7598L113.117 31.7539L113.129 31.748C113.188 30.916 113.75 30.3945 114.635 30.3945C115.508 30.3945 116.07 30.9277 116.07 31.6484V31.6602C116.07 32.2812 115.807 32.6504 115.127 33.0664C114.324 33.5469 113.949 34.0742 113.955 34.8477V35.3867ZM114.547 38.1055C115.021 38.1055 115.355 37.7656 115.355 37.291C115.355 36.8105 115.021 36.4707 114.547 36.4707C114.072 36.4707 113.732 36.8105 113.732 37.291C113.732 37.7656 114.072 38.1055 114.547 38.1055Z" fill="black"/>
</svg>
