<svg width="216" height="101" viewBox="0 0 216 101" fill="none" xmlns="http://www.w3.org/2000/svg">
<rect x="0.5" y="0.5" width="215" height="100" rx="2.5" fill="white" stroke="#EBEBEB"/>
<path d="M0 3C0 1.34315 1.34315 0 3 0H213C214.657 0 216 1.34315 216 3V5H0V3Z" fill="#59A869"/>
<path d="M14.0033 11C10.7674 10.9987 7.84932 12.9471 6.61009 15.9364C5.37086 18.9257 6.05454 22.3671 8.34228 24.6558C10.63 26.9444 14.0712 27.6294 17.061 26.3913C20.0508 25.1533 22.0002 22.236 22.0002 19C22.0006 16.8787 21.1584 14.8441 19.6586 13.3438C18.1589 11.8435 16.1247 11.0004 14.0033 11ZM13.1609 22.6895L9.48607 19.0147L10.7585 17.7412L13.1609 20.1445L17.8191 15.4854L19.0915 16.7588L13.1609 22.6895Z" fill="#59A869"/>
<path d="M38 53C38 51.3431 39.3431 50 41 50H95C96.6569 50 98 51.3431 98 53V71C98 72.6569 96.6569 74 95 74H41C39.3431 74 38 72.6569 38 71V53Z" fill="#008EFF"/>
<path d="M58.2676 66.1992C60.1543 66.1992 61.3906 65.2148 61.3906 63.6328V63.627C61.3906 62.4082 60.6934 61.6992 58.9297 61.3066L57.9922 61.0957C56.8438 60.8438 56.3809 60.3867 56.3809 59.7129V59.707C56.3809 58.8223 57.1953 58.3242 58.25 58.3184C59.3516 58.3125 60.0547 58.8633 60.1719 59.6074L60.1836 59.6836H61.2383L61.2324 59.6016C61.1445 58.3418 59.9668 57.3457 58.2793 57.3457C56.5332 57.3457 55.3086 58.3359 55.3027 59.7363V59.7422C55.3027 60.9668 56.0352 61.7461 57.7285 62.1211L58.666 62.3262C59.8262 62.584 60.3125 63.0645 60.3125 63.7676V63.7734C60.3125 64.6348 59.4746 65.2266 58.3262 65.2266C57.1074 65.2266 56.2285 64.6934 56.1523 63.8496L56.1465 63.7852H55.0918L55.0977 63.8496C55.2207 65.2266 56.416 66.1992 58.2676 66.1992ZM64.7539 66.1113C65.6035 66.1113 66.2656 65.7422 66.6641 65.0684H66.7578V66H67.7773V61.6758C67.7773 60.3633 66.916 59.5723 65.375 59.5723C64.0273 59.5723 63.0664 60.2402 62.9023 61.2305L62.8965 61.2656H63.916L63.9219 61.248C64.0859 60.7559 64.584 60.4746 65.3398 60.4746C66.2832 60.4746 66.7578 60.8965 66.7578 61.6758V62.25L64.9473 62.3613C63.4766 62.4492 62.6445 63.0996 62.6445 64.2246V64.2363C62.6445 65.3848 63.5527 66.1113 64.7539 66.1113ZM63.6875 64.2129V64.2012C63.6875 63.5742 64.1094 63.2344 65.0703 63.1758L66.7578 63.0703V63.6445C66.7578 64.5469 66.002 65.2266 64.9648 65.2266C64.2324 65.2266 63.6875 64.8516 63.6875 64.2129ZM71.1934 66H72.2246L74.5625 59.6836H73.4844L71.7559 64.8867H71.6621L69.9336 59.6836H68.8555L71.1934 66ZM78.2539 66.1113C79.7422 66.1113 80.6445 65.2676 80.8613 64.4121L80.873 64.3652H79.8535L79.8301 64.418C79.6602 64.7988 79.1328 65.2031 78.2773 65.2031C77.1523 65.2031 76.4316 64.4414 76.4023 63.1348H80.9492V62.7363C80.9492 60.8496 79.9062 59.5723 78.1895 59.5723C76.4727 59.5723 75.3594 60.9082 75.3594 62.8594V62.8652C75.3594 64.8457 76.4492 66.1113 78.2539 66.1113ZM78.1836 60.4805C79.1152 60.4805 79.8066 61.0723 79.9121 62.3203H76.4199C76.5312 61.1191 77.2461 60.4805 78.1836 60.4805Z" fill="white"/>
<path d="M106 53C106 51.3431 107.343 50 109 50H174C175.657 50 177 51.3431 177 53V71C177 72.6569 175.657 74 174 74H109C107.343 74 106 72.6569 106 71V53Z" fill="white"/>
<path d="M126.57 66.1992C128.369 66.1992 129.705 65.1973 129.986 63.6504V63.6387H128.92L128.908 63.6504C128.645 64.623 127.748 65.2266 126.57 65.2266C124.941 65.2266 123.922 63.8965 123.922 61.7812V61.7695C123.922 59.6543 124.941 58.3184 126.564 58.3184C127.73 58.3184 128.633 59.0039 128.914 60.0879L128.92 60.0996H129.98L129.986 60.0879C129.734 58.4648 128.346 57.3457 126.564 57.3457C124.268 57.3457 122.838 59.0449 122.838 61.7695V61.7812C122.838 64.5 124.273 66.1992 126.57 66.1992ZM133.361 66.1113C134.211 66.1113 134.873 65.7422 135.271 65.0684H135.365V66H136.385V61.6758C136.385 60.3633 135.523 59.5723 133.982 59.5723C132.635 59.5723 131.674 60.2402 131.51 61.2305L131.504 61.2656H132.523L132.529 61.248C132.693 60.7559 133.191 60.4746 133.947 60.4746C134.891 60.4746 135.365 60.8965 135.365 61.6758V62.25L133.555 62.3613C132.084 62.4492 131.252 63.0996 131.252 64.2246V64.2363C131.252 65.3848 132.16 66.1113 133.361 66.1113ZM132.295 64.2129V64.2012C132.295 63.5742 132.717 63.2344 133.678 63.1758L135.365 63.0703V63.6445C135.365 64.5469 134.609 65.2266 133.572 65.2266C132.84 65.2266 132.295 64.8516 132.295 64.2129ZM138.248 66H139.268V62.2617C139.268 61.1543 139.906 60.4746 140.914 60.4746C141.922 60.4746 142.391 61.0195 142.391 62.1562V66H143.41V61.9102C143.41 60.4102 142.619 59.5723 141.201 59.5723C140.27 59.5723 139.678 59.9648 139.361 60.6328H139.268V59.6836H138.248V66ZM147.84 66.1113C149.357 66.1113 150.207 65.2969 150.465 64.1543L150.477 64.0898L149.469 64.0957L149.457 64.1309C149.223 64.834 148.684 65.209 147.834 65.209C146.709 65.209 145.982 64.2773 145.982 62.8242V62.8125C145.982 61.3887 146.697 60.4746 147.834 60.4746C148.742 60.4746 149.305 60.9785 149.463 61.5996L149.469 61.6172H150.482L150.477 61.582C150.289 60.457 149.369 59.5723 147.834 59.5723C146.064 59.5723 144.939 60.8496 144.939 62.8125V62.8242C144.939 64.8281 146.07 66.1113 147.84 66.1113ZM154.549 66.1113C156.037 66.1113 156.939 65.2676 157.156 64.4121L157.168 64.3652H156.148L156.125 64.418C155.955 64.7988 155.428 65.2031 154.572 65.2031C153.447 65.2031 152.727 64.4414 152.697 63.1348H157.244V62.7363C157.244 60.8496 156.201 59.5723 154.484 59.5723C152.768 59.5723 151.654 60.9082 151.654 62.8594V62.8652C151.654 64.8457 152.744 66.1113 154.549 66.1113ZM154.479 60.4805C155.41 60.4805 156.102 61.0723 156.207 62.3203H152.715C152.826 61.1191 153.541 60.4805 154.479 60.4805ZM158.885 66H159.904V57.1758H158.885V66Z" fill="#1F2326"/>
<path d="M109 51H174V49H109V51ZM176 53V71H178V53H176ZM174 73H109V75H174V73ZM107 71V53H105V71H107ZM109 73C107.895 73 107 72.1046 107 71H105C105 73.2091 106.791 75 109 75V73ZM176 71C176 72.1046 175.105 73 174 73V75C176.209 75 178 73.2091 178 71H176ZM174 51C175.105 51 176 51.8954 176 53H178C178 50.7909 176.209 49 174 49V51ZM109 49C106.791 49 105 50.7909 105 53H107C107 51.8954 107.895 51 109 51V49Z" fill="#B8D1E5"/>
<path d="M41.8496 38.1992C43.7363 38.1992 44.9727 37.2148 44.9727 35.6328V35.627C44.9727 34.4082 44.2754 33.6992 42.5117 33.3066L41.5742 33.0957C40.4258 32.8438 39.9629 32.3867 39.9629 31.7129V31.707C39.9629 30.8223 40.7773 30.3242 41.832 30.3184C42.9336 30.3125 43.6367 30.8633 43.7539 31.6074L43.7656 31.6836H44.8203L44.8145 31.6016C44.7266 30.3418 43.5488 29.3457 41.8613 29.3457C40.1152 29.3457 38.8906 30.3359 38.8848 31.7363V31.7422C38.8848 32.9668 39.6172 33.7461 41.3105 34.1211L42.248 34.3262C43.4082 34.584 43.8945 35.0645 43.8945 35.7676V35.7734C43.8945 36.6348 43.0566 37.2266 41.9082 37.2266C40.6895 37.2266 39.8105 36.6934 39.7344 35.8496L39.7285 35.7852H38.6738L38.6797 35.8496C38.8027 37.2266 39.998 38.1992 41.8496 38.1992ZM48.3359 38.1113C49.1855 38.1113 49.8477 37.7422 50.2461 37.0684H50.3398V38H51.3594V33.6758C51.3594 32.3633 50.498 31.5723 48.957 31.5723C47.6094 31.5723 46.6484 32.2402 46.4844 33.2305L46.4785 33.2656H47.498L47.5039 33.248C47.668 32.7559 48.166 32.4746 48.9219 32.4746C49.8652 32.4746 50.3398 32.8965 50.3398 33.6758V34.25L48.5293 34.3613C47.0586 34.4492 46.2266 35.0996 46.2266 36.2246V36.2363C46.2266 37.3848 47.1348 38.1113 48.3359 38.1113ZM47.2695 36.2129V36.2012C47.2695 35.5742 47.6914 35.2344 48.6523 35.1758L50.3398 35.0703V35.6445C50.3398 36.5469 49.584 37.2266 48.5469 37.2266C47.8145 37.2266 47.2695 36.8516 47.2695 36.2129ZM54.7754 38H55.8066L58.1445 31.6836H57.0664L55.3379 36.8867H55.2441L53.5156 31.6836H52.4375L54.7754 38ZM61.8359 38.1113C63.3242 38.1113 64.2266 37.2676 64.4434 36.4121L64.4551 36.3652H63.4355L63.4121 36.418C63.2422 36.7988 62.7148 37.2031 61.8594 37.2031C60.7344 37.2031 60.0137 36.4414 59.9844 35.1348H64.5312V34.7363C64.5312 32.8496 63.4883 31.5723 61.7715 31.5723C60.0547 31.5723 58.9414 32.9082 58.9414 34.8594V34.8652C58.9414 36.8457 60.0312 38.1113 61.8359 38.1113ZM61.7656 32.4805C62.6973 32.4805 63.3887 33.0723 63.4941 34.3203H60.002C60.1133 33.1191 60.8281 32.4805 61.7656 32.4805ZM69.4883 40.1094H70.5078V37.0039H70.6016C70.9473 37.6777 71.7031 38.1113 72.5703 38.1113C74.1758 38.1113 75.2188 36.8281 75.2188 34.8477V34.8359C75.2188 32.8672 74.1699 31.5723 72.5703 31.5723C71.6914 31.5723 70.9883 31.9883 70.6016 32.6914H70.5078V31.6836H69.4883V40.1094ZM72.3359 37.209C71.1875 37.209 70.4844 36.3066 70.4844 34.8477V34.8359C70.4844 33.377 71.1875 32.4746 72.3359 32.4746C73.4902 32.4746 74.1758 33.3652 74.1758 34.8359V34.8477C74.1758 36.3184 73.4902 37.209 72.3359 37.209ZM78.5469 38.1113C79.3965 38.1113 80.0586 37.7422 80.457 37.0684H80.5508V38H81.5703V33.6758C81.5703 32.3633 80.709 31.5723 79.168 31.5723C77.8203 31.5723 76.8594 32.2402 76.6953 33.2305L76.6895 33.2656H77.709L77.7148 33.248C77.8789 32.7559 78.377 32.4746 79.1328 32.4746C80.0762 32.4746 80.5508 32.8965 80.5508 33.6758V34.25L78.7402 34.3613C77.2695 34.4492 76.4375 35.0996 76.4375 36.2246V36.2363C76.4375 37.3848 77.3457 38.1113 78.5469 38.1113ZM77.4805 36.2129V36.2012C77.4805 35.5742 77.9023 35.2344 78.8633 35.1758L80.5508 35.0703V35.6445C80.5508 36.5469 79.7949 37.2266 78.7578 37.2266C78.0254 37.2266 77.4805 36.8516 77.4805 36.2129ZM86.0352 40.2266C87.7578 40.2266 88.8477 39.3242 88.8477 37.9121V31.6836H87.8281V32.7266H87.7578C87.3711 32.0117 86.6797 31.5723 85.7891 31.5723C84.1367 31.5723 83.1172 32.8555 83.1172 34.625V34.6367C83.1172 36.4062 84.1309 37.6719 85.7656 37.6719C86.6328 37.6719 87.3477 37.2793 87.7461 36.582H87.8398V37.8594C87.8398 38.791 87.166 39.3242 86.0352 39.3242C85.127 39.3242 84.5645 38.9844 84.4531 38.5039L84.4473 38.498H83.3926L83.3809 38.5039C83.5391 39.541 84.5117 40.2266 86.0352 40.2266ZM85.9883 36.7695C84.8164 36.7695 84.1602 35.8906 84.1602 34.6367V34.625C84.1602 33.3711 84.8164 32.4746 85.9883 32.4746C87.1543 32.4746 87.8633 33.3711 87.8633 34.625V34.6367C87.8633 35.8906 87.1602 36.7695 85.9883 36.7695ZM93.3242 38.1113C94.8125 38.1113 95.7148 37.2676 95.9316 36.4121L95.9434 36.3652H94.9238L94.9004 36.418C94.7305 36.7988 94.2031 37.2031 93.3477 37.2031C92.2227 37.2031 91.502 36.4414 91.4727 35.1348H96.0195V34.7363C96.0195 32.8496 94.9766 31.5723 93.2598 31.5723C91.543 31.5723 90.4297 32.9082 90.4297 34.8594V34.8652C90.4297 36.8457 91.5195 38.1113 93.3242 38.1113ZM93.2539 32.4805C94.1855 32.4805 94.877 33.0723 94.9824 34.3203H91.4902C91.6016 33.1191 92.3164 32.4805 93.2539 32.4805ZM98.9551 35.3867H99.9805V35.0059C99.9805 34.3906 100.191 34.0625 100.936 33.623C101.686 33.1719 102.16 32.5215 102.16 31.6074V31.5957C102.16 30.3945 101.152 29.4805 99.6758 29.4805C98.0293 29.4805 97.1855 30.4883 97.1211 31.748V31.7598L98.1172 31.7539L98.1289 31.748C98.1875 30.916 98.75 30.3945 99.6348 30.3945C100.508 30.3945 101.07 30.9277 101.07 31.6484V31.6602C101.07 32.2812 100.807 32.6504 100.127 33.0664C99.3242 33.5469 98.9492 34.0742 98.9551 34.8477V35.3867ZM99.5469 38.1055C100.021 38.1055 100.355 37.7656 100.355 37.291C100.355 36.8105 100.021 36.4707 99.5469 36.4707C99.0723 36.4707 98.7324 36.8105 98.7324 37.291C98.7324 37.7656 99.0723 38.1055 99.5469 38.1055Z" fill="black"/>
</svg>
