<svg width="467" height="202" viewBox="0 0 467 202" fill="none" xmlns="http://www.w3.org/2000/svg">
<rect width="211" height="162" fill="#F8F8F9"/>
<path d="M0 3C0 1.34315 1.34315 0 3 0H208C209.657 0 211 1.34315 211 3V4H0V3Z" fill="#59A869"/>
<path d="M14.0033 8C10.7674 7.99874 7.84932 9.94708 6.61009 12.9364C5.37086 15.9257 6.05454 19.3671 8.34228 21.6558C10.63 23.9444 14.0712 24.6294 17.061 23.3913C20.0508 22.1533 22.0002 19.236 22.0002 16C22.0006 13.8787 21.1584 11.8441 19.6586 10.3438C18.1589 8.84349 16.1247 8.00041 14.0033 8ZM13.1609 19.6895L9.48607 16.0147L10.7585 14.7412L13.1609 17.1445L17.8191 12.4854L19.0915 13.7588L13.1609 19.6895Z" fill="#59A869"/>
<path d="M1.07812 177H3.97852C6.49219 177 7.96875 175.436 7.96875 172.775V172.764C7.96875 170.109 6.48633 168.545 3.97852 168.545H1.07812V177ZM2.13281 176.051V169.494H3.9082C5.7832 169.494 6.89062 170.713 6.89062 172.775V172.787C6.89062 174.844 5.79492 176.051 3.9082 176.051H2.13281ZM12.2637 177.111C14.0625 177.111 15.1758 175.869 15.1758 173.848V173.836C15.1758 171.809 14.0625 170.572 12.2637 170.572C10.4648 170.572 9.35156 171.809 9.35156 173.836V173.848C9.35156 175.869 10.4648 177.111 12.2637 177.111ZM12.2637 176.209C11.0684 176.209 10.3945 175.336 10.3945 173.848V173.836C10.3945 172.342 11.0684 171.475 12.2637 171.475C13.459 171.475 14.1328 172.342 14.1328 173.836V173.848C14.1328 175.336 13.459 176.209 12.2637 176.209Z" fill="#1C8C32"/>
<path d="M22.248 177.111C23.1738 177.111 23.8125 176.73 24.123 176.057H24.2168V177H25.2363V170.684H24.2168V174.422C24.2168 175.529 23.625 176.209 22.5117 176.209C21.5039 176.209 21.0938 175.664 21.0938 174.527V170.684H20.0742V174.773C20.0742 176.268 20.8125 177.111 22.248 177.111ZM29.3086 177.111C30.7441 177.111 31.8398 176.332 31.8398 175.207V175.195C31.8398 174.293 31.2656 173.777 30.0762 173.49L29.1035 173.256C28.3594 173.074 28.043 172.805 28.043 172.377V172.365C28.043 171.809 28.5938 171.422 29.3438 171.422C30.1055 171.422 30.5977 171.768 30.7324 172.266H31.7344C31.5938 171.234 30.6738 170.572 29.3496 170.572C28.0078 170.572 27 171.363 27 172.412V172.418C27 173.326 27.5332 173.842 28.7168 174.123L29.6953 174.357C30.4746 174.545 30.7969 174.844 30.7969 175.271V175.283C30.7969 175.857 30.1934 176.262 29.3438 176.262C28.5352 176.262 28.0312 175.916 27.8613 175.389H26.8184C26.9355 176.432 27.9023 177.111 29.3086 177.111ZM36 177.111C37.4883 177.111 38.3906 176.268 38.6074 175.412L38.6191 175.365H37.5996L37.5762 175.418C37.4062 175.799 36.8789 176.203 36.0234 176.203C34.8984 176.203 34.1777 175.441 34.1484 174.135H38.6953V173.736C38.6953 171.85 37.6523 170.572 35.9355 170.572C34.2188 170.572 33.1055 171.908 33.1055 173.859V173.865C33.1055 175.846 34.1953 177.111 36 177.111ZM35.9297 171.48C36.8613 171.48 37.5527 172.072 37.6582 173.32H34.166C34.2773 172.119 34.9922 171.48 35.9297 171.48ZM43.6523 177H44.6719V173.086C44.6719 172.16 45.3633 171.545 46.3359 171.545C46.5586 171.545 46.752 171.568 46.9629 171.604V170.613C46.8633 170.596 46.6465 170.572 46.4531 170.572C45.5977 170.572 45.0059 170.959 44.7656 171.621H44.6719V170.684H43.6523V177ZM49.957 177.111C50.8066 177.111 51.4688 176.742 51.8672 176.068H51.9609V177H52.9805V172.676C52.9805 171.363 52.1191 170.572 50.5781 170.572C49.2305 170.572 48.2695 171.24 48.1055 172.23L48.0996 172.266H49.1191L49.125 172.248C49.2891 171.756 49.7871 171.475 50.543 171.475C51.4863 171.475 51.9609 171.896 51.9609 172.676V173.25L50.1504 173.361C48.6797 173.449 47.8477 174.1 47.8477 175.225V175.236C47.8477 176.385 48.7559 177.111 49.957 177.111ZM48.8906 175.213V175.201C48.8906 174.574 49.3125 174.234 50.2734 174.176L51.9609 174.07V174.645C51.9609 175.547 51.2051 176.227 50.168 176.227C49.4355 176.227 48.8906 175.852 48.8906 175.213ZM57.1758 177.111C58.0547 177.111 58.7578 176.695 59.1445 175.992H59.2383V177H60.2578V168.176H59.2383V171.68H59.1445C58.7988 171.006 58.043 170.572 57.1758 170.572C55.5703 170.572 54.5273 171.855 54.5273 173.836V173.848C54.5273 175.816 55.5762 177.111 57.1758 177.111ZM57.4102 176.209C56.2559 176.209 55.5703 175.318 55.5703 173.848V173.836C55.5703 172.365 56.2559 171.475 57.4102 171.475C58.5586 171.475 59.2617 172.377 59.2617 173.836V173.848C59.2617 175.307 58.5586 176.209 57.4102 176.209ZM62.7539 169.465C63.1406 169.465 63.457 169.148 63.457 168.762C63.457 168.375 63.1406 168.059 62.7539 168.059C62.3672 168.059 62.0508 168.375 62.0508 168.762C62.0508 169.148 62.3672 169.465 62.7539 169.465ZM62.2383 177H63.2578V170.684H62.2383V177ZM67.7754 177.111C69.5742 177.111 70.6875 175.869 70.6875 173.848V173.836C70.6875 171.809 69.5742 170.572 67.7754 170.572C65.9766 170.572 64.8633 171.809 64.8633 173.836V173.848C64.8633 175.869 65.9766 177.111 67.7754 177.111ZM67.7754 176.209C66.5801 176.209 65.9062 175.336 65.9062 173.848V173.836C65.9062 172.342 66.5801 171.475 67.7754 171.475C68.9707 171.475 69.6445 172.342 69.6445 173.836V173.848C69.6445 175.336 68.9707 176.209 67.7754 176.209ZM78.7852 177.111C80.3848 177.111 81.4336 175.816 81.4336 173.848V173.836C81.4336 171.855 80.3906 170.572 78.7852 170.572C77.918 170.572 77.1621 171.006 76.8164 171.68H76.7227V168.176H75.7031V177H76.7227V175.992H76.8164C77.2031 176.695 77.9062 177.111 78.7852 177.111ZM78.5508 176.209C77.4023 176.209 76.6992 175.307 76.6992 173.848V173.836C76.6992 172.377 77.4023 171.475 78.5508 171.475C79.7051 171.475 80.3906 172.365 80.3906 173.836V173.848C80.3906 175.318 79.7051 176.209 78.5508 176.209ZM85.1309 177.111C86.0566 177.111 86.6953 176.73 87.0059 176.057H87.0996V177H88.1191V170.684H87.0996V174.422C87.0996 175.529 86.5078 176.209 85.3945 176.209C84.3867 176.209 83.9766 175.664 83.9766 174.527V170.684H82.957V174.773C82.957 176.268 83.6953 177.111 85.1309 177.111ZM92.2676 177.047C92.4668 177.047 92.6602 177.023 92.8594 176.988V176.121C92.6719 176.139 92.5723 176.145 92.3906 176.145C91.7344 176.145 91.4766 175.846 91.4766 175.102V171.527H92.8594V170.684H91.4766V169.049H90.4219V170.684H89.4258V171.527H90.4219V175.359C90.4219 176.566 90.9668 177.047 92.2676 177.047ZM96.627 177.047C96.8262 177.047 97.0195 177.023 97.2188 176.988V176.121C97.0312 176.139 96.9316 176.145 96.75 176.145C96.0938 176.145 95.8359 175.846 95.8359 175.102V171.527H97.2188V170.684H95.8359V169.049H94.7812V170.684H93.7852V171.527H94.7812V175.359C94.7812 176.566 95.3262 177.047 96.627 177.047ZM101.244 177.111C103.043 177.111 104.156 175.869 104.156 173.848V173.836C104.156 171.809 103.043 170.572 101.244 170.572C99.4453 170.572 98.332 171.809 98.332 173.836V173.848C98.332 175.869 99.4453 177.111 101.244 177.111ZM101.244 176.209C100.049 176.209 99.375 175.336 99.375 173.848V173.836C99.375 172.342 100.049 171.475 101.244 171.475C102.439 171.475 103.113 172.342 103.113 173.836V173.848C103.113 175.336 102.439 176.209 101.244 176.209ZM105.738 177H106.758V173.262C106.758 172.154 107.396 171.475 108.404 171.475C109.412 171.475 109.881 172.02 109.881 173.156V177H110.9V172.91C110.9 171.41 110.109 170.572 108.691 170.572C107.76 170.572 107.168 170.965 106.852 171.633H106.758V170.684H105.738V177ZM114.914 177.111C116.35 177.111 117.445 176.332 117.445 175.207V175.195C117.445 174.293 116.871 173.777 115.682 173.49L114.709 173.256C113.965 173.074 113.648 172.805 113.648 172.377V172.365C113.648 171.809 114.199 171.422 114.949 171.422C115.711 171.422 116.203 171.768 116.338 172.266H117.34C117.199 171.234 116.279 170.572 114.955 170.572C113.613 170.572 112.605 171.363 112.605 172.412V172.418C112.605 173.326 113.139 173.842 114.322 174.123L115.301 174.357C116.08 174.545 116.402 174.844 116.402 175.271V175.283C116.402 175.857 115.799 176.262 114.949 176.262C114.141 176.262 113.637 175.916 113.467 175.389H112.424C112.541 176.432 113.508 177.111 114.914 177.111ZM122.941 169.465C123.328 169.465 123.645 169.148 123.645 168.762C123.645 168.375 123.328 168.059 122.941 168.059C122.555 168.059 122.238 168.375 122.238 168.762C122.238 169.148 122.555 169.465 122.941 169.465ZM122.426 177H123.445V170.684H122.426V177ZM125.789 177H126.809V171.527H128.244V170.684H126.809V170.01C126.809 169.318 127.102 168.961 127.828 168.961C128.01 168.961 128.18 168.967 128.303 168.99V168.176C128.092 168.135 127.869 168.117 127.623 168.117C126.422 168.117 125.789 168.721 125.789 169.98V170.684H124.74V171.527H125.789V177ZM135.686 177.111C137.484 177.111 138.598 175.869 138.598 173.848V173.836C138.598 171.809 137.484 170.572 135.686 170.572C133.887 170.572 132.773 171.809 132.773 173.836V173.848C132.773 175.869 133.887 177.111 135.686 177.111ZM135.686 176.209C134.49 176.209 133.816 175.336 133.816 173.848V173.836C133.816 172.342 134.49 171.475 135.686 171.475C136.881 171.475 137.555 172.342 137.555 173.836V173.848C137.555 175.336 136.881 176.209 135.686 176.209ZM140.18 177H141.199V173.262C141.199 172.154 141.838 171.475 142.846 171.475C143.854 171.475 144.322 172.02 144.322 173.156V177H145.342V172.91C145.342 171.41 144.551 170.572 143.133 170.572C142.201 170.572 141.609 170.965 141.293 171.633H141.199V170.684H140.18V177ZM147.246 177H148.266V168.176H147.246V177ZM150.762 179.215C151.881 179.215 152.402 178.805 152.924 177.387L155.391 170.684H154.318L152.59 175.881H152.496L150.762 170.684H149.672L152.01 177.006L151.893 177.381C151.664 178.107 151.312 178.371 150.732 178.371C150.592 178.371 150.434 178.365 150.311 178.342V179.18C150.451 179.203 150.627 179.215 150.762 179.215ZM162.709 177.111C164.508 177.111 165.621 175.869 165.621 173.848V173.836C165.621 171.809 164.508 170.572 162.709 170.572C160.91 170.572 159.797 171.809 159.797 173.836V173.848C159.797 175.869 160.91 177.111 162.709 177.111ZM162.709 176.209C161.514 176.209 160.84 175.336 160.84 173.848V173.836C160.84 172.342 161.514 171.475 162.709 171.475C163.904 171.475 164.578 172.342 164.578 173.836V173.848C164.578 175.336 163.904 176.209 162.709 176.209ZM167.203 177H168.223V173.262C168.223 172.154 168.861 171.475 169.869 171.475C170.877 171.475 171.346 172.02 171.346 173.156V177H172.365V172.91C172.365 171.41 171.574 170.572 170.156 170.572C169.225 170.572 168.633 170.965 168.316 171.633H168.223V170.684H167.203V177ZM176.789 177.111C178.277 177.111 179.18 176.268 179.396 175.412L179.408 175.365H178.389L178.365 175.418C178.195 175.799 177.668 176.203 176.812 176.203C175.688 176.203 174.967 175.441 174.938 174.135H179.484V173.736C179.484 171.85 178.441 170.572 176.725 170.572C175.008 170.572 173.895 171.908 173.895 173.859V173.865C173.895 175.846 174.984 177.111 176.789 177.111ZM176.719 171.48C177.65 171.48 178.342 172.072 178.447 173.32H174.955C175.066 172.119 175.781 171.48 176.719 171.48ZM3.52734 193.111C5.01562 193.111 5.91797 192.268 6.13477 191.412L6.14648 191.365H5.12695L5.10352 191.418C4.93359 191.799 4.40625 192.203 3.55078 192.203C2.42578 192.203 1.70508 191.441 1.67578 190.135H6.22266V189.736C6.22266 187.85 5.17969 186.572 3.46289 186.572C1.74609 186.572 0.632812 187.908 0.632812 189.859V189.865C0.632812 191.846 1.72266 193.111 3.52734 193.111ZM3.45703 187.48C4.38867 187.48 5.08008 188.072 5.18555 189.32H1.69336C1.80469 188.119 2.51953 187.48 3.45703 187.48ZM7.86328 193H8.88281V184.176H7.86328V193ZM13.418 193.111C14.9062 193.111 15.8086 192.268 16.0254 191.412L16.0371 191.365H15.0176L14.9941 191.418C14.8242 191.799 14.2969 192.203 13.4414 192.203C12.3164 192.203 11.5957 191.441 11.5664 190.135H16.1133V189.736C16.1133 187.85 15.0703 186.572 13.3535 186.572C11.6367 186.572 10.5234 187.908 10.5234 189.859V189.865C10.5234 191.846 11.6133 193.111 13.418 193.111ZM13.3477 187.48C14.2793 187.48 14.9707 188.072 15.0762 189.32H11.584C11.6953 188.119 12.4102 187.48 13.3477 187.48ZM17.6953 193H18.7148V189.086C18.7148 188.195 19.3418 187.475 20.168 187.475C20.9648 187.475 21.4805 187.961 21.4805 188.711V193H22.5V188.939C22.5 188.137 23.0801 187.475 23.959 187.475C24.8496 187.475 25.2773 187.938 25.2773 188.869V193H26.2969V188.635C26.2969 187.311 25.5762 186.572 24.2871 186.572C23.4141 186.572 22.6934 187.012 22.3535 187.68H22.2598C21.9668 187.023 21.3691 186.572 20.5137 186.572C19.6875 186.572 19.0898 186.965 18.8086 187.645H18.7148V186.684H17.6953V193ZM30.7148 193.111C32.2031 193.111 33.1055 192.268 33.3223 191.412L33.334 191.365H32.3145L32.291 191.418C32.1211 191.799 31.5938 192.203 30.7383 192.203C29.6133 192.203 28.8926 191.441 28.8633 190.135H33.4102V189.736C33.4102 187.85 32.3672 186.572 30.6504 186.572C28.9336 186.572 27.8203 187.908 27.8203 189.859V189.865C27.8203 191.846 28.9102 193.111 30.7148 193.111ZM30.6445 187.48C31.5762 187.48 32.2676 188.072 32.373 189.32H28.8809C28.9922 188.119 29.707 187.48 30.6445 187.48ZM34.9922 193H36.0117V189.262C36.0117 188.154 36.6504 187.475 37.6582 187.475C38.666 187.475 39.1348 188.02 39.1348 189.156V193H40.1543V188.91C40.1543 187.41 39.3633 186.572 37.9453 186.572C37.0137 186.572 36.4219 186.965 36.1055 187.633H36.0117V186.684H34.9922V193ZM44.2441 193.047C44.4434 193.047 44.6367 193.023 44.8359 192.988V192.121C44.6484 192.139 44.5488 192.145 44.3672 192.145C43.7109 192.145 43.4531 191.846 43.4531 191.102V187.527H44.8359V186.684H43.4531V185.049H42.3984V186.684H41.4023V187.527H42.3984V191.359C42.3984 192.566 42.9434 193.047 44.2441 193.047ZM50.2734 185.465C50.6602 185.465 50.9766 185.148 50.9766 184.762C50.9766 184.375 50.6602 184.059 50.2734 184.059C49.8867 184.059 49.5703 184.375 49.5703 184.762C49.5703 185.148 49.8867 185.465 50.2734 185.465ZM49.7578 193H50.7773V186.684H49.7578V193ZM54.8672 193.111C56.3027 193.111 57.3984 192.332 57.3984 191.207V191.195C57.3984 190.293 56.8242 189.777 55.6348 189.49L54.6621 189.256C53.918 189.074 53.6016 188.805 53.6016 188.377V188.365C53.6016 187.809 54.1523 187.422 54.9023 187.422C55.6641 187.422 56.1562 187.768 56.291 188.266H57.293C57.1523 187.234 56.2324 186.572 54.9082 186.572C53.5664 186.572 52.5586 187.363 52.5586 188.412V188.418C52.5586 189.326 53.0918 189.842 54.2754 190.123L55.2539 190.357C56.0332 190.545 56.3555 190.844 56.3555 191.271V191.283C56.3555 191.857 55.752 192.262 54.9023 192.262C54.0938 192.262 53.5898 191.916 53.4199 191.389H52.377C52.4941 192.432 53.4609 193.111 54.8672 193.111ZM64.5234 193.111C65.959 193.111 67.0547 192.332 67.0547 191.207V191.195C67.0547 190.293 66.4805 189.777 65.291 189.49L64.3184 189.256C63.5742 189.074 63.2578 188.805 63.2578 188.377V188.365C63.2578 187.809 63.8086 187.422 64.5586 187.422C65.3203 187.422 65.8125 187.768 65.9473 188.266H66.9492C66.8086 187.234 65.8887 186.572 64.5645 186.572C63.2227 186.572 62.2148 187.363 62.2148 188.412V188.418C62.2148 189.326 62.748 189.842 63.9316 190.123L64.9102 190.357C65.6895 190.545 66.0117 190.844 66.0117 191.271V191.283C66.0117 191.857 65.4082 192.262 64.5586 192.262C63.75 192.262 63.2461 191.916 63.0762 191.389H62.0332C62.1504 192.432 63.1172 193.111 64.5234 193.111ZM71.2148 193.111C72.7031 193.111 73.6055 192.268 73.8223 191.412L73.834 191.365H72.8145L72.791 191.418C72.6211 191.799 72.0938 192.203 71.2383 192.203C70.1133 192.203 69.3926 191.441 69.3633 190.135H73.9102V189.736C73.9102 187.85 72.8672 186.572 71.1504 186.572C69.4336 186.572 68.3203 187.908 68.3203 189.859V189.865C68.3203 191.846 69.4102 193.111 71.2148 193.111ZM71.1445 187.48C72.0762 187.48 72.7676 188.072 72.873 189.32H69.3809C69.4922 188.119 70.207 187.48 71.1445 187.48ZM75.5508 193H76.5703V184.176H75.5508V193ZM81.1055 193.111C82.5938 193.111 83.4961 192.268 83.7129 191.412L83.7246 191.365H82.7051L82.6816 191.418C82.5117 191.799 81.9844 192.203 81.1289 192.203C80.0039 192.203 79.2832 191.441 79.2539 190.135H83.8008V189.736C83.8008 187.85 82.7578 186.572 81.041 186.572C79.3242 186.572 78.2109 187.908 78.2109 189.859V189.865C78.2109 191.846 79.3008 193.111 81.1055 193.111ZM81.0352 187.48C81.9668 187.48 82.6582 188.072 82.7637 189.32H79.2715C79.3828 188.119 80.0977 187.48 81.0352 187.48ZM87.9668 193.111C89.4844 193.111 90.334 192.297 90.5918 191.154L90.6035 191.09L89.5957 191.096L89.584 191.131C89.3496 191.834 88.8105 192.209 87.9609 192.209C86.8359 192.209 86.1094 191.277 86.1094 189.824V189.812C86.1094 188.389 86.8242 187.475 87.9609 187.475C88.8691 187.475 89.4316 187.979 89.5898 188.6L89.5957 188.617H90.6094L90.6035 188.582C90.416 187.457 89.4961 186.572 87.9609 186.572C86.1914 186.572 85.0664 187.85 85.0664 189.812V189.824C85.0664 191.828 86.1973 193.111 87.9668 193.111ZM94.459 193.047C94.6582 193.047 94.8516 193.023 95.0508 192.988V192.121C94.8633 192.139 94.7637 192.145 94.582 192.145C93.9258 192.145 93.668 191.846 93.668 191.102V187.527H95.0508V186.684H93.668V185.049H92.6133V186.684H91.6172V187.527H92.6133V191.359C92.6133 192.566 93.1582 193.047 94.459 193.047ZM98.3086 193.111C99.1582 193.111 99.8203 192.742 100.219 192.068H100.312V193H101.332V188.676C101.332 187.363 100.471 186.572 98.9297 186.572C97.582 186.572 96.6211 187.24 96.457 188.23L96.4512 188.266H97.4707L97.4766 188.248C97.6406 187.756 98.1387 187.475 98.8945 187.475C99.8379 187.475 100.312 187.896 100.312 188.676V189.25L98.502 189.361C97.0312 189.449 96.1992 190.1 96.1992 191.225V191.236C96.1992 192.385 97.1074 193.111 98.3086 193.111ZM97.2422 191.213V191.201C97.2422 190.574 97.6641 190.234 98.625 190.176L100.312 190.07V190.645C100.312 191.547 99.5566 192.227 98.5195 192.227C97.7871 192.227 97.2422 191.852 97.2422 191.213ZM106.336 193.111C107.936 193.111 108.984 191.816 108.984 189.848V189.836C108.984 187.855 107.941 186.572 106.336 186.572C105.469 186.572 104.713 187.006 104.367 187.68H104.273V184.176H103.254V193H104.273V191.992H104.367C104.754 192.695 105.457 193.111 106.336 193.111ZM106.102 192.209C104.953 192.209 104.25 191.307 104.25 189.848V189.836C104.25 188.377 104.953 187.475 106.102 187.475C107.256 187.475 107.941 188.365 107.941 189.836V189.848C107.941 191.318 107.256 192.209 106.102 192.209ZM110.625 193H111.645V184.176H110.625V193ZM116.18 193.111C117.668 193.111 118.57 192.268 118.787 191.412L118.799 191.365H117.779L117.756 191.418C117.586 191.799 117.059 192.203 116.203 192.203C115.078 192.203 114.357 191.441 114.328 190.135H118.875V189.736C118.875 187.85 117.832 186.572 116.115 186.572C114.398 186.572 113.285 187.908 113.285 189.859V189.865C113.285 191.846 114.375 193.111 116.18 193.111ZM116.109 187.48C117.041 187.48 117.732 188.072 117.838 189.32H114.346C114.457 188.119 115.172 187.48 116.109 187.48Z" fill="#737577"/>
<path d="M84.168 75H85.3105V71.731H87.6211C89.3413 71.731 90.5601 70.5186 90.5601 68.7793V68.7666C90.5601 67.0273 89.3413 65.8403 87.6211 65.8403H84.168V75ZM87.3291 66.856C88.6367 66.856 89.3921 67.5732 89.3921 68.7793V68.792C89.3921 69.998 88.6367 70.7153 87.3291 70.7153H85.3105V66.856H87.3291ZM92.3564 75H93.4609V70.9502C93.4609 69.7505 94.1528 69.0142 95.2446 69.0142C96.3364 69.0142 96.8442 69.6045 96.8442 70.8359V75H97.9487V70.5693C97.9487 68.9443 97.0918 68.0366 95.5557 68.0366C94.5464 68.0366 93.9053 68.4619 93.5625 69.1855H93.4609V65.4404H92.3564V75ZM100.278 77.3994C101.491 77.3994 102.056 76.9551 102.621 75.4189L105.293 68.1572H104.131L102.259 73.7876H102.157L100.278 68.1572H99.0977L101.63 75.0063L101.503 75.4126C101.256 76.1997 100.875 76.4854 100.247 76.4854C100.094 76.4854 99.9229 76.479 99.7896 76.4536V77.3613C99.9419 77.3867 100.132 77.3994 100.278 77.3994ZM109.184 75.0508C109.4 75.0508 109.609 75.0254 109.825 74.9873V74.0479C109.622 74.0669 109.514 74.0732 109.317 74.0732C108.606 74.0732 108.327 73.7495 108.327 72.9434V69.0713H109.825V68.1572H108.327V66.3862H107.185V68.1572H106.105V69.0713H107.185V73.2227C107.185 74.5303 107.775 75.0508 109.184 75.0508ZM111.539 75H112.644V70.9502C112.644 69.7505 113.335 69.0142 114.427 69.0142C115.519 69.0142 116.027 69.6045 116.027 70.8359V75H117.131V70.5693C117.131 68.9443 116.274 68.0366 114.738 68.0366C113.729 68.0366 113.088 68.4619 112.745 69.1855H112.644V65.4404H111.539V75ZM121.943 75.1206C123.892 75.1206 125.098 73.7749 125.098 71.585V71.5723C125.098 69.376 123.892 68.0366 121.943 68.0366C119.994 68.0366 118.788 69.376 118.788 71.5723V71.585C118.788 73.7749 119.994 75.1206 121.943 75.1206ZM121.943 74.1431C120.648 74.1431 119.918 73.1973 119.918 71.585V71.5723C119.918 69.9536 120.648 69.0142 121.943 69.0142C123.238 69.0142 123.968 69.9536 123.968 71.5723V71.585C123.968 73.1973 123.238 74.1431 121.943 74.1431ZM126.812 75H127.916V70.9502C127.916 69.7505 128.608 69.0142 129.7 69.0142C130.792 69.0142 131.299 69.6045 131.299 70.8359V75H132.404V70.5693C132.404 68.9443 131.547 68.0366 130.011 68.0366C129.001 68.0366 128.36 68.4619 128.018 69.1855H127.916V68.1572H126.812V75Z" fill="#1F2326"/>
<path d="M84.168 99H85.3105V95.3755H87.564L89.5254 99H90.8647L88.7446 95.1978C89.8936 94.8359 90.5854 93.8457 90.5854 92.5762V92.5635C90.5854 90.9194 89.4302 89.8403 87.6655 89.8403H84.168V99ZM85.3105 94.3599V90.856H87.5132C88.6938 90.856 89.4048 91.5098 89.4048 92.6016V92.6143C89.4048 93.7314 88.7383 94.3599 87.564 94.3599H85.3105ZM94.813 99.1206C95.8159 99.1206 96.5078 98.708 96.8442 97.978H96.9458V99H98.0503V92.1572H96.9458V96.207C96.9458 97.4067 96.3047 98.1431 95.0986 98.1431C94.0068 98.1431 93.5625 97.5527 93.5625 96.3213V92.1572H92.458V96.5879C92.458 98.2065 93.2578 99.1206 94.813 99.1206ZM103.516 99.1206C105.249 99.1206 106.385 97.7178 106.385 95.585V95.5723C106.385 93.4268 105.255 92.0366 103.516 92.0366C102.576 92.0366 101.757 92.5063 101.383 93.2363H101.281V89.4404H100.177V99H101.281V97.9082H101.383C101.802 98.6699 102.563 99.1206 103.516 99.1206ZM103.262 98.1431C102.018 98.1431 101.256 97.1655 101.256 95.585V95.5723C101.256 93.9917 102.018 93.0142 103.262 93.0142C104.512 93.0142 105.255 93.979 105.255 95.5723V95.585C105.255 97.1782 104.512 98.1431 103.262 98.1431ZM108.429 101.399C109.641 101.399 110.206 100.955 110.771 99.4189L113.443 92.1572H112.282L110.409 97.7876H110.308L108.429 92.1572H107.248L109.781 99.0063L109.654 99.4126C109.406 100.2 109.025 100.485 108.397 100.485C108.245 100.485 108.073 100.479 107.94 100.454V101.361C108.092 101.387 108.283 101.399 108.429 101.399Z" fill="#1F2326"/>
<path d="M86.1294 123.216C87.8242 123.216 88.8271 122.188 88.8271 120.455V113.84H87.6846V120.442C87.6846 121.559 87.1387 122.162 86.123 122.162C85.2153 122.162 84.7646 121.584 84.6948 120.893L84.6885 120.829H83.5459L83.5522 120.918C83.6475 122.232 84.5425 123.216 86.1294 123.216ZM92.9023 123.121C93.8228 123.121 94.54 122.721 94.9717 121.991H95.0732V123H96.1777V118.315C96.1777 116.894 95.2446 116.037 93.5752 116.037C92.1152 116.037 91.0742 116.76 90.8965 117.833L90.8901 117.871H91.9946L92.001 117.852C92.1787 117.319 92.7183 117.014 93.5371 117.014C94.5591 117.014 95.0732 117.471 95.0732 118.315V118.938L93.1118 119.058C91.5186 119.153 90.6172 119.858 90.6172 121.077V121.089C90.6172 122.333 91.6011 123.121 92.9023 123.121ZM91.7471 121.064V121.051C91.7471 120.372 92.2041 120.004 93.2451 119.94L95.0732 119.826V120.448C95.0732 121.426 94.2544 122.162 93.1309 122.162C92.3374 122.162 91.7471 121.756 91.7471 121.064ZM99.8784 123H100.996L103.528 116.157H102.36L100.488 121.794H100.386L98.5137 116.157H97.3457L99.8784 123ZM106.613 123.121C107.534 123.121 108.251 122.721 108.683 121.991H108.784V123H109.889V118.315C109.889 116.894 108.956 116.037 107.286 116.037C105.826 116.037 104.785 116.76 104.607 117.833L104.601 117.871H105.706L105.712 117.852C105.89 117.319 106.429 117.014 107.248 117.014C108.27 117.014 108.784 117.471 108.784 118.315V118.938L106.823 119.058C105.229 119.153 104.328 119.858 104.328 121.077V121.089C104.328 122.333 105.312 123.121 106.613 123.121ZM105.458 121.064V121.051C105.458 120.372 105.915 120.004 106.956 119.94L108.784 119.826V120.448C108.784 121.426 107.965 122.162 106.842 122.162C106.048 122.162 105.458 121.756 105.458 121.064ZM115.049 123.216C117.093 123.216 118.433 122.149 118.433 120.436V120.429C118.433 119.109 117.677 118.341 115.767 117.916L114.751 117.687C113.507 117.414 113.005 116.919 113.005 116.189V116.183C113.005 115.224 113.888 114.685 115.03 114.678C116.224 114.672 116.985 115.269 117.112 116.075L117.125 116.157H118.268L118.261 116.068C118.166 114.704 116.89 113.625 115.062 113.625C113.17 113.625 111.844 114.697 111.837 116.214V116.221C111.837 117.547 112.631 118.392 114.465 118.798L115.481 119.02C116.738 119.299 117.265 119.82 117.265 120.582V120.588C117.265 121.521 116.357 122.162 115.113 122.162C113.792 122.162 112.84 121.584 112.758 120.67L112.751 120.601H111.609L111.615 120.67C111.749 122.162 113.043 123.216 115.049 123.216ZM122.997 123.121C124.641 123.121 125.561 122.238 125.84 121L125.853 120.931L124.761 120.937L124.749 120.975C124.495 121.737 123.911 122.143 122.99 122.143C121.771 122.143 120.984 121.134 120.984 119.56V119.547C120.984 118.004 121.759 117.014 122.99 117.014C123.974 117.014 124.583 117.56 124.755 118.233L124.761 118.252H125.859L125.853 118.214C125.65 116.995 124.653 116.037 122.99 116.037C121.073 116.037 119.854 117.42 119.854 119.547V119.56C119.854 121.73 121.08 123.121 122.997 123.121ZM127.472 123H128.576V118.76C128.576 117.757 129.325 117.09 130.379 117.09C130.62 117.09 130.83 117.116 131.058 117.154V116.081C130.95 116.062 130.715 116.037 130.506 116.037C129.579 116.037 128.938 116.456 128.678 117.173H128.576V116.157H127.472V123ZM133.007 114.837C133.426 114.837 133.769 114.494 133.769 114.075C133.769 113.656 133.426 113.313 133.007 113.313C132.588 113.313 132.245 113.656 132.245 114.075C132.245 114.494 132.588 114.837 133.007 114.837ZM132.448 123H133.553V116.157H132.448V123ZM135.635 125.285H136.739V121.921H136.841C137.215 122.651 138.034 123.121 138.974 123.121C140.713 123.121 141.843 121.73 141.843 119.585V119.572C141.843 117.439 140.707 116.037 138.974 116.037C138.021 116.037 137.26 116.487 136.841 117.249H136.739V116.157H135.635V125.285ZM138.72 122.143C137.476 122.143 136.714 121.166 136.714 119.585V119.572C136.714 117.992 137.476 117.014 138.72 117.014C139.97 117.014 140.713 117.979 140.713 119.572V119.585C140.713 121.178 139.97 122.143 138.72 122.143ZM146 123.051C146.216 123.051 146.426 123.025 146.642 122.987V122.048C146.438 122.067 146.331 122.073 146.134 122.073C145.423 122.073 145.144 121.75 145.144 120.943V117.071H146.642V116.157H145.144V114.386H144.001V116.157H142.922V117.071H144.001V121.223C144.001 122.53 144.591 123.051 146 123.051Z" fill="#1F2326"/>
<circle cx="71" cy="95" r="7.5" fill="white" stroke="#80C6FF"/>
<circle cx="71" cy="70" r="7.5" fill="white" stroke="#80C6FF"/>
<circle cx="71" cy="70" r="4" fill="#008EFF"/>
<circle cx="71" cy="119" r="7.5" fill="white" stroke="#80C6FF"/>
<path d="M64.168 51H69.7285V49.9717H65.3105V41.8403H64.168V51ZM73.2959 51.1206C74.2163 51.1206 74.9336 50.7207 75.3652 49.9907H75.4668V51H76.5713V46.3154C76.5713 44.8936 75.6382 44.0366 73.9688 44.0366C72.5088 44.0366 71.4678 44.7603 71.29 45.833L71.2837 45.8711H72.3882L72.3945 45.8521C72.5723 45.3188 73.1118 45.0142 73.9307 45.0142C74.9526 45.0142 75.4668 45.4712 75.4668 46.3154V46.9375L73.5054 47.0581C71.9121 47.1533 71.0107 47.8579 71.0107 49.0767V49.0894C71.0107 50.3335 71.9946 51.1206 73.2959 51.1206ZM72.1406 49.064V49.0513C72.1406 48.3721 72.5977 48.0039 73.6387 47.9404L75.4668 47.8262V48.4482C75.4668 49.4258 74.6479 50.1621 73.5244 50.1621C72.731 50.1621 72.1406 49.7559 72.1406 49.064ZM78.5898 51H79.6943V46.9502C79.6943 45.7505 80.3862 45.0142 81.478 45.0142C82.5698 45.0142 83.0776 45.6045 83.0776 46.8359V51H84.1821V46.5693C84.1821 44.9443 83.3252 44.0366 81.7891 44.0366C80.7798 44.0366 80.1387 44.4619 79.7959 45.1855H79.6943V44.1572H78.5898V51ZM89 53.4121C90.8662 53.4121 92.0469 52.4346 92.0469 50.9048V44.1572H90.9424V45.2871H90.8662C90.4473 44.5127 89.6982 44.0366 88.7334 44.0366C86.9434 44.0366 85.8389 45.4268 85.8389 47.3438V47.3564C85.8389 49.2734 86.937 50.6445 88.708 50.6445C89.6475 50.6445 90.4219 50.2192 90.8535 49.4639H90.9551V50.8477C90.9551 51.8569 90.2251 52.4346 89 52.4346C88.0161 52.4346 87.4067 52.0664 87.2861 51.5459L87.2798 51.5396H86.1372L86.1245 51.5459C86.2959 52.6694 87.3496 53.4121 89 53.4121ZM88.9492 49.667C87.6797 49.667 86.9688 48.7148 86.9688 47.3564V47.3438C86.9688 45.9854 87.6797 45.0142 88.9492 45.0142C90.2124 45.0142 90.9805 45.9854 90.9805 47.3438V47.3564C90.9805 48.7148 90.2188 49.667 88.9492 49.667ZM96.395 51.1206C97.3979 51.1206 98.0898 50.708 98.4263 49.978H98.5278V51H99.6323V44.1572H98.5278V48.207C98.5278 49.4067 97.8867 50.1431 96.6807 50.1431C95.5889 50.1431 95.1445 49.5527 95.1445 48.3213V44.1572H94.04V48.5879C94.04 50.2065 94.8398 51.1206 96.395 51.1206ZM103.574 51.1206C104.495 51.1206 105.212 50.7207 105.644 49.9907H105.745V51H106.85V46.3154C106.85 44.8936 105.917 44.0366 104.247 44.0366C102.787 44.0366 101.746 44.7603 101.568 45.833L101.562 45.8711H102.667L102.673 45.8521C102.851 45.3188 103.39 45.0142 104.209 45.0142C105.231 45.0142 105.745 45.4712 105.745 46.3154V46.9375L103.784 47.0581C102.19 47.1533 101.289 47.8579 101.289 49.0767V49.0894C101.289 50.3335 102.273 51.1206 103.574 51.1206ZM102.419 49.064V49.0513C102.419 48.3721 102.876 48.0039 103.917 47.9404L105.745 47.8262V48.4482C105.745 49.4258 104.926 50.1621 103.803 50.1621C103.009 50.1621 102.419 49.7559 102.419 49.064ZM111.687 53.4121C113.553 53.4121 114.733 52.4346 114.733 50.9048V44.1572H113.629V45.2871H113.553C113.134 44.5127 112.385 44.0366 111.42 44.0366C109.63 44.0366 108.525 45.4268 108.525 47.3438V47.3564C108.525 49.2734 109.624 50.6445 111.395 50.6445C112.334 50.6445 113.108 50.2192 113.54 49.4639H113.642V50.8477C113.642 51.8569 112.912 52.4346 111.687 52.4346C110.703 52.4346 110.093 52.0664 109.973 51.5459L109.966 51.5396H108.824L108.811 51.5459C108.982 52.6694 110.036 53.4121 111.687 53.4121ZM111.636 49.667C110.366 49.667 109.655 48.7148 109.655 47.3564V47.3438C109.655 45.9854 110.366 45.0142 111.636 45.0142C112.899 45.0142 113.667 45.9854 113.667 47.3438V47.3564C113.667 48.7148 112.905 49.667 111.636 49.667ZM119.583 51.1206C121.195 51.1206 122.173 50.2065 122.408 49.2798L122.42 49.229H121.316L121.291 49.2861C121.106 49.6987 120.535 50.1367 119.608 50.1367C118.39 50.1367 117.609 49.3115 117.577 47.896H122.503V47.4644C122.503 45.4204 121.373 44.0366 119.513 44.0366C117.653 44.0366 116.447 45.4839 116.447 47.5977V47.604C116.447 49.7495 117.628 51.1206 119.583 51.1206ZM119.507 45.0205C120.516 45.0205 121.265 45.6616 121.379 47.0137H117.596C117.717 45.7124 118.491 45.0205 119.507 45.0205Z" fill="#1F2326"/>
<rect x="256" width="211" height="162" fill="#F8F8F9"/>
<path d="M269.002 8C265.766 7.99899 262.849 9.94732 261.61 12.9364C260.371 15.9255 261.055 19.3665 263.342 21.6548C265.63 23.9431 269.071 24.628 272.06 23.39C275.05 22.152 276.999 19.235 276.999 15.9993C277 11.5821 273.419 8.0007 269.002 8ZM272.805 18.5299L271.532 19.8034L269.002 17.2736L266.472 19.8034L265.199 18.5299L267.728 16.0001L265.199 13.4703L266.472 12.1969L269.002 14.7267L271.532 12.1969L272.805 13.4703L270.275 16.0001L272.805 18.5299Z" fill="#DB5860"/>
<path d="M256 3C256 1.34315 257.343 0 259 0H464C465.657 0 467 1.34315 467 3V4H256V3Z" fill="#DB5860"/>
<path d="M258.168 181H261.31C264.033 181 265.633 179.305 265.633 176.423V176.411C265.633 173.535 264.027 171.84 261.31 171.84H258.168V181ZM259.311 179.972V172.869H261.234C263.265 172.869 264.465 174.189 264.465 176.423V176.436C264.465 178.664 263.278 179.972 261.234 179.972H259.311ZM270.286 181.121C272.234 181.121 273.44 179.775 273.44 177.585V177.572C273.44 175.376 272.234 174.037 270.286 174.037C268.337 174.037 267.131 175.376 267.131 177.572V177.585C267.131 179.775 268.337 181.121 270.286 181.121ZM270.286 180.143C268.991 180.143 268.261 179.197 268.261 177.585V177.572C268.261 175.954 268.991 175.014 270.286 175.014C271.581 175.014 272.311 175.954 272.311 177.572V177.585C272.311 179.197 271.581 180.143 270.286 180.143ZM275.154 181H276.259V176.95C276.259 175.75 276.951 175.014 278.042 175.014C279.134 175.014 279.642 175.604 279.642 176.836V181H280.747V176.569C280.747 174.944 279.89 174.037 278.354 174.037C277.344 174.037 276.703 174.462 276.36 175.186H276.259V174.157H275.154V181ZM282.74 175.452H283.559L284.555 171.84H283.292L282.74 175.452ZM289.037 181.051C289.252 181.051 289.462 181.025 289.678 180.987V180.048C289.475 180.067 289.367 180.073 289.17 180.073C288.459 180.073 288.18 179.75 288.18 178.943V175.071H289.678V174.157H288.18V172.386H287.037V174.157H285.958V175.071H287.037V179.223C287.037 180.53 287.627 181.051 289.037 181.051Z" fill="#C22731"/>
<path d="M297.276 181.121C298.279 181.121 298.971 180.708 299.307 179.978H299.409V181H300.513V174.157H299.409V178.207C299.409 179.407 298.768 180.143 297.562 180.143C296.47 180.143 296.025 179.553 296.025 178.321V174.157H294.921V178.588C294.921 180.207 295.721 181.121 297.276 181.121ZM304.925 181.121C306.48 181.121 307.667 180.276 307.667 179.058V179.045C307.667 178.067 307.045 177.509 305.756 177.198L304.703 176.944C303.896 176.747 303.554 176.455 303.554 175.992V175.979C303.554 175.376 304.15 174.957 304.963 174.957C305.788 174.957 306.321 175.332 306.467 175.871H307.553C307.4 174.754 306.404 174.037 304.969 174.037C303.516 174.037 302.424 174.894 302.424 176.03V176.036C302.424 177.02 303.001 177.579 304.284 177.883L305.344 178.137C306.188 178.34 306.537 178.664 306.537 179.127V179.14C306.537 179.762 305.883 180.2 304.963 180.2C304.087 180.2 303.541 179.826 303.357 179.254H302.227C302.354 180.384 303.401 181.121 304.925 181.121ZM312.174 181.121C313.786 181.121 314.764 180.207 314.999 179.28L315.011 179.229H313.907L313.881 179.286C313.697 179.699 313.126 180.137 312.199 180.137C310.98 180.137 310.2 179.312 310.168 177.896H315.094V177.464C315.094 175.42 313.964 174.037 312.104 174.037C310.244 174.037 309.038 175.484 309.038 177.598V177.604C309.038 179.75 310.219 181.121 312.174 181.121ZM312.098 175.021C313.107 175.021 313.856 175.662 313.97 177.014H310.187C310.308 175.712 311.082 175.021 312.098 175.021ZM320.464 181H321.568V176.76C321.568 175.757 322.317 175.09 323.371 175.09C323.612 175.09 323.822 175.116 324.05 175.154V174.081C323.942 174.062 323.708 174.037 323.498 174.037C322.571 174.037 321.93 174.456 321.67 175.173H321.568V174.157H320.464V181ZM327.294 181.121C328.214 181.121 328.932 180.721 329.363 179.991H329.465V181H330.569V176.315C330.569 174.894 329.636 174.037 327.967 174.037C326.507 174.037 325.466 174.76 325.288 175.833L325.282 175.871H326.386L326.393 175.852C326.57 175.319 327.11 175.014 327.929 175.014C328.951 175.014 329.465 175.471 329.465 176.315V176.938L327.503 177.058C325.91 177.153 325.009 177.858 325.009 179.077V179.089C325.009 180.333 325.993 181.121 327.294 181.121ZM326.139 179.064V179.051C326.139 178.372 326.596 178.004 327.637 177.94L329.465 177.826V178.448C329.465 179.426 328.646 180.162 327.522 180.162C326.729 180.162 326.139 179.756 326.139 179.064ZM335.114 181.121C336.066 181.121 336.828 180.67 337.247 179.908H337.349V181H338.453V171.44H337.349V175.236H337.247C336.873 174.506 336.054 174.037 335.114 174.037C333.375 174.037 332.245 175.427 332.245 177.572V177.585C332.245 179.718 333.381 181.121 335.114 181.121ZM335.368 180.143C334.118 180.143 333.375 179.178 333.375 177.585V177.572C333.375 175.979 334.118 175.014 335.368 175.014C336.612 175.014 337.374 175.992 337.374 177.572V177.585C337.374 179.166 336.612 180.143 335.368 180.143ZM341.157 172.837C341.576 172.837 341.919 172.494 341.919 172.075C341.919 171.656 341.576 171.313 341.157 171.313C340.738 171.313 340.396 171.656 340.396 172.075C340.396 172.494 340.738 172.837 341.157 172.837ZM340.599 181H341.703V174.157H340.599V181ZM346.597 181.121C348.546 181.121 349.752 179.775 349.752 177.585V177.572C349.752 175.376 348.546 174.037 346.597 174.037C344.648 174.037 343.442 175.376 343.442 177.572V177.585C343.442 179.775 344.648 181.121 346.597 181.121ZM346.597 180.143C345.302 180.143 344.572 179.197 344.572 177.585V177.572C344.572 175.954 345.302 175.014 346.597 175.014C347.892 175.014 348.622 175.954 348.622 177.572V177.585C348.622 179.197 347.892 180.143 346.597 180.143ZM358.524 181.121C360.257 181.121 361.394 179.718 361.394 177.585V177.572C361.394 175.427 360.264 174.037 358.524 174.037C357.585 174.037 356.766 174.506 356.392 175.236H356.29V171.44H355.186V181H356.29V179.908H356.392C356.811 180.67 357.572 181.121 358.524 181.121ZM358.271 180.143C357.026 180.143 356.265 179.166 356.265 177.585V177.572C356.265 175.992 357.026 175.014 358.271 175.014C359.521 175.014 360.264 175.979 360.264 177.572V177.585C360.264 179.178 359.521 180.143 358.271 180.143ZM365.399 181.121C366.402 181.121 367.094 180.708 367.43 179.978H367.532V181H368.636V174.157H367.532V178.207C367.532 179.407 366.891 180.143 365.685 180.143C364.593 180.143 364.148 179.553 364.148 178.321V174.157H363.044V178.588C363.044 180.207 363.844 181.121 365.399 181.121ZM373.13 181.051C373.346 181.051 373.556 181.025 373.771 180.987V180.048C373.568 180.067 373.46 180.073 373.264 180.073C372.553 180.073 372.273 179.75 372.273 178.943V175.071H373.771V174.157H372.273V172.386H371.131V174.157H370.052V175.071H371.131V179.223C371.131 180.53 371.721 181.051 373.13 181.051ZM377.853 181.051C378.069 181.051 378.278 181.025 378.494 180.987V180.048C378.291 180.067 378.183 180.073 377.986 180.073C377.275 180.073 376.996 179.75 376.996 178.943V175.071H378.494V174.157H376.996V172.386H375.854V174.157H374.774V175.071H375.854V179.223C375.854 180.53 376.444 181.051 377.853 181.051ZM382.855 181.121C384.804 181.121 386.01 179.775 386.01 177.585V177.572C386.01 175.376 384.804 174.037 382.855 174.037C380.906 174.037 379.7 175.376 379.7 177.572V177.585C379.7 179.775 380.906 181.121 382.855 181.121ZM382.855 180.143C381.56 180.143 380.83 179.197 380.83 177.585V177.572C380.83 175.954 381.56 175.014 382.855 175.014C384.15 175.014 384.88 175.954 384.88 177.572V177.585C384.88 179.197 384.15 180.143 382.855 180.143ZM387.724 181H388.828V176.95C388.828 175.75 389.52 175.014 390.612 175.014C391.704 175.014 392.211 175.604 392.211 176.836V181H393.316V176.569C393.316 174.944 392.459 174.037 390.923 174.037C389.914 174.037 389.272 174.462 388.93 175.186H388.828V174.157H387.724V181ZM397.664 181.121C399.219 181.121 400.406 180.276 400.406 179.058V179.045C400.406 178.067 399.784 177.509 398.496 177.198L397.442 176.944C396.636 176.747 396.293 176.455 396.293 175.992V175.979C396.293 175.376 396.89 174.957 397.702 174.957C398.527 174.957 399.061 175.332 399.207 175.871H400.292C400.14 174.754 399.143 174.037 397.708 174.037C396.255 174.037 395.163 174.894 395.163 176.03V176.036C395.163 177.02 395.741 177.579 397.023 177.883L398.083 178.137C398.927 178.34 399.276 178.664 399.276 179.127V179.14C399.276 179.762 398.623 180.2 397.702 180.2C396.826 180.2 396.28 179.826 396.096 179.254H394.966C395.093 180.384 396.141 181.121 397.664 181.121ZM406.36 172.837C406.779 172.837 407.122 172.494 407.122 172.075C407.122 171.656 406.779 171.313 406.36 171.313C405.941 171.313 405.599 171.656 405.599 172.075C405.599 172.494 405.941 172.837 406.36 172.837ZM405.802 181H406.906V174.157H405.802V181ZM409.445 181H410.55V175.071H412.105V174.157H410.55V173.427C410.55 172.678 410.867 172.291 411.654 172.291C411.851 172.291 412.035 172.297 412.168 172.323V171.44C411.94 171.396 411.699 171.377 411.432 171.377C410.131 171.377 409.445 172.031 409.445 173.396V174.157H408.309V175.071H409.445V181ZM417.354 181H418.459V176.76C418.459 175.795 419.138 175.014 420.033 175.014C420.896 175.014 421.455 175.541 421.455 176.354V181H422.56V176.601C422.56 175.731 423.188 175.014 424.14 175.014C425.105 175.014 425.568 175.516 425.568 176.525V181H426.673V176.271C426.673 174.836 425.892 174.037 424.496 174.037C423.55 174.037 422.769 174.513 422.401 175.236H422.299C421.982 174.525 421.334 174.037 420.408 174.037C419.513 174.037 418.865 174.462 418.561 175.198H418.459V174.157H417.354V181ZM430.958 181.121C431.96 181.121 432.652 180.708 432.989 179.978H433.09V181H434.195V174.157H433.09V178.207C433.09 179.407 432.449 180.143 431.243 180.143C430.151 180.143 429.707 179.553 429.707 178.321V174.157H428.603V178.588C428.603 180.207 429.402 181.121 430.958 181.121ZM436.321 181H437.426V171.44H436.321V181ZM441.977 181.051C442.193 181.051 442.402 181.025 442.618 180.987V180.048C442.415 180.067 442.307 180.073 442.11 180.073C441.399 180.073 441.12 179.75 441.12 178.943V175.071H442.618V174.157H441.12V172.386H439.978V174.157H438.898V175.071H439.978V179.223C439.978 180.53 440.568 181.051 441.977 181.051ZM444.853 172.837C445.271 172.837 445.614 172.494 445.614 172.075C445.614 171.656 445.271 171.313 444.853 171.313C444.434 171.313 444.091 171.656 444.091 172.075C444.091 172.494 444.434 172.837 444.853 172.837ZM444.294 181H445.398V174.157H444.294V181ZM447.48 183.285H448.585V179.921H448.687C449.061 180.651 449.88 181.121 450.819 181.121C452.559 181.121 453.688 179.73 453.688 177.585V177.572C453.688 175.439 452.552 174.037 450.819 174.037C449.867 174.037 449.105 174.487 448.687 175.249H448.585V174.157H447.48V183.285ZM450.565 180.143C449.321 180.143 448.56 179.166 448.56 177.585V177.572C448.56 175.992 449.321 175.014 450.565 175.014C451.816 175.014 452.559 175.979 452.559 177.572V177.585C452.559 179.178 451.816 180.143 450.565 180.143ZM455.479 181H456.583V171.44H455.479V181ZM461.496 181.121C463.108 181.121 464.086 180.207 464.321 179.28L464.333 179.229H463.229L463.204 179.286C463.02 179.699 462.448 180.137 461.521 180.137C460.303 180.137 459.522 179.312 459.49 177.896H464.416V177.464C464.416 175.42 463.286 174.037 461.426 174.037C459.566 174.037 458.36 175.484 458.36 177.598V177.604C458.36 179.75 459.541 181.121 461.496 181.121ZM461.42 175.021C462.429 175.021 463.178 175.662 463.292 177.014H459.509C459.63 175.712 460.404 175.021 461.42 175.021ZM260.821 201.121C262.434 201.121 263.411 200.207 263.646 199.28L263.659 199.229H262.554L262.529 199.286C262.345 199.699 261.773 200.137 260.847 200.137C259.628 200.137 258.847 199.312 258.815 197.896H263.741V197.464C263.741 195.42 262.611 194.037 260.751 194.037C258.892 194.037 257.686 195.484 257.686 197.598V197.604C257.686 199.75 258.866 201.121 260.821 201.121ZM260.745 195.021C261.754 195.021 262.503 195.662 262.618 197.014H258.834C258.955 195.712 259.729 195.021 260.745 195.021ZM265.519 201H266.623V191.44H265.519V201ZM271.536 201.121C273.148 201.121 274.126 200.207 274.361 199.28L274.374 199.229H273.269L273.244 199.286C273.06 199.699 272.488 200.137 271.562 200.137C270.343 200.137 269.562 199.312 269.53 197.896H274.456V197.464C274.456 195.42 273.326 194.037 271.466 194.037C269.606 194.037 268.4 195.484 268.4 197.598V197.604C268.4 199.75 269.581 201.121 271.536 201.121ZM271.46 195.021C272.469 195.021 273.218 195.662 273.333 197.014H269.549C269.67 195.712 270.444 195.021 271.46 195.021ZM276.17 201H277.274V196.76C277.274 195.795 277.954 195.014 278.849 195.014C279.712 195.014 280.271 195.541 280.271 196.354V201H281.375V196.601C281.375 195.731 282.003 195.014 282.956 195.014C283.92 195.014 284.384 195.516 284.384 196.525V201H285.488V196.271C285.488 194.836 284.708 194.037 283.311 194.037C282.365 194.037 281.584 194.513 281.216 195.236H281.115C280.797 194.525 280.15 194.037 279.223 194.037C278.328 194.037 277.681 194.462 277.376 195.198H277.274V194.157H276.17V201ZM290.274 201.121C291.887 201.121 292.864 200.207 293.099 199.28L293.112 199.229H292.007L291.982 199.286C291.798 199.699 291.227 200.137 290.3 200.137C289.081 200.137 288.3 199.312 288.269 197.896H293.194V197.464C293.194 195.42 292.064 194.037 290.205 194.037C288.345 194.037 287.139 195.484 287.139 197.598V197.604C287.139 199.75 288.319 201.121 290.274 201.121ZM290.198 195.021C291.208 195.021 291.957 195.662 292.071 197.014H288.288C288.408 195.712 289.183 195.021 290.198 195.021ZM294.908 201H296.013V196.95C296.013 195.75 296.705 195.014 297.796 195.014C298.888 195.014 299.396 195.604 299.396 196.836V201H300.5V196.569C300.5 194.944 299.644 194.037 298.107 194.037C297.098 194.037 296.457 194.462 296.114 195.186H296.013V194.157H294.908V201ZM304.931 201.051C305.147 201.051 305.356 201.025 305.572 200.987V200.048C305.369 200.067 305.261 200.073 305.064 200.073C304.354 200.073 304.074 199.75 304.074 198.943V195.071H305.572V194.157H304.074V192.386H302.932V194.157H301.853V195.071H302.932V199.223C302.932 200.53 303.522 201.051 304.931 201.051ZM309.444 201.121C311 201.121 312.187 200.276 312.187 199.058V199.045C312.187 198.067 311.564 197.509 310.276 197.198L309.222 196.944C308.416 196.747 308.073 196.455 308.073 195.992V195.979C308.073 195.376 308.67 194.957 309.482 194.957C310.308 194.957 310.841 195.332 310.987 195.871H312.072C311.92 194.754 310.923 194.037 309.489 194.037C308.035 194.037 306.943 194.894 306.943 196.03V196.036C306.943 197.02 307.521 197.579 308.803 197.883L309.863 198.137C310.708 198.34 311.057 198.664 311.057 199.127V199.14C311.057 199.762 310.403 200.2 309.482 200.2C308.606 200.2 308.061 199.826 307.876 199.254H306.747C306.874 200.384 307.921 201.121 309.444 201.121ZM319.436 201.121C320.356 201.121 321.073 200.721 321.505 199.991H321.606V201H322.711V196.315C322.711 194.894 321.778 194.037 320.108 194.037C318.648 194.037 317.607 194.76 317.43 195.833L317.423 195.871H318.528L318.534 195.852C318.712 195.319 319.251 195.014 320.07 195.014C321.092 195.014 321.606 195.471 321.606 196.315V196.938L319.645 197.058C318.052 197.153 317.15 197.858 317.15 199.077V199.089C317.15 200.333 318.134 201.121 319.436 201.121ZM318.28 199.064V199.051C318.28 198.372 318.737 198.004 319.778 197.94L321.606 197.826V198.448C321.606 199.426 320.788 200.162 319.664 200.162C318.871 200.162 318.28 199.756 318.28 199.064ZM324.729 201H325.834V196.76C325.834 195.757 326.583 195.09 327.637 195.09C327.878 195.09 328.087 195.116 328.316 195.154V194.081C328.208 194.062 327.973 194.037 327.764 194.037C326.837 194.037 326.196 194.456 325.936 195.173H325.834V194.157H324.729V201ZM332.283 201.121C333.896 201.121 334.873 200.207 335.108 199.28L335.121 199.229H334.016L333.991 199.286C333.807 199.699 333.235 200.137 332.309 200.137C331.09 200.137 330.309 199.312 330.277 197.896H335.203V197.464C335.203 195.42 334.073 194.037 332.213 194.037C330.354 194.037 329.147 195.484 329.147 197.598V197.604C329.147 199.75 330.328 201.121 332.283 201.121ZM332.207 195.021C333.216 195.021 333.965 195.662 334.08 197.014H330.296C330.417 195.712 331.191 195.021 332.207 195.021ZM342.922 201.121C344.477 201.121 345.664 200.276 345.664 199.058V199.045C345.664 198.067 345.042 197.509 343.753 197.198L342.7 196.944C341.894 196.747 341.551 196.455 341.551 195.992V195.979C341.551 195.376 342.147 194.957 342.96 194.957C343.785 194.957 344.318 195.332 344.464 195.871H345.55C345.397 194.754 344.401 194.037 342.966 194.037C341.513 194.037 340.421 194.894 340.421 196.03V196.036C340.421 197.02 340.999 197.579 342.281 197.883L343.341 198.137C344.185 198.34 344.534 198.664 344.534 199.127V199.14C344.534 199.762 343.88 200.2 342.96 200.2C342.084 200.2 341.538 199.826 341.354 199.254H340.224C340.351 200.384 341.398 201.121 342.922 201.121ZM350.171 201.121C351.783 201.121 352.761 200.207 352.996 199.28L353.008 199.229H351.904L351.878 199.286C351.694 199.699 351.123 200.137 350.196 200.137C348.978 200.137 348.197 199.312 348.165 197.896H353.091V197.464C353.091 195.42 351.961 194.037 350.101 194.037C348.241 194.037 347.035 195.484 347.035 197.598V197.604C347.035 199.75 348.216 201.121 350.171 201.121ZM350.095 195.021C351.104 195.021 351.853 195.662 351.967 197.014H348.184C348.305 195.712 349.079 195.021 350.095 195.021ZM354.868 201H355.973V191.44H354.868V201ZM360.886 201.121C362.498 201.121 363.476 200.207 363.71 199.28L363.723 199.229H362.619L362.593 199.286C362.409 199.699 361.838 200.137 360.911 200.137C359.692 200.137 358.912 199.312 358.88 197.896H363.806V197.464C363.806 195.42 362.676 194.037 360.816 194.037C358.956 194.037 357.75 195.484 357.75 197.598V197.604C357.75 199.75 358.931 201.121 360.886 201.121ZM360.81 195.021C361.819 195.021 362.568 195.662 362.682 197.014H358.899C359.02 195.712 359.794 195.021 360.81 195.021ZM368.319 201.121C369.963 201.121 370.883 200.238 371.163 199L371.175 198.931L370.083 198.937L370.071 198.975C369.817 199.737 369.233 200.143 368.312 200.143C367.094 200.143 366.307 199.134 366.307 197.56V197.547C366.307 196.004 367.081 195.014 368.312 195.014C369.296 195.014 369.906 195.56 370.077 196.233L370.083 196.252H371.182L371.175 196.214C370.972 194.995 369.976 194.037 368.312 194.037C366.396 194.037 365.177 195.42 365.177 197.547V197.56C365.177 199.73 366.402 201.121 368.319 201.121ZM375.352 201.051C375.568 201.051 375.777 201.025 375.993 200.987V200.048C375.79 200.067 375.682 200.073 375.485 200.073C374.774 200.073 374.495 199.75 374.495 198.943V195.071H375.993V194.157H374.495V192.386H373.353V194.157H372.273V195.071H373.353V199.223C373.353 200.53 373.943 201.051 375.352 201.051ZM379.522 201.121C380.443 201.121 381.16 200.721 381.592 199.991H381.693V201H382.798V196.315C382.798 194.894 381.865 194.037 380.195 194.037C378.735 194.037 377.694 194.76 377.517 195.833L377.51 195.871H378.615L378.621 195.852C378.799 195.319 379.338 195.014 380.157 195.014C381.179 195.014 381.693 195.471 381.693 196.315V196.938L379.732 197.058C378.139 197.153 377.237 197.858 377.237 199.077V199.089C377.237 200.333 378.221 201.121 379.522 201.121ZM378.367 199.064V199.051C378.367 198.372 378.824 198.004 379.865 197.94L381.693 197.826V198.448C381.693 199.426 380.875 200.162 379.751 200.162C378.958 200.162 378.367 199.756 378.367 199.064ZM388.219 201.121C389.952 201.121 391.088 199.718 391.088 197.585V197.572C391.088 195.427 389.958 194.037 388.219 194.037C387.279 194.037 386.46 194.506 386.086 195.236H385.984V191.44H384.88V201H385.984V199.908H386.086C386.505 200.67 387.267 201.121 388.219 201.121ZM387.965 200.143C386.721 200.143 385.959 199.166 385.959 197.585V197.572C385.959 195.992 386.721 195.014 387.965 195.014C389.215 195.014 389.958 195.979 389.958 197.572V197.585C389.958 199.178 389.215 200.143 387.965 200.143ZM392.865 201H393.97V191.44H392.865V201ZM398.883 201.121C400.495 201.121 401.473 200.207 401.708 199.28L401.72 199.229H400.616L400.59 199.286C400.406 199.699 399.835 200.137 398.908 200.137C397.689 200.137 396.909 199.312 396.877 197.896H401.803V197.464C401.803 195.42 400.673 194.037 398.813 194.037C396.953 194.037 395.747 195.484 395.747 197.598V197.604C395.747 199.75 396.928 201.121 398.883 201.121ZM398.807 195.021C399.816 195.021 400.565 195.662 400.679 197.014H396.896C397.017 195.712 397.791 195.021 398.807 195.021Z" fill="#737577"/>
<path d="M342.168 76H343.311V72.731H345.621C347.341 72.731 348.56 71.5186 348.56 69.7793V69.7666C348.56 68.0273 347.341 66.8403 345.621 66.8403H342.168V76ZM345.329 67.856C346.637 67.856 347.392 68.5732 347.392 69.7793V69.792C347.392 70.998 346.637 71.7153 345.329 71.7153H343.311V67.856H345.329ZM350.356 76H351.461V71.9502C351.461 70.7505 352.153 70.0142 353.245 70.0142C354.336 70.0142 354.844 70.6045 354.844 71.8359V76H355.949V71.5693C355.949 69.9443 355.092 69.0366 353.556 69.0366C352.546 69.0366 351.905 69.4619 351.562 70.1855H351.461V66.4404H350.356V76ZM358.278 78.3994C359.491 78.3994 360.056 77.9551 360.621 76.4189L363.293 69.1572H362.131L360.259 74.7876H360.157L358.278 69.1572H357.098L359.63 76.0063L359.503 76.4126C359.256 77.1997 358.875 77.4854 358.247 77.4854C358.094 77.4854 357.923 77.479 357.79 77.4536V78.3613C357.942 78.3867 358.132 78.3994 358.278 78.3994ZM367.184 76.0508C367.4 76.0508 367.609 76.0254 367.825 75.9873V75.0479C367.622 75.0669 367.514 75.0732 367.317 75.0732C366.606 75.0732 366.327 74.7495 366.327 73.9434V70.0713H367.825V69.1572H366.327V67.3862H365.185V69.1572H364.105V70.0713H365.185V74.2227C365.185 75.5303 365.775 76.0508 367.184 76.0508ZM369.539 76H370.644V71.9502C370.644 70.7505 371.335 70.0142 372.427 70.0142C373.519 70.0142 374.027 70.6045 374.027 71.8359V76H375.131V71.5693C375.131 69.9443 374.274 69.0366 372.738 69.0366C371.729 69.0366 371.088 69.4619 370.745 70.1855H370.644V66.4404H369.539V76ZM379.943 76.1206C381.892 76.1206 383.098 74.7749 383.098 72.585V72.5723C383.098 70.376 381.892 69.0366 379.943 69.0366C377.994 69.0366 376.788 70.376 376.788 72.5723V72.585C376.788 74.7749 377.994 76.1206 379.943 76.1206ZM379.943 75.1431C378.648 75.1431 377.918 74.1973 377.918 72.585V72.5723C377.918 70.9536 378.648 70.0142 379.943 70.0142C381.238 70.0142 381.968 70.9536 381.968 72.5723V72.585C381.968 74.1973 381.238 75.1431 379.943 75.1431ZM384.812 76H385.916V71.9502C385.916 70.7505 386.608 70.0142 387.7 70.0142C388.792 70.0142 389.299 70.6045 389.299 71.8359V76H390.404V71.5693C390.404 69.9443 389.547 69.0366 388.011 69.0366C387.001 69.0366 386.36 69.4619 386.018 70.1855H385.916V69.1572H384.812V76Z" fill="#1F2326"/>
<path d="M342.168 100H343.311V96.3755H345.564L347.525 100H348.865L346.745 96.1978C347.894 95.8359 348.585 94.8457 348.585 93.5762V93.5635C348.585 91.9194 347.43 90.8403 345.666 90.8403H342.168V100ZM343.311 95.3599V91.856H345.513C346.694 91.856 347.405 92.5098 347.405 93.6016V93.6143C347.405 94.7314 346.738 95.3599 345.564 95.3599H343.311ZM352.813 100.121C353.816 100.121 354.508 99.708 354.844 98.978H354.946V100H356.05V93.1572H354.946V97.207C354.946 98.4067 354.305 99.1431 353.099 99.1431C352.007 99.1431 351.562 98.5527 351.562 97.3213V93.1572H350.458V97.5879C350.458 99.2065 351.258 100.121 352.813 100.121ZM361.516 100.121C363.249 100.121 364.385 98.7178 364.385 96.585V96.5723C364.385 94.4268 363.255 93.0366 361.516 93.0366C360.576 93.0366 359.757 93.5063 359.383 94.2363H359.281V90.4404H358.177V100H359.281V98.9082H359.383C359.802 99.6699 360.563 100.121 361.516 100.121ZM361.262 99.1431C360.018 99.1431 359.256 98.1655 359.256 96.585V96.5723C359.256 94.9917 360.018 94.0142 361.262 94.0142C362.512 94.0142 363.255 94.979 363.255 96.5723V96.585C363.255 98.1782 362.512 99.1431 361.262 99.1431ZM366.429 102.399C367.641 102.399 368.206 101.955 368.771 100.419L371.443 93.1572H370.282L368.409 98.7876H368.308L366.429 93.1572H365.248L367.781 100.006L367.654 100.413C367.406 101.2 367.025 101.485 366.397 101.485C366.245 101.485 366.073 101.479 365.94 101.454V102.361C366.092 102.387 366.283 102.399 366.429 102.399Z" fill="#1F2326"/>
<path d="M344.129 124.216C345.824 124.216 346.827 123.188 346.827 121.455V114.84H345.685V121.442C345.685 122.559 345.139 123.162 344.123 123.162C343.215 123.162 342.765 122.584 342.695 121.893L342.688 121.829H341.546L341.552 121.918C341.647 123.232 342.542 124.216 344.129 124.216ZM350.902 124.121C351.823 124.121 352.54 123.721 352.972 122.991H353.073V124H354.178V119.315C354.178 117.894 353.245 117.037 351.575 117.037C350.115 117.037 349.074 117.76 348.896 118.833L348.89 118.871H349.995L350.001 118.852C350.179 118.319 350.718 118.014 351.537 118.014C352.559 118.014 353.073 118.471 353.073 119.315V119.938L351.112 120.058C349.519 120.153 348.617 120.858 348.617 122.077V122.089C348.617 123.333 349.601 124.121 350.902 124.121ZM349.747 122.064V122.051C349.747 121.372 350.204 121.004 351.245 120.94L353.073 120.826V121.448C353.073 122.426 352.254 123.162 351.131 123.162C350.337 123.162 349.747 122.756 349.747 122.064ZM357.878 124H358.996L361.528 117.157H360.36L358.488 122.794H358.386L356.514 117.157H355.346L357.878 124ZM364.613 124.121C365.534 124.121 366.251 123.721 366.683 122.991H366.784V124H367.889V119.315C367.889 117.894 366.956 117.037 365.286 117.037C363.826 117.037 362.785 117.76 362.607 118.833L362.601 118.871H363.706L363.712 118.852C363.89 118.319 364.429 118.014 365.248 118.014C366.27 118.014 366.784 118.471 366.784 119.315V119.938L364.823 120.058C363.229 120.153 362.328 120.858 362.328 122.077V122.089C362.328 123.333 363.312 124.121 364.613 124.121ZM363.458 122.064V122.051C363.458 121.372 363.915 121.004 364.956 120.94L366.784 120.826V121.448C366.784 122.426 365.965 123.162 364.842 123.162C364.048 123.162 363.458 122.756 363.458 122.064ZM373.049 124.216C375.093 124.216 376.433 123.149 376.433 121.436V121.429C376.433 120.109 375.677 119.341 373.767 118.916L372.751 118.687C371.507 118.414 371.005 117.919 371.005 117.189V117.183C371.005 116.224 371.888 115.685 373.03 115.678C374.224 115.672 374.985 116.269 375.112 117.075L375.125 117.157H376.268L376.261 117.068C376.166 115.704 374.89 114.625 373.062 114.625C371.17 114.625 369.844 115.697 369.837 117.214V117.221C369.837 118.547 370.631 119.392 372.465 119.798L373.481 120.02C374.738 120.299 375.265 120.82 375.265 121.582V121.588C375.265 122.521 374.357 123.162 373.113 123.162C371.792 123.162 370.84 122.584 370.758 121.67L370.751 121.601H369.609L369.615 121.67C369.749 123.162 371.043 124.216 373.049 124.216ZM380.997 124.121C382.641 124.121 383.561 123.238 383.84 122L383.853 121.931L382.761 121.937L382.749 121.975C382.495 122.737 381.911 123.143 380.99 123.143C379.771 123.143 378.984 122.134 378.984 120.56V120.547C378.984 119.004 379.759 118.014 380.99 118.014C381.974 118.014 382.583 118.56 382.755 119.233L382.761 119.252H383.859L383.853 119.214C383.65 117.995 382.653 117.037 380.99 117.037C379.073 117.037 377.854 118.42 377.854 120.547V120.56C377.854 122.73 379.08 124.121 380.997 124.121ZM385.472 124H386.576V119.76C386.576 118.757 387.325 118.09 388.379 118.09C388.62 118.09 388.83 118.116 389.058 118.154V117.081C388.95 117.062 388.715 117.037 388.506 117.037C387.579 117.037 386.938 117.456 386.678 118.173H386.576V117.157H385.472V124ZM391.007 115.837C391.426 115.837 391.769 115.494 391.769 115.075C391.769 114.656 391.426 114.313 391.007 114.313C390.588 114.313 390.245 114.656 390.245 115.075C390.245 115.494 390.588 115.837 391.007 115.837ZM390.448 124H391.553V117.157H390.448V124ZM393.635 126.285H394.739V122.921H394.841C395.215 123.651 396.034 124.121 396.974 124.121C398.713 124.121 399.843 122.73 399.843 120.585V120.572C399.843 118.439 398.707 117.037 396.974 117.037C396.021 117.037 395.26 117.487 394.841 118.249H394.739V117.157H393.635V126.285ZM396.72 123.143C395.476 123.143 394.714 122.166 394.714 120.585V120.572C394.714 118.992 395.476 118.014 396.72 118.014C397.97 118.014 398.713 118.979 398.713 120.572V120.585C398.713 122.178 397.97 123.143 396.72 123.143ZM404 124.051C404.216 124.051 404.426 124.025 404.642 123.987V123.048C404.438 123.067 404.331 123.073 404.134 123.073C403.423 123.073 403.144 122.75 403.144 121.943V118.071H404.642V117.157H403.144V115.386H402.001V117.157H400.922V118.071H402.001V122.223C402.001 123.53 402.591 124.051 404 124.051Z" fill="#1F2326"/>
<circle cx="329" cy="96" r="7.5" fill="white" stroke="#80C6FF"/>
<circle cx="329" cy="71" r="7.5" fill="white" stroke="#80C6FF"/>
<circle cx="329" cy="71" r="4" fill="#008EFF"/>
<circle cx="329" cy="96" r="4" fill="#008EFF"/>
<circle cx="329" cy="120" r="7.5" fill="white" stroke="#80C6FF"/>
<path d="M322.168 52H327.729V50.9717H323.311V42.8403H322.168V52ZM331.296 52.1206C332.216 52.1206 332.934 51.7207 333.365 50.9907H333.467V52H334.571V47.3154C334.571 45.8936 333.638 45.0366 331.969 45.0366C330.509 45.0366 329.468 45.7603 329.29 46.833L329.284 46.8711H330.388L330.395 46.8521C330.572 46.3188 331.112 46.0142 331.931 46.0142C332.953 46.0142 333.467 46.4712 333.467 47.3154V47.9375L331.505 48.0581C329.912 48.1533 329.011 48.8579 329.011 50.0767V50.0894C329.011 51.3335 329.995 52.1206 331.296 52.1206ZM330.141 50.064V50.0513C330.141 49.3721 330.598 49.0039 331.639 48.9404L333.467 48.8262V49.4482C333.467 50.4258 332.648 51.1621 331.524 51.1621C330.731 51.1621 330.141 50.7559 330.141 50.064ZM336.59 52H337.694V47.9502C337.694 46.7505 338.386 46.0142 339.478 46.0142C340.57 46.0142 341.078 46.6045 341.078 47.8359V52H342.182V47.5693C342.182 45.9443 341.325 45.0366 339.789 45.0366C338.78 45.0366 338.139 45.4619 337.796 46.1855H337.694V45.1572H336.59V52ZM347 54.4121C348.866 54.4121 350.047 53.4346 350.047 51.9048V45.1572H348.942V46.2871H348.866C348.447 45.5127 347.698 45.0366 346.733 45.0366C344.943 45.0366 343.839 46.4268 343.839 48.3438V48.3564C343.839 50.2734 344.937 51.6445 346.708 51.6445C347.647 51.6445 348.422 51.2192 348.854 50.4639H348.955V51.8477C348.955 52.8569 348.225 53.4346 347 53.4346C346.016 53.4346 345.407 53.0664 345.286 52.5459L345.28 52.5396H344.137L344.125 52.5459C344.296 53.6694 345.35 54.4121 347 54.4121ZM346.949 50.667C345.68 50.667 344.969 49.7148 344.969 48.3564V48.3438C344.969 46.9854 345.68 46.0142 346.949 46.0142C348.212 46.0142 348.98 46.9854 348.98 48.3438V48.3564C348.98 49.7148 348.219 50.667 346.949 50.667ZM354.395 52.1206C355.398 52.1206 356.09 51.708 356.426 50.978H356.528V52H357.632V45.1572H356.528V49.207C356.528 50.4067 355.887 51.1431 354.681 51.1431C353.589 51.1431 353.145 50.5527 353.145 49.3213V45.1572H352.04V49.5879C352.04 51.2065 352.84 52.1206 354.395 52.1206ZM361.574 52.1206C362.495 52.1206 363.212 51.7207 363.644 50.9907H363.745V52H364.85V47.3154C364.85 45.8936 363.917 45.0366 362.247 45.0366C360.787 45.0366 359.746 45.7603 359.568 46.833L359.562 46.8711H360.667L360.673 46.8521C360.851 46.3188 361.39 46.0142 362.209 46.0142C363.231 46.0142 363.745 46.4712 363.745 47.3154V47.9375L361.784 48.0581C360.19 48.1533 359.289 48.8579 359.289 50.0767V50.0894C359.289 51.3335 360.273 52.1206 361.574 52.1206ZM360.419 50.064V50.0513C360.419 49.3721 360.876 49.0039 361.917 48.9404L363.745 48.8262V49.4482C363.745 50.4258 362.926 51.1621 361.803 51.1621C361.009 51.1621 360.419 50.7559 360.419 50.064ZM369.687 54.4121C371.553 54.4121 372.733 53.4346 372.733 51.9048V45.1572H371.629V46.2871H371.553C371.134 45.5127 370.385 45.0366 369.42 45.0366C367.63 45.0366 366.525 46.4268 366.525 48.3438V48.3564C366.525 50.2734 367.624 51.6445 369.395 51.6445C370.334 51.6445 371.108 51.2192 371.54 50.4639H371.642V51.8477C371.642 52.8569 370.912 53.4346 369.687 53.4346C368.703 53.4346 368.093 53.0664 367.973 52.5459L367.966 52.5396H366.824L366.811 52.5459C366.982 53.6694 368.036 54.4121 369.687 54.4121ZM369.636 50.667C368.366 50.667 367.655 49.7148 367.655 48.3564V48.3438C367.655 46.9854 368.366 46.0142 369.636 46.0142C370.899 46.0142 371.667 46.9854 371.667 48.3438V48.3564C371.667 49.7148 370.905 50.667 369.636 50.667ZM377.583 52.1206C379.195 52.1206 380.173 51.2065 380.408 50.2798L380.42 50.229H379.316L379.291 50.2861C379.106 50.6987 378.535 51.1367 377.608 51.1367C376.39 51.1367 375.609 50.3115 375.577 48.896H380.503V48.4644C380.503 46.4204 379.373 45.0366 377.513 45.0366C375.653 45.0366 374.447 46.4839 374.447 48.5977V48.604C374.447 50.7495 375.628 52.1206 377.583 52.1206ZM377.507 46.0205C378.516 46.0205 379.265 46.6616 379.379 48.0137H375.596C375.717 46.7124 376.491 46.0205 377.507 46.0205ZM384.565 52.1206C386.121 52.1206 387.308 51.2764 387.308 50.0576V50.0449C387.308 49.0674 386.686 48.5088 385.397 48.1978L384.343 47.9438C383.537 47.7471 383.194 47.4551 383.194 46.9917V46.979C383.194 46.376 383.791 45.957 384.604 45.957C385.429 45.957 385.962 46.3315 386.108 46.8711H387.193C387.041 45.7539 386.044 45.0366 384.61 45.0366C383.156 45.0366 382.064 45.8936 382.064 47.0298V47.0361C382.064 48.02 382.642 48.5786 383.924 48.8833L384.984 49.1372C385.829 49.3403 386.178 49.6641 386.178 50.1274V50.1401C386.178 50.7622 385.524 51.2002 384.604 51.2002C383.728 51.2002 383.182 50.8257 382.998 50.2544H381.868C381.995 51.3843 383.042 52.1206 384.565 52.1206Z" fill="#1F2326"/>
</svg>
