<svg width="211" height="162" viewBox="0 0 211 162" fill="none" xmlns="http://www.w3.org/2000/svg">
<rect x="0.5" y="0.5" width="210" height="161" rx="2.5" fill="white" stroke="#D4D4D5"/>
<path d="M0 3C0 1.34315 1.34315 0 3 0H208C209.657 0 211 1.34315 211 3V6H0V3Z" fill="#59A869"/>
<path d="M14.0033 10C10.7674 9.99874 7.84932 11.9471 6.61009 14.9364C5.37086 17.9257 6.05454 21.3671 8.34228 23.6558C10.63 25.9444 14.0712 26.6294 17.061 25.3913C20.0508 24.1533 22.0002 21.236 22.0002 18C22.0006 15.8787 21.1584 13.8441 19.6586 12.3438C18.1589 10.8435 16.1247 10.0004 14.0033 10ZM13.1609 21.6895L9.48607 18.0147L10.7585 16.7412L13.1609 19.1445L17.8191 14.4854L19.0915 15.7588L13.1609 21.6895Z" fill="#59A869"/>
<rect x="66" y="36" width="80" height="24" rx="3" fill="#008EFF"/>
<path d="M82.0234 52H83.0781V48.6543H85.1581L86.9687 52H88.205L86.248 48.4902C87.3085 48.1562 87.9472 47.2422 87.9472 46.0703V46.0586C87.9472 44.541 86.8808 43.5449 85.2519 43.5449H82.0234V52ZM83.0781 47.7168V44.4824H85.1113C86.2011 44.4824 86.8574 45.0859 86.8574 46.0938V46.1055C86.8574 47.1367 86.2421 47.7168 85.1581 47.7168H83.0781ZM91.5601 52.1113C92.4859 52.1113 93.1246 51.7305 93.4351 51.0566H93.5289V52H94.5484V45.6836H93.5289V49.4219C93.5289 50.5293 92.9371 51.209 91.8238 51.209C90.816 51.209 90.4058 50.6641 90.4058 49.5273V45.6836H89.3863V49.7734C89.3863 51.2676 90.1246 52.1113 91.5601 52.1113ZM96.1633 52H97.1828V48.2617C97.1828 47.1543 97.8215 46.4746 98.8293 46.4746C99.8371 46.4746 100.306 47.0195 100.306 48.1562V52H101.325V47.9102C101.325 46.4102 100.534 45.5723 99.1164 45.5723C98.1848 45.5723 97.593 45.9648 97.2766 46.6328H97.1828V45.6836H96.1633V52ZM109.108 52.1113C110.708 52.1113 111.756 50.8164 111.756 48.8477V48.8359C111.756 46.8555 110.713 45.5723 109.108 45.5723C108.241 45.5723 107.485 46.0059 107.139 46.6797H107.045V43.1758H106.026V52H107.045V50.9922H107.139C107.526 51.6953 108.229 52.1113 109.108 52.1113ZM108.874 51.209C107.725 51.209 107.022 50.3066 107.022 48.8477V48.8359C107.022 47.377 107.725 46.4746 108.874 46.4746C110.028 46.4746 110.713 47.3652 110.713 48.8359V48.8477C110.713 50.3184 110.028 51.209 108.874 51.209ZM115.164 52.1113C116.09 52.1113 116.729 51.7305 117.039 51.0566H117.133V52H118.152V45.6836H117.133V49.4219C117.133 50.5293 116.541 51.209 115.428 51.209C114.42 51.209 114.01 50.6641 114.01 49.5273V45.6836H112.99V49.7734C112.99 51.2676 113.729 52.1113 115.164 52.1113ZM120.306 44.4648C120.693 44.4648 121.01 44.1484 121.01 43.7617C121.01 43.375 120.693 43.0586 120.306 43.0586C119.92 43.0586 119.603 43.375 119.603 43.7617C119.603 44.1484 119.92 44.4648 120.306 44.4648ZM119.791 52H120.81V45.6836H119.791V52ZM122.501 52H123.521V43.1758H122.501V52ZM127.521 52.1113C128.399 52.1113 129.103 51.6953 129.489 50.9922H129.583V52H130.603V43.1758H129.583V46.6797H129.489C129.144 46.0059 128.388 45.5723 127.521 45.5723C125.915 45.5723 124.872 46.8555 124.872 48.8359V48.8477C124.872 50.8164 125.921 52.1113 127.521 52.1113ZM127.755 51.209C126.601 51.209 125.915 50.3184 125.915 48.8477V48.8359C125.915 47.3652 126.601 46.4746 127.755 46.4746C128.903 46.4746 129.607 47.377 129.607 48.8359V48.8477C129.607 50.3066 128.903 51.209 127.755 51.209Z" fill="white"/>
<path d="M84.916 131.199C86.8027 131.199 88.0391 130.215 88.0391 128.633V128.627C88.0391 127.408 87.3418 126.699 85.5781 126.307L84.6406 126.096C83.4922 125.844 83.0293 125.387 83.0293 124.713V124.707C83.0293 123.822 83.8438 123.324 84.8984 123.318C86 123.312 86.7031 123.863 86.8203 124.607L86.832 124.684H87.8867L87.8809 124.602C87.793 123.342 86.6152 122.346 84.9277 122.346C83.1816 122.346 81.957 123.336 81.9512 124.736V124.742C81.9512 125.967 82.6836 126.746 84.377 127.121L85.3145 127.326C86.4746 127.584 86.9609 128.064 86.9609 128.768V128.773C86.9609 129.635 86.123 130.227 84.9746 130.227C83.7559 130.227 82.877 129.693 82.8008 128.85L82.7949 128.785H81.7402L81.7461 128.85C81.8691 130.227 83.0645 131.199 84.916 131.199ZM89.7266 131H90.7461V127.262C90.7461 126.154 91.3848 125.475 92.3926 125.475C93.4004 125.475 93.8691 126.02 93.8691 127.156V131H94.8887V126.91C94.8887 125.41 94.0977 124.572 92.6797 124.572C91.748 124.572 91.1562 124.965 90.8398 125.633H90.7461V122.176H89.7266V131ZM99.3301 131.111C101.129 131.111 102.242 129.869 102.242 127.848V127.836C102.242 125.809 101.129 124.572 99.3301 124.572C97.5312 124.572 96.418 125.809 96.418 127.836V127.848C96.418 129.869 97.5312 131.111 99.3301 131.111ZM99.3301 130.209C98.1348 130.209 97.4609 129.336 97.4609 127.848V127.836C97.4609 126.342 98.1348 125.475 99.3301 125.475C100.525 125.475 101.199 126.342 101.199 127.836V127.848C101.199 129.336 100.525 130.209 99.3301 130.209ZM104.809 131H105.828L107.234 126.113H107.328L108.74 131H109.766L111.535 124.684H110.521L109.279 129.734H109.186L107.773 124.684H106.807L105.395 129.734H105.301L104.059 124.684H103.039L104.809 131ZM117.992 131.111C118.842 131.111 119.504 130.742 119.902 130.068H119.996V131H121.016V126.676C121.016 125.363 120.154 124.572 118.613 124.572C117.266 124.572 116.305 125.24 116.141 126.23L116.135 126.266H117.154L117.16 126.248C117.324 125.756 117.822 125.475 118.578 125.475C119.521 125.475 119.996 125.896 119.996 126.676V127.25L118.186 127.361C116.715 127.449 115.883 128.1 115.883 129.225V129.236C115.883 130.385 116.791 131.111 117.992 131.111ZM116.926 129.213V129.201C116.926 128.574 117.348 128.234 118.309 128.176L119.996 128.07V128.645C119.996 129.547 119.24 130.227 118.203 130.227C117.471 130.227 116.926 129.852 116.926 129.213ZM122.938 131H123.957V122.176H122.938V131ZM125.973 131H126.992V122.176H125.973V131Z" fill="#008EFF"/>
<rect x="70.5" y="78.5" width="71" height="23" rx="2.5" fill="white" stroke="#B8D1E5"/>
<path d="M90.8453 93.0039C91.2398 93.0039 91.564 92.9629 91.8179 92.8809C92.2711 92.7285 92.6422 92.4355 92.9312 92.002C93.1617 91.6543 93.3277 91.209 93.4293 90.666C93.4879 90.3418 93.5172 90.041 93.5172 89.7637C93.5172 88.6973 93.3043 87.8691 92.8785 87.2793C92.4566 86.6895 91.775 86.3945 90.8336 86.3945H88.7652V93.0039H90.8453ZM87.5933 85.3926H91.0797C92.2633 85.3926 93.1812 85.8125 93.8336 86.6523C94.4156 87.4102 94.7066 88.3809 94.7066 89.5645C94.7066 90.4785 94.5347 91.3047 94.191 92.043C93.5855 93.3477 92.5445 94 91.0679 94H87.5933V85.3926ZM95.7824 87.7539H96.8547V94H95.7824V87.7539ZM95.7824 85.3926H96.8547V86.5879H95.7824V85.3926ZM98.7919 92.0312C98.8231 92.3828 98.911 92.6523 99.0555 92.8398C99.3211 93.1797 99.7821 93.3496 100.438 93.3496C100.829 93.3496 101.173 93.2656 101.47 93.0977C101.766 92.9258 101.915 92.6621 101.915 92.3066C101.915 92.0371 101.796 91.832 101.557 91.6914C101.405 91.6055 101.104 91.5059 100.655 91.3926L99.8172 91.1816C99.2821 91.0488 98.8876 90.9004 98.6336 90.7363C98.1805 90.4512 97.954 90.0566 97.954 89.5527C97.954 88.959 98.1669 88.4785 98.5926 88.1113C99.0223 87.7441 99.5985 87.5605 100.321 87.5605C101.266 87.5605 101.948 87.8379 102.366 88.3926C102.628 88.7441 102.755 89.123 102.747 89.5293H101.751C101.731 89.291 101.647 89.0742 101.499 88.8789C101.257 88.6016 100.837 88.4629 100.239 88.4629C99.8407 88.4629 99.5379 88.5391 99.3309 88.6914C99.1278 88.8438 99.0262 89.0449 99.0262 89.2949C99.0262 89.5684 99.161 89.7871 99.4305 89.9512C99.5868 90.0488 99.8172 90.1348 100.122 90.209L100.819 90.3789C101.577 90.5625 102.085 90.7402 102.343 90.9121C102.753 91.1816 102.958 91.6055 102.958 92.1836C102.958 92.7422 102.745 93.2246 102.319 93.6309C101.897 94.0371 101.253 94.2402 100.386 94.2402C99.452 94.2402 98.7899 94.0293 98.3993 93.6074C98.0126 93.1816 97.8055 92.6562 97.7782 92.0312H98.7919ZM104.684 92.3301C104.684 92.6348 104.795 92.875 105.018 93.0508C105.241 93.2266 105.504 93.3145 105.809 93.3145C106.18 93.3145 106.54 93.2285 106.887 93.0566C107.473 92.7715 107.766 92.3047 107.766 91.6562V90.8066C107.637 90.8887 107.471 90.957 107.268 91.0117C107.065 91.0664 106.866 91.1055 106.67 91.1289L106.032 91.2109C105.649 91.2617 105.362 91.3418 105.17 91.4512C104.846 91.6348 104.684 91.9277 104.684 92.3301ZM107.239 90.1973C107.481 90.166 107.643 90.0645 107.725 89.8926C107.772 89.7988 107.795 89.6641 107.795 89.4883C107.795 89.1289 107.667 88.8691 107.409 88.709C107.155 88.5449 106.79 88.4629 106.313 88.4629C105.762 88.4629 105.372 88.6113 105.141 88.9082C105.012 89.0723 104.928 89.3164 104.889 89.6406H103.905C103.924 88.8672 104.174 88.3301 104.655 88.0293C105.139 87.7246 105.7 87.5723 106.336 87.5723C107.075 87.5723 107.674 87.7129 108.135 87.9941C108.592 88.2754 108.821 88.7129 108.821 89.3066V92.9219C108.821 93.0312 108.842 93.1191 108.885 93.1855C108.932 93.252 109.028 93.2852 109.172 93.2852C109.219 93.2852 109.272 93.2832 109.331 93.2793C109.389 93.2715 109.452 93.2617 109.518 93.25V94.0293C109.354 94.0762 109.229 94.1055 109.143 94.1172C109.057 94.1289 108.94 94.1348 108.792 94.1348C108.428 94.1348 108.165 94.0059 108 93.748C107.915 93.6113 107.854 93.418 107.819 93.168C107.604 93.4492 107.295 93.6934 106.893 93.9004C106.491 94.1074 106.047 94.2109 105.563 94.2109C104.981 94.2109 104.504 94.0352 104.133 93.6836C103.766 93.3281 103.583 92.8848 103.583 92.3535C103.583 91.7715 103.764 91.3203 104.127 91C104.491 90.6797 104.967 90.4824 105.557 90.4082L107.239 90.1973ZM110.184 85.3633H111.209V88.4863C111.44 88.1855 111.715 87.957 112.035 87.8008C112.356 87.6406 112.703 87.5605 113.078 87.5605C113.86 87.5605 114.492 87.8301 114.977 88.3691C115.465 88.9043 115.709 89.6953 115.709 90.7422C115.709 91.7344 115.469 92.5586 114.988 93.2148C114.508 93.8711 113.842 94.1992 112.99 94.1992C112.514 94.1992 112.111 94.084 111.783 93.8535C111.588 93.7168 111.379 93.498 111.156 93.1973V94H110.184V85.3633ZM112.926 93.2676C113.496 93.2676 113.922 93.041 114.203 92.5879C114.488 92.1348 114.631 91.5371 114.631 90.7949C114.631 90.1348 114.488 89.5879 114.203 89.1543C113.922 88.7207 113.506 88.5039 112.955 88.5039C112.475 88.5039 112.053 88.6816 111.69 89.0371C111.33 89.3926 111.151 89.9785 111.151 90.7949C111.151 91.3848 111.225 91.8633 111.373 92.2305C111.651 92.9219 112.168 93.2676 112.926 93.2676ZM116.685 85.3926H117.74V94H116.685V85.3926ZM121.652 87.584C122.097 87.584 122.529 87.6895 122.947 87.9004C123.365 88.1074 123.683 88.377 123.902 88.709C124.113 89.0254 124.253 89.3945 124.324 89.8164C124.386 90.1055 124.417 90.5664 124.417 91.1992H119.818C119.837 91.8359 119.988 92.3477 120.269 92.7344C120.55 93.1172 120.986 93.3086 121.576 93.3086C122.126 93.3086 122.566 93.127 122.894 92.7637C123.081 92.5527 123.214 92.3086 123.292 92.0312H124.33C124.302 92.2617 124.21 92.5195 124.054 92.8047C123.902 93.0859 123.73 93.3164 123.539 93.4961C123.218 93.8086 122.822 94.0195 122.349 94.1289C122.095 94.1914 121.808 94.2227 121.488 94.2227C120.706 94.2227 120.044 93.9395 119.501 93.373C118.958 92.8027 118.687 92.0059 118.687 90.9824C118.687 89.9746 118.96 89.1562 119.507 88.5273C120.054 87.8984 120.769 87.584 121.652 87.584ZM123.333 90.3613C123.29 89.9043 123.191 89.5391 123.035 89.2656C122.746 88.7578 122.263 88.5039 121.587 88.5039C121.103 88.5039 120.697 88.6797 120.369 89.0312C120.04 89.3789 119.867 89.8223 119.847 90.3613H123.333Z" fill="#1F2326"/>
</svg>
