<svg width="216" height="139" viewBox="0 0 216 139" fill="none" xmlns="http://www.w3.org/2000/svg">
<rect x="0.5" y="0.5" width="215" height="138" rx="2.5" fill="white" stroke="#D4D4D5"/>
<path d="M1 3C1 1.89543 1.89543 1 3 1H213C214.105 1 215 1.89543 215 3V7H1V3Z" fill="#D4D4D5"/>
<rect x="55.5" y="42.5" width="13" height="13" rx="1.5" fill="#D4EDFF" stroke="#80C6FF"/>
<path d="M82.0146 52.2158C84.6299 52.2158 86.2168 50.3433 86.2168 47.4233V47.4106C86.2168 44.478 84.6172 42.6245 82.0146 42.6245C79.4248 42.6245 77.8125 44.4717 77.8125 47.4106V47.4233C77.8125 50.3496 79.3867 52.2158 82.0146 52.2158ZM82.0146 51.1621C80.1104 51.1621 78.9805 49.6895 78.9805 47.4233V47.4106C78.9805 45.1255 80.1484 43.6782 82.0146 43.6782C83.8872 43.6782 85.0488 45.1255 85.0488 47.4106V47.4233C85.0488 49.6895 83.8936 51.1621 82.0146 51.1621ZM88.0576 54.2852H89.1621V50.9209H89.2637C89.6382 51.6509 90.457 52.1206 91.3965 52.1206C93.1357 52.1206 94.2656 50.7305 94.2656 48.585V48.5723C94.2656 46.4395 93.1294 45.0366 91.3965 45.0366C90.4443 45.0366 89.6826 45.4873 89.2637 46.249H89.1621V45.1572H88.0576V54.2852ZM91.1426 51.1431C89.8984 51.1431 89.1367 50.1655 89.1367 48.585V48.5723C89.1367 46.9917 89.8984 46.0142 91.1426 46.0142C92.3931 46.0142 93.1357 46.979 93.1357 48.5723V48.585C93.1357 50.1782 92.3931 51.1431 91.1426 51.1431ZM98.4233 52.0508C98.6392 52.0508 98.8486 52.0254 99.0645 51.9873V51.0479C98.8613 51.0669 98.7534 51.0732 98.5566 51.0732C97.8457 51.0732 97.5664 50.7495 97.5664 49.9434V46.0713H99.0645V45.1572H97.5664V43.3862H96.4238V45.1572H95.3447V46.0713H96.4238V50.2227C96.4238 51.5303 97.0142 52.0508 98.4233 52.0508ZM101.299 43.8369C101.718 43.8369 102.061 43.4941 102.061 43.0752C102.061 42.6562 101.718 42.3135 101.299 42.3135C100.88 42.3135 100.537 42.6562 100.537 43.0752C100.537 43.4941 100.88 43.8369 101.299 43.8369ZM100.74 52H101.845V45.1572H100.74V52ZM106.739 52.1206C108.688 52.1206 109.894 50.7749 109.894 48.585V48.5723C109.894 46.376 108.688 45.0366 106.739 45.0366C104.79 45.0366 103.584 46.376 103.584 48.5723V48.585C103.584 50.7749 104.79 52.1206 106.739 52.1206ZM106.739 51.1431C105.444 51.1431 104.714 50.1973 104.714 48.585V48.5723C104.714 46.9536 105.444 46.0142 106.739 46.0142C108.034 46.0142 108.764 46.9536 108.764 48.5723V48.585C108.764 50.1973 108.034 51.1431 106.739 51.1431ZM111.607 52H112.712V47.9502C112.712 46.7505 113.404 46.0142 114.496 46.0142C115.587 46.0142 116.095 46.6045 116.095 47.8359V52H117.2V47.5693C117.2 45.9443 116.343 45.0366 114.807 45.0366C113.797 45.0366 113.156 45.4619 112.813 46.1855H112.712V45.1572H111.607V52ZM125.09 52H126.232V42.8403H125.096L122.659 44.5923V45.7983L124.988 44.1099H125.09V52Z" fill="#1F2326"/>
<rect x="78.5" y="90.5" width="13" height="13" rx="1.5" stroke="#80C6FF"/>
<path d="M105.015 76.2158C107.63 76.2158 109.217 74.3433 109.217 71.4233V71.4106C109.217 68.478 107.617 66.6245 105.015 66.6245C102.425 66.6245 100.812 68.4717 100.812 71.4106V71.4233C100.812 74.3496 102.387 76.2158 105.015 76.2158ZM105.015 75.1621C103.11 75.1621 101.98 73.6895 101.98 71.4233V71.4106C101.98 69.1255 103.148 67.6782 105.015 67.6782C106.887 67.6782 108.049 69.1255 108.049 71.4106V71.4233C108.049 73.6895 106.894 75.1621 105.015 75.1621ZM111.058 78.2852H112.162V74.9209H112.264C112.638 75.6509 113.457 76.1206 114.396 76.1206C116.136 76.1206 117.266 74.7305 117.266 72.585V72.5723C117.266 70.4395 116.129 69.0366 114.396 69.0366C113.444 69.0366 112.683 69.4873 112.264 70.249H112.162V69.1572H111.058V78.2852ZM114.143 75.1431C112.898 75.1431 112.137 74.1655 112.137 72.585V72.5723C112.137 70.9917 112.898 70.0142 114.143 70.0142C115.393 70.0142 116.136 70.979 116.136 72.5723V72.585C116.136 74.1782 115.393 75.1431 114.143 75.1431ZM121.423 76.0508C121.639 76.0508 121.849 76.0254 122.064 75.9873V75.0479C121.861 75.0669 121.753 75.0732 121.557 75.0732C120.846 75.0732 120.566 74.7495 120.566 73.9434V70.0713H122.064V69.1572H120.566V67.3862H119.424V69.1572H118.345V70.0713H119.424V74.2227C119.424 75.5303 120.014 76.0508 121.423 76.0508ZM124.299 67.8369C124.718 67.8369 125.061 67.4941 125.061 67.0752C125.061 66.6562 124.718 66.3135 124.299 66.3135C123.88 66.3135 123.537 66.6562 123.537 67.0752C123.537 67.4941 123.88 67.8369 124.299 67.8369ZM123.74 76H124.845V69.1572H123.74V76ZM129.739 76.1206C131.688 76.1206 132.894 74.7749 132.894 72.585V72.5723C132.894 70.376 131.688 69.0366 129.739 69.0366C127.79 69.0366 126.584 70.376 126.584 72.5723V72.585C126.584 74.7749 127.79 76.1206 129.739 76.1206ZM129.739 75.1431C128.444 75.1431 127.714 74.1973 127.714 72.585V72.5723C127.714 70.9536 128.444 70.0142 129.739 70.0142C131.034 70.0142 131.764 70.9536 131.764 72.5723V72.585C131.764 74.1973 131.034 75.1431 129.739 75.1431ZM134.607 76H135.712V71.9502C135.712 70.7505 136.404 70.0142 137.496 70.0142C138.587 70.0142 139.095 70.6045 139.095 71.8359V76H140.2V71.5693C140.2 69.9443 139.343 69.0366 137.807 69.0366C136.797 69.0366 136.156 69.4619 135.813 70.1855H135.712V69.1572H134.607V76ZM148.09 76H149.232V66.8403H148.096L145.659 68.5923V69.7983L147.988 68.1099H148.09V76ZM152.47 76.0635C152.927 76.0635 153.295 75.689 153.295 75.2383C153.295 74.7812 152.927 74.4131 152.47 74.4131C152.019 74.4131 151.645 74.7812 151.645 75.2383C151.645 75.689 152.019 76.0635 152.47 76.0635ZM157.281 76H158.424V66.8403H157.288L154.85 68.5923V69.7983L157.18 68.1099H157.281V76Z" fill="#1F2326"/>
<path d="M105.015 100.216C107.63 100.216 109.217 98.3433 109.217 95.4233V95.4106C109.217 92.478 107.617 90.6245 105.015 90.6245C102.425 90.6245 100.812 92.4717 100.812 95.4106V95.4233C100.812 98.3496 102.387 100.216 105.015 100.216ZM105.015 99.1621C103.11 99.1621 101.98 97.6895 101.98 95.4233V95.4106C101.98 93.1255 103.148 91.6782 105.015 91.6782C106.887 91.6782 108.049 93.1255 108.049 95.4106V95.4233C108.049 97.6895 106.894 99.1621 105.015 99.1621ZM111.058 102.285H112.162V98.9209H112.264C112.638 99.6509 113.457 100.121 114.396 100.121C116.136 100.121 117.266 98.7305 117.266 96.585V96.5723C117.266 94.4395 116.129 93.0366 114.396 93.0366C113.444 93.0366 112.683 93.4873 112.264 94.249H112.162V93.1572H111.058V102.285ZM114.143 99.1431C112.898 99.1431 112.137 98.1655 112.137 96.585V96.5723C112.137 94.9917 112.898 94.0142 114.143 94.0142C115.393 94.0142 116.136 94.979 116.136 96.5723V96.585C116.136 98.1782 115.393 99.1431 114.143 99.1431ZM121.423 100.051C121.639 100.051 121.849 100.025 122.064 99.9873V99.0479C121.861 99.0669 121.753 99.0732 121.557 99.0732C120.846 99.0732 120.566 98.7495 120.566 97.9434V94.0713H122.064V93.1572H120.566V91.3862H119.424V93.1572H118.345V94.0713H119.424V98.2227C119.424 99.5303 120.014 100.051 121.423 100.051ZM124.299 91.8369C124.718 91.8369 125.061 91.4941 125.061 91.0752C125.061 90.6562 124.718 90.3135 124.299 90.3135C123.88 90.3135 123.537 90.6562 123.537 91.0752C123.537 91.4941 123.88 91.8369 124.299 91.8369ZM123.74 100H124.845V93.1572H123.74V100ZM129.739 100.121C131.688 100.121 132.894 98.7749 132.894 96.585V96.5723C132.894 94.376 131.688 93.0366 129.739 93.0366C127.79 93.0366 126.584 94.376 126.584 96.5723V96.585C126.584 98.7749 127.79 100.121 129.739 100.121ZM129.739 99.1431C128.444 99.1431 127.714 98.1973 127.714 96.585V96.5723C127.714 94.9536 128.444 94.0142 129.739 94.0142C131.034 94.0142 131.764 94.9536 131.764 96.5723V96.585C131.764 98.1973 131.034 99.1431 129.739 99.1431ZM134.607 100H135.712V95.9502C135.712 94.7505 136.404 94.0142 137.496 94.0142C138.587 94.0142 139.095 94.6045 139.095 95.8359V100H140.2V95.5693C140.2 93.9443 139.343 93.0366 137.807 93.0366C136.797 93.0366 136.156 93.4619 135.813 94.1855H135.712V93.1572H134.607V100ZM148.09 100H149.232V90.8403H148.096L145.659 92.5923V93.7983L147.988 92.1099H148.09V100ZM152.47 100.063C152.927 100.063 153.295 99.689 153.295 99.2383C153.295 98.7812 152.927 98.4131 152.47 98.4131C152.019 98.4131 151.645 98.7812 151.645 99.2383C151.645 99.689 152.019 100.063 152.47 100.063ZM155.167 100H161.096V98.9717H156.754V98.8701L158.836 96.7183C160.493 95.0107 160.944 94.249 160.944 93.2017V93.189C160.944 91.71 159.719 90.6245 158.119 90.6245C156.367 90.6245 155.11 91.7925 155.104 93.4175L155.117 93.4238L156.208 93.4302L156.215 93.4175C156.215 92.3384 156.945 91.6211 158.043 91.6211C159.122 91.6211 159.776 92.3447 159.776 93.3096V93.3223C159.776 94.1221 159.433 94.5981 158.265 95.8613L155.167 99.2129V100Z" fill="#1F2326"/>
<line x1="58" y1="49.5" x2="66" y2="49.5" stroke="black"/>
<rect x="78.5" y="65.5" width="13" height="13" rx="1.5" fill="#D4EDFF" stroke="#80C6FF"/>
<path d="M80 71.175L84.655 76L93.983 62.863L92.95 62L84.554 73.816L80.846 70.08L80 71.175" fill="#1A1918"/>
</svg>
