<svg width="211" height="162" viewBox="0 0 211 162" fill="none" xmlns="http://www.w3.org/2000/svg">
<rect width="210.005" height="162" rx="3" fill="#F9F9FB"/>
<path d="M0 3C0 1.34315 1.34315 0 3 0H207.005C208.662 0 210.005 1.34315 210.005 3V4H0V3Z" fill="#59A869"/>
<path d="M12.9419 8C9.72119 7.99874 6.81691 9.94708 5.58353 12.9364C4.35015 15.9257 5.0306 19.3671 7.30755 21.6558C9.5845 23.9444 13.0095 24.6294 15.9851 23.3913C18.9608 22.1533 20.9011 19.236 20.9011 16C20.9015 13.8787 20.0632 11.8441 18.5705 10.3438C17.0779 8.84349 15.0532 8.00041 12.9419 8ZM12.1034 19.6895L8.44595 16.0147L9.71241 14.7412L12.1034 17.1445L16.7396 12.4854L18.0061 13.7588L12.1034 19.6895Z" fill="#59A869"/>
<rect x="65" y="30" width="80" height="24" rx="3" fill="#008EFF"/>
<path d="M81.0234 46H82.0781V42.6543H84.1581L85.9687 46H87.205L85.248 42.4902C86.3085 42.1562 86.9472 41.2422 86.9472 40.0703V40.0586C86.9472 38.541 85.8808 37.5449 84.2519 37.5449H81.0234V46ZM82.0781 41.7168V38.4824H84.1113C85.2011 38.4824 85.8574 39.0859 85.8574 40.0938V40.1055C85.8574 41.1367 85.2421 41.7168 84.1581 41.7168H82.0781ZM90.5601 46.1113C91.4859 46.1113 92.1246 45.7305 92.4351 45.0566H92.5289V46H93.5484V39.6836H92.5289V43.4219C92.5289 44.5293 91.9371 45.209 90.8238 45.209C89.816 45.209 89.4058 44.6641 89.4058 43.5273V39.6836H88.3863V43.7734C88.3863 45.2676 89.1246 46.1113 90.5601 46.1113ZM95.1633 46H96.1828V42.2617C96.1828 41.1543 96.8215 40.4746 97.8293 40.4746C98.8371 40.4746 99.3059 41.0195 99.3059 42.1562V46H100.325V41.9102C100.325 40.4102 99.5344 39.5723 98.1164 39.5723C97.1848 39.5723 96.593 39.9648 96.2766 40.6328H96.1828V39.6836H95.1633V46ZM108.108 46.1113C109.708 46.1113 110.756 44.8164 110.756 42.8477V42.8359C110.756 40.8555 109.713 39.5723 108.108 39.5723C107.241 39.5723 106.485 40.0059 106.139 40.6797H106.045V37.1758H105.026V46H106.045V44.9922H106.139C106.526 45.6953 107.229 46.1113 108.108 46.1113ZM107.874 45.209C106.725 45.209 106.022 44.3066 106.022 42.8477V42.8359C106.022 41.377 106.725 40.4746 107.874 40.4746C109.028 40.4746 109.713 41.3652 109.713 42.8359V42.8477C109.713 44.3184 109.028 45.209 107.874 45.209ZM114.164 46.1113C115.09 46.1113 115.729 45.7305 116.039 45.0566H116.133V46H117.152V39.6836H116.133V43.4219C116.133 44.5293 115.541 45.209 114.428 45.209C113.42 45.209 113.01 44.6641 113.01 43.5273V39.6836H111.99V43.7734C111.99 45.2676 112.729 46.1113 114.164 46.1113ZM119.306 38.4648C119.693 38.4648 120.01 38.1484 120.01 37.7617C120.01 37.375 119.693 37.0586 119.306 37.0586C118.92 37.0586 118.603 37.375 118.603 37.7617C118.603 38.1484 118.92 38.4648 119.306 38.4648ZM118.791 46H119.81V39.6836H118.791V46ZM121.501 46H122.521V37.1758H121.501V46ZM126.521 46.1113C127.399 46.1113 128.103 45.6953 128.489 44.9922H128.583V46H129.603V37.1758H128.583V40.6797H128.489C128.144 40.0059 127.388 39.5723 126.521 39.5723C124.915 39.5723 123.872 40.8555 123.872 42.8359V42.8477C123.872 44.8164 124.921 46.1113 126.521 46.1113ZM126.755 45.209C125.601 45.209 124.915 44.3184 124.915 42.8477V42.8359C124.915 41.3652 125.601 40.4746 126.755 40.4746C127.903 40.4746 128.607 41.377 128.607 42.8359V42.8477C128.607 44.3066 127.903 45.209 126.755 45.209Z" fill="white"/>
<path d="M83.916 125.199C85.8027 125.199 87.0391 124.215 87.0391 122.633V122.627C87.0391 121.408 86.3418 120.699 84.5781 120.307L83.6406 120.096C82.4922 119.844 82.0293 119.387 82.0293 118.713V118.707C82.0293 117.822 82.8438 117.324 83.8984 117.318C85 117.312 85.7031 117.863 85.8203 118.607L85.832 118.684H86.8867L86.8809 118.602C86.793 117.342 85.6152 116.346 83.9277 116.346C82.1816 116.346 80.957 117.336 80.9512 118.736V118.742C80.9512 119.967 81.6836 120.746 83.377 121.121L84.3145 121.326C85.4746 121.584 85.9609 122.064 85.9609 122.768V122.773C85.9609 123.635 85.123 124.227 83.9746 124.227C82.7559 124.227 81.877 123.693 81.8008 122.85L81.7949 122.785H80.7402L80.7461 122.85C80.8691 124.227 82.0645 125.199 83.916 125.199ZM88.7266 125H89.7461V121.262C89.7461 120.154 90.3848 119.475 91.3926 119.475C92.4004 119.475 92.8691 120.02 92.8691 121.156V125H93.8887V120.91C93.8887 119.41 93.0977 118.572 91.6797 118.572C90.748 118.572 90.1562 118.965 89.8398 119.633H89.7461V116.176H88.7266V125ZM98.3301 125.111C100.129 125.111 101.242 123.869 101.242 121.848V121.836C101.242 119.809 100.129 118.572 98.3301 118.572C96.5312 118.572 95.418 119.809 95.418 121.836V121.848C95.418 123.869 96.5312 125.111 98.3301 125.111ZM98.3301 124.209C97.1348 124.209 96.4609 123.336 96.4609 121.848V121.836C96.4609 120.342 97.1348 119.475 98.3301 119.475C99.5254 119.475 100.199 120.342 100.199 121.836V121.848C100.199 123.336 99.5254 124.209 98.3301 124.209ZM103.809 125H104.828L106.234 120.113H106.328L107.74 125H108.766L110.535 118.684H109.521L108.279 123.734H108.186L106.773 118.684H105.807L104.395 123.734H104.301L103.059 118.684H102.039L103.809 125ZM116.992 125.111C117.842 125.111 118.504 124.742 118.902 124.068H118.996V125H120.016V120.676C120.016 119.363 119.154 118.572 117.613 118.572C116.266 118.572 115.305 119.24 115.141 120.23L115.135 120.266H116.154L116.16 120.248C116.324 119.756 116.822 119.475 117.578 119.475C118.521 119.475 118.996 119.896 118.996 120.676V121.25L117.186 121.361C115.715 121.449 114.883 122.1 114.883 123.225V123.236C114.883 124.385 115.791 125.111 116.992 125.111ZM115.926 123.213V123.201C115.926 122.574 116.348 122.234 117.309 122.176L118.996 122.07V122.645C118.996 123.547 118.24 124.227 117.203 124.227C116.471 124.227 115.926 123.852 115.926 123.213ZM121.938 125H122.957V116.176H121.938V125ZM124.973 125H125.992V116.176H124.973V125Z" fill="#008EFF"/>
<rect x="44.5" y="74.5" width="120" height="23" rx="2.5" fill="white" stroke="#B8D1E5"/>
<path d="M61.0254 81.3926H67.3008V82.4473H62.1621V85.0605H66.9141V86.0566H62.1621V88.9746H67.3887V90H61.0254V81.3926ZM69.1559 86.9355C69.1559 87.6074 69.2985 88.1699 69.5836 88.623C69.8688 89.0762 70.3258 89.3027 70.9547 89.3027C71.443 89.3027 71.8434 89.0938 72.1559 88.6758C72.4723 88.2539 72.6305 87.6504 72.6305 86.8652C72.6305 86.0723 72.4684 85.4863 72.1442 85.1074C71.82 84.7246 71.4196 84.5332 70.943 84.5332C70.4118 84.5332 69.9801 84.7363 69.6481 85.1426C69.32 85.5488 69.1559 86.1465 69.1559 86.9355ZM70.7438 83.6133C71.2243 83.6133 71.6266 83.7148 71.9508 83.918C72.1383 84.0352 72.3512 84.2402 72.5895 84.5332V81.3633H73.6032V90H72.6539V89.127C72.4079 89.5137 72.1168 89.793 71.7809 89.9648C71.445 90.1367 71.0602 90.2227 70.6266 90.2227C69.9274 90.2227 69.3219 89.9297 68.8102 89.3438C68.2985 88.7539 68.0426 87.9707 68.0426 86.9941C68.0426 86.0801 68.275 85.2891 68.7399 84.6211C69.2086 83.9492 69.8766 83.6133 70.7438 83.6133ZM74.8782 83.7539H75.9505V90H74.8782V83.7539ZM74.8782 81.3926H75.9505V82.5879H74.8782V81.3926ZM77.4716 81.9727H78.538V83.7246H79.54V84.5859H78.538V88.6816C78.538 88.9004 78.6122 89.0469 78.7607 89.1211C78.8427 89.1641 78.9794 89.1855 79.1708 89.1855C79.2216 89.1855 79.2763 89.1855 79.3349 89.1855C79.3935 89.1816 79.4618 89.1758 79.54 89.168V90C79.4189 90.0352 79.2919 90.0605 79.1591 90.0762C79.0302 90.0918 78.8896 90.0996 78.7372 90.0996C78.245 90.0996 77.9111 89.9746 77.7353 89.7246C77.5595 89.4707 77.4716 89.1426 77.4716 88.7402V84.5859H76.622V83.7246H77.4716V81.9727ZM85.7815 83.543C86.4885 83.543 87.0627 83.7148 87.5041 84.0586C87.9494 84.4023 88.217 84.9941 88.3068 85.834H87.2815C87.219 85.4473 87.0764 85.127 86.8537 84.873C86.6311 84.6152 86.2736 84.4863 85.7815 84.4863C85.1096 84.4863 84.6291 84.8145 84.34 85.4707C84.1525 85.8965 84.0588 86.4219 84.0588 87.0469C84.0588 87.6758 84.1916 88.2051 84.4572 88.6348C84.7229 89.0645 85.1408 89.2793 85.7111 89.2793C86.1486 89.2793 86.4943 89.1465 86.7483 88.8809C87.0061 88.6113 87.1838 88.2441 87.2815 87.7793H88.3068C88.1897 88.6113 87.8967 89.2207 87.4279 89.6074C86.9592 89.9902 86.3596 90.1816 85.6291 90.1816C84.8088 90.1816 84.1545 89.8828 83.6662 89.2852C83.1779 88.6836 82.9338 87.9336 82.9338 87.0352C82.9338 85.9336 83.2014 85.0762 83.7365 84.4629C84.2717 83.8496 84.9533 83.543 85.7815 83.543ZM91.5624 89.3203C92.2616 89.3203 92.7401 89.0566 92.9979 88.5293C93.2596 87.998 93.3905 87.4082 93.3905 86.7598C93.3905 86.1738 93.2967 85.6973 93.1092 85.3301C92.8124 84.752 92.3006 84.4629 91.5741 84.4629C90.9295 84.4629 90.4608 84.709 90.1678 85.2012C89.8749 85.6934 89.7284 86.2871 89.7284 86.9824C89.7284 87.6504 89.8749 88.207 90.1678 88.6523C90.4608 89.0977 90.9256 89.3203 91.5624 89.3203ZM91.6034 83.543C92.412 83.543 93.0956 83.8125 93.6542 84.3516C94.2127 84.8906 94.492 85.6836 94.492 86.7305C94.492 87.7422 94.246 88.5781 93.7538 89.2383C93.2616 89.8984 92.4979 90.2285 91.4627 90.2285C90.5995 90.2285 89.9139 89.9375 89.4061 89.3555C88.8983 88.7695 88.6444 87.9844 88.6444 87C88.6444 85.9453 88.912 85.1055 89.4471 84.4805C89.9823 83.8555 90.701 83.543 91.6034 83.543ZM95.4624 83.7246H96.4644V84.6152C96.7612 84.248 97.0757 83.9844 97.4077 83.8242C97.7397 83.6641 98.1089 83.584 98.5151 83.584C99.4058 83.584 100.007 83.8945 100.32 84.5156C100.492 84.8555 100.578 85.3418 100.578 85.9746V90H99.5054V86.0449C99.5054 85.6621 99.4487 85.3535 99.3354 85.1191C99.1479 84.7285 98.8081 84.5332 98.3159 84.5332C98.0659 84.5332 97.8608 84.5586 97.7007 84.6094C97.4116 84.6953 97.1577 84.8672 96.939 85.125C96.7632 85.332 96.6479 85.5469 96.5933 85.7695C96.5425 85.9883 96.5171 86.3027 96.5171 86.7129V90H95.4624V83.7246ZM102.116 82.7695C102.132 82.332 102.208 82.0117 102.345 81.8086C102.591 81.4492 103.066 81.2695 103.769 81.2695C103.835 81.2695 103.903 81.2715 103.974 81.2754C104.044 81.2793 104.124 81.2852 104.214 81.293V82.2539C104.105 82.2461 104.025 82.2422 103.974 82.2422C103.927 82.2383 103.882 82.2363 103.839 82.2363C103.519 82.2363 103.327 82.3203 103.265 82.4883C103.202 82.6523 103.171 83.0742 103.171 83.7539H104.214V84.5859H103.159V90H102.116V84.5859H101.243V83.7539H102.116V82.7695ZM105.228 82.5879V81.3926H106.282V82.5879H105.228ZM105.228 83.7539H106.282V90H105.228V83.7539ZM109.778 83.6133C110.27 83.6133 110.7 83.7344 111.067 83.9766C111.266 84.1133 111.47 84.3125 111.677 84.5742V83.7832H112.649V89.4902C112.649 90.2871 112.532 90.916 112.298 91.377C111.86 92.2285 111.034 92.6543 109.819 92.6543C109.143 92.6543 108.575 92.502 108.114 92.1973C107.653 91.8965 107.395 91.4238 107.341 90.7793H108.413C108.464 91.0605 108.565 91.2773 108.718 91.4297C108.956 91.6641 109.331 91.7812 109.843 91.7812C110.651 91.7812 111.18 91.4961 111.43 90.9258C111.579 90.5898 111.647 89.9902 111.636 89.127C111.425 89.4473 111.171 89.6855 110.874 89.8418C110.577 89.998 110.184 90.0762 109.696 90.0762C109.016 90.0762 108.421 89.8359 107.909 89.3555C107.401 88.8711 107.147 88.0723 107.147 86.959C107.147 85.9082 107.403 85.0879 107.915 84.498C108.43 83.9082 109.052 83.6133 109.778 83.6133ZM111.677 86.8359C111.677 86.0586 111.516 85.4824 111.196 85.1074C110.876 84.7324 110.468 84.5449 109.971 84.5449C109.229 84.5449 108.721 84.8926 108.448 85.5879C108.303 85.959 108.231 86.4453 108.231 87.0469C108.231 87.7539 108.374 88.293 108.659 88.6641C108.948 89.0312 109.335 89.2148 109.819 89.2148C110.577 89.2148 111.11 88.873 111.419 88.1895C111.591 87.8027 111.677 87.3516 111.677 86.8359ZM115.008 83.7246V87.8906C115.008 88.2109 115.059 88.4727 115.161 88.6758C115.348 89.0508 115.698 89.2383 116.209 89.2383C116.944 89.2383 117.444 88.9102 117.709 88.2539C117.854 87.9023 117.926 87.4199 117.926 86.8066V83.7246H118.981V90H117.985L117.997 89.0742C117.86 89.3125 117.69 89.5137 117.487 89.6777C117.084 90.0059 116.596 90.1699 116.022 90.1699C115.127 90.1699 114.518 89.8711 114.194 89.2734C114.018 88.9531 113.93 88.5254 113.93 87.9902V83.7246H115.008ZM120.373 83.7246H121.375V84.8086C121.457 84.5977 121.658 84.3418 121.979 84.041C122.299 83.7363 122.668 83.584 123.086 83.584C123.106 83.584 123.139 83.5859 123.186 83.5898C123.232 83.5938 123.313 83.6016 123.426 83.6133V84.7266C123.363 84.7148 123.305 84.707 123.25 84.7031C123.199 84.6992 123.143 84.6973 123.08 84.6973C122.549 84.6973 122.141 84.8691 121.856 85.2129C121.57 85.5527 121.428 85.9453 121.428 86.3906V90H120.373V83.7246ZM124.859 88.3301C124.859 88.6348 124.97 88.875 125.193 89.0508C125.416 89.2266 125.679 89.3145 125.984 89.3145C126.355 89.3145 126.715 89.2285 127.062 89.0566C127.648 88.7715 127.941 88.3047 127.941 87.6562V86.8066C127.812 86.8887 127.646 86.957 127.443 87.0117C127.24 87.0664 127.041 87.1055 126.845 87.1289L126.207 87.2109C125.824 87.2617 125.537 87.3418 125.345 87.4512C125.021 87.6348 124.859 87.9277 124.859 88.3301ZM127.414 86.1973C127.656 86.166 127.818 86.0645 127.9 85.8926C127.947 85.7988 127.97 85.6641 127.97 85.4883C127.97 85.1289 127.842 84.8691 127.584 84.709C127.33 84.5449 126.965 84.4629 126.488 84.4629C125.937 84.4629 125.547 84.6113 125.316 84.9082C125.187 85.0723 125.103 85.3164 125.064 85.6406H124.08C124.099 84.8672 124.349 84.3301 124.83 84.0293C125.314 83.7246 125.875 83.5723 126.511 83.5723C127.25 83.5723 127.849 83.7129 128.31 83.9941C128.767 84.2754 128.996 84.7129 128.996 85.3066V88.9219C128.996 89.0312 129.017 89.1191 129.06 89.1855C129.107 89.252 129.203 89.2852 129.347 89.2852C129.394 89.2852 129.447 89.2832 129.506 89.2793C129.564 89.2715 129.627 89.2617 129.693 89.25V90.0293C129.529 90.0762 129.404 90.1055 129.318 90.1172C129.232 90.1289 129.115 90.1348 128.967 90.1348C128.603 90.1348 128.34 90.0059 128.175 89.748C128.09 89.6113 128.029 89.418 127.994 89.168C127.779 89.4492 127.47 89.6934 127.068 89.9004C126.666 90.1074 126.222 90.2109 125.738 90.2109C125.156 90.2109 124.679 90.0352 124.308 89.6836C123.941 89.3281 123.758 88.8848 123.758 88.3535C123.758 87.7715 123.939 87.3203 124.302 87C124.666 86.6797 125.142 86.4824 125.732 86.4082L127.414 86.1973ZM130.652 81.9727H131.718V83.7246H132.72V84.5859H131.718V88.6816C131.718 88.9004 131.792 89.0469 131.941 89.1211C132.023 89.1641 132.16 89.1855 132.351 89.1855C132.402 89.1855 132.456 89.1855 132.515 89.1855C132.574 89.1816 132.642 89.1758 132.72 89.168V90C132.599 90.0352 132.472 90.0605 132.339 90.0762C132.21 90.0918 132.07 90.0996 131.917 90.0996C131.425 90.0996 131.091 89.9746 130.915 89.7246C130.74 89.4707 130.652 89.1426 130.652 88.7402V84.5859H129.802V83.7246H130.652V81.9727ZM133.491 83.7539H134.563V90H133.491V83.7539ZM133.491 81.3926H134.563V82.5879H133.491V81.3926ZM138.364 89.3203C139.063 89.3203 139.542 89.0566 139.799 88.5293C140.061 87.998 140.192 87.4082 140.192 86.7598C140.192 86.1738 140.098 85.6973 139.911 85.3301C139.614 84.752 139.102 84.4629 138.376 84.4629C137.731 84.4629 137.262 84.709 136.969 85.2012C136.676 85.6934 136.53 86.2871 136.53 86.9824C136.53 87.6504 136.676 88.207 136.969 88.6523C137.262 89.0977 137.727 89.3203 138.364 89.3203ZM138.405 83.543C139.214 83.543 139.897 83.8125 140.456 84.3516C141.014 84.8906 141.294 85.6836 141.294 86.7305C141.294 87.7422 141.047 88.5781 140.555 89.2383C140.063 89.8984 139.299 90.2285 138.264 90.2285C137.401 90.2285 136.715 89.9375 136.208 89.3555C135.7 88.7695 135.446 87.9844 135.446 87C135.446 85.9453 135.714 85.1055 136.249 84.4805C136.784 83.8555 137.503 83.543 138.405 83.543ZM142.264 83.7246H143.266V84.6152C143.563 84.248 143.877 83.9844 144.209 83.8242C144.541 83.6641 144.91 83.584 145.317 83.584C146.207 83.584 146.809 83.8945 147.121 84.5156C147.293 84.8555 147.379 85.3418 147.379 85.9746V90H146.307V86.0449C146.307 85.6621 146.25 85.3535 146.137 85.1191C145.949 84.7285 145.61 84.5332 145.117 84.5332C144.867 84.5332 144.662 84.5586 144.502 84.6094C144.213 84.6953 143.959 84.8672 143.741 85.125C143.565 85.332 143.449 85.5469 143.395 85.7695C143.344 85.9883 143.319 86.3027 143.319 86.7129V90H142.264V83.7246Z" fill="#1F2326"/>
</svg>
