<svg width="148" height="58" viewBox="0 0 148 58" fill="none" xmlns="http://www.w3.org/2000/svg">
<rect width="148" height="58" fill="#E5E5E5"/>
<rect width="1372" height="3506" transform="translate(-201 -111)" fill="white"/>
<rect x="0.5" y="0.5" width="147" height="57" rx="2.5" fill="white" stroke="#DFE5EB"/>
<path d="M1 3C1 1.89543 1.89543 1 3 1H145C146.105 1 147 1.89543 147 3V5H1V3Z" fill="#B8D1E5"/>
<path d="M67.168 36H72.7285V34.9717H68.3105V26.8403H67.168V36ZM76.2959 36.1206C77.2163 36.1206 77.9336 35.7207 78.3652 34.9907H78.4668V36H79.5713V31.3154C79.5713 29.8936 78.6382 29.0366 76.9688 29.0366C75.5088 29.0366 74.4678 29.7603 74.29 30.833L74.2837 30.8711H75.3882L75.3945 30.8521C75.5723 30.3188 76.1118 30.0142 76.9307 30.0142C77.9526 30.0142 78.4668 30.4712 78.4668 31.3154V31.9375L76.5054 32.0581C74.9121 32.1533 74.0107 32.8579 74.0107 34.0767V34.0894C74.0107 35.3335 74.9946 36.1206 76.2959 36.1206ZM75.1406 34.064V34.0513C75.1406 33.3721 75.5977 33.0039 76.6387 32.9404L78.4668 32.8262V33.4482C78.4668 34.4258 77.6479 35.1621 76.5244 35.1621C75.731 35.1621 75.1406 34.7559 75.1406 34.064ZM84.9922 36.1206C86.7251 36.1206 87.8613 34.7178 87.8613 32.585V32.5723C87.8613 30.4268 86.7314 29.0366 84.9922 29.0366C84.0527 29.0366 83.2339 29.5063 82.8594 30.2363H82.7578V26.4404H81.6533V36H82.7578V34.9082H82.8594C83.2783 35.6699 84.04 36.1206 84.9922 36.1206ZM84.7383 35.1431C83.4941 35.1431 82.7324 34.1655 82.7324 32.585V32.5723C82.7324 30.9917 83.4941 30.0142 84.7383 30.0142C85.9888 30.0142 86.7314 30.979 86.7314 32.5723V32.585C86.7314 34.1782 85.9888 35.1431 84.7383 35.1431ZM92.3682 36.1206C93.9805 36.1206 94.958 35.2065 95.1929 34.2798L95.2056 34.229H94.1011L94.0757 34.2861C93.8916 34.6987 93.3203 35.1367 92.3936 35.1367C91.1748 35.1367 90.394 34.3115 90.3623 32.896H95.2881V32.4644C95.2881 30.4204 94.1582 29.0366 92.2983 29.0366C90.4385 29.0366 89.2324 30.4839 89.2324 32.5977V32.604C89.2324 34.7495 90.4131 36.1206 92.3682 36.1206ZM92.292 30.0205C93.3013 30.0205 94.0503 30.6616 94.1646 32.0137H90.3813C90.502 30.7124 91.2764 30.0205 92.292 30.0205ZM97.0654 36H98.1699V26.4404H97.0654V36Z" fill="#1F2326"/>
<rect x="44.5" y="25.5" width="13" height="13" rx="1.5" fill="#D4EDFF" stroke="#80C6FF"/>
<path d="M46 31.175L50.655 36L59.983 22.863L58.95 22L50.554 33.816L46.846 30.08L46 31.175Z" fill="#1A1918"/>
</svg>
