<svg width="320" height="190" viewBox="0 0 320 190" fill="none" xmlns="http://www.w3.org/2000/svg">
<rect x="0.5" y="0.5" width="319" height="189" rx="2.5" fill="white" stroke="#EBEBEB"/>
<path d="M0 3C0 1.34315 1.34315 0 3 0H317C318.657 0 320 1.34315 320 3V5H0V3Z" fill="#59A869"/>
<path d="M15.0033 11C11.7674 10.9987 8.84932 12.9471 7.61009 15.9364C6.37086 18.9257 7.05454 22.3671 9.34228 24.6558C11.63 26.9444 15.0712 27.6294 18.061 26.3913C21.0508 25.1533 23.0002 22.236 23.0002 19C23.0006 16.8787 22.1584 14.8441 20.6586 13.3438C19.1589 11.8435 17.1247 11.0004 15.0033 11ZM14.1609 22.6895L10.4861 19.0147L11.7585 17.7412L14.1609 20.1445L18.8191 15.4854L20.0915 16.7588L14.1609 22.6895Z" fill="#59A869"/>
<g filter="url(#filter0_d)">
<rect x="48" y="39" width="223" height="108" rx="3" fill="white"/>
<rect x="48.5" y="39.5" width="222" height="107" rx="2.5" stroke="#DFE5EB"/>
</g>
<rect x="60" y="51" width="108" height="12" rx="3" fill="#EDF0F2"/>
<rect x="60" y="123" width="35" height="12" rx="3" fill="#008EFF"/>
<rect x="67" y="127" width="21" height="4" rx="2" fill="#1F2326"/>
<rect x="101.5" y="123.5" width="34" height="11" rx="2.5" stroke="#B8D1E5"/>
<rect x="224.5" y="123.5" width="34" height="11" rx="2.5" stroke="#B8D1E5"/>
<rect x="60" y="79" width="199" height="6" rx="3" fill="#EDF0F2"/>
<rect x="60" y="90" width="199" height="6" rx="3" fill="#EDF0F2"/>
<rect x="60" y="101" width="199" height="6" rx="3" fill="#EDF0F2"/>
<rect x="108" y="127" width="21" height="4" rx="2" fill="#1F2326"/>
<rect x="231" y="127" width="21" height="4" rx="2" fill="#DB5860"/>
<defs>
<filter id="filter0_d" x="32" y="25" width="255" height="140" filterUnits="userSpaceOnUse" color-interpolation-filters="sRGB">
<feFlood flood-opacity="0" result="BackgroundImageFix"/>
<feColorMatrix in="SourceAlpha" type="matrix" values="0 0 0 0 0 0 0 0 0 0 0 0 0 0 0 0 0 0 127 0"/>
<feOffset dy="2"/>
<feGaussianBlur stdDeviation="8"/>
<feColorMatrix type="matrix" values="0 0 0 0 0.0666667 0 0 0 0 0.160784 0 0 0 0 0.239216 0 0 0 0.15 0"/>
<feBlend mode="normal" in2="BackgroundImageFix" result="effect1_dropShadow"/>
<feBlend mode="normal" in="SourceGraphic" in2="effect1_dropShadow" result="shape"/>
</filter>
</defs>
</svg>
