<svg width="216" height="101" viewBox="0 0 216 101" fill="none" xmlns="http://www.w3.org/2000/svg">
<rect x="0.5" y="0.5" width="215" height="100" rx="2.5" fill="white" stroke="#EBEBEB"/>
<path d="M0 3C0 1.34315 1.34315 0 3 0H213C214.657 0 216 1.34315 216 3V5H0V3Z" fill="#59A869"/>
<path d="M14.0033 11C10.7674 10.9987 7.84932 12.9471 6.61009 15.9364C5.37086 18.9257 6.05454 22.3671 8.34228 24.6558C10.63 26.9444 14.0712 27.6294 17.061 26.3913C20.0508 25.1533 22.0002 22.236 22.0002 19C22.0006 16.8787 21.1584 14.8441 19.6586 13.3438C18.1589 11.8435 16.1247 11.0004 14.0033 11ZM13.1609 22.6895L9.48607 19.0147L10.7585 17.7412L13.1609 20.1445L17.8191 15.4854L19.0915 16.7588L13.1609 22.6895Z" fill="#59A869"/>
<path fill-rule="evenodd" clip-rule="evenodd" d="M195.345 48.582H195.347C194.795 48.178 194.137 47.975 193.47 48.003C192.961 47.984 192.457 48.126 192.022 48.411C191.366 48.902 190.989 49.722 191.027 50.58H192.471C192.473 50.275 192.556 49.977 192.712 49.722C192.895 49.434 193.208 49.274 193.532 49.308C193.837 49.269 194.14 49.394 194.342 49.644C194.487 49.859 194.565 50.12 194.563 50.387C194.564 50.621 194.495 50.849 194.364 51.036C194.284 51.158 194.188 51.266 194.076 51.354L193.712 51.66C193.432 51.863 193.202 52.137 193.044 52.458C192.933 52.865 192.88 53.287 192.885 53.712H194.24C194.234 53.498 194.256 53.285 194.305 53.078C194.375 52.852 194.509 52.654 194.687 52.513L195.041 52.219C195.313 52.008 195.558 51.759 195.769 51.478C195.991 51.134 196.104 50.721 196.092 50.301C196.131 49.629 195.85 48.981 195.345 48.582ZM192.884 55.9999H194.283V54.5469H192.884V55.9999ZM193.56 58.5999C190.175 58.5999 187.422 55.6399 187.422 51.9999C187.422 48.3599 190.175 45.3999 193.56 45.3999C196.945 45.3999 199.698 48.3599 199.698 51.9999C199.698 55.6399 196.945 58.5999 193.56 58.5999ZM193.56 44C189.451 44 186.12 47.582 186.12 52C186.12 56.418 189.451 60 193.56 60C197.669 60 201 56.418 201 52C201 47.582 197.669 44 193.56 44Z" fill="#B8D2E4"/>
<rect x="15.5" y="40.5" width="161" height="23" rx="2.5" fill="white" stroke="#B8D1E5"/>
<path d="M33.6289 56H34.7363L35.5859 53.5801H38.9492L39.7988 56H40.9062L37.7891 47.5449H36.7461L33.6289 56ZM37.2207 48.9102H37.3145L38.6387 52.6836H35.8965L37.2207 48.9102ZM44.2402 56.1113C45.1191 56.1113 45.8223 55.6953 46.209 54.9922H46.3027V56H47.3223V47.1758H46.3027V50.6797H46.209C45.8633 50.0059 45.1074 49.5723 44.2402 49.5723C42.6348 49.5723 41.5918 50.8555 41.5918 52.8359V52.8477C41.5918 54.8164 42.6406 56.1113 44.2402 56.1113ZM44.4746 55.209C43.3203 55.209 42.6348 54.3184 42.6348 52.8477V52.8359C42.6348 51.3652 43.3203 50.4746 44.4746 50.4746C45.623 50.4746 46.3262 51.377 46.3262 52.8359V52.8477C46.3262 54.3066 45.623 55.209 44.4746 55.209ZM51.6113 56.1113C52.4902 56.1113 53.1934 55.6953 53.5801 54.9922H53.6738V56H54.6934V47.1758H53.6738V50.6797H53.5801C53.2344 50.0059 52.4785 49.5723 51.6113 49.5723C50.0059 49.5723 48.9629 50.8555 48.9629 52.8359V52.8477C48.9629 54.8164 50.0117 56.1113 51.6113 56.1113ZM51.8457 55.209C50.6914 55.209 50.0059 54.3184 50.0059 52.8477V52.8359C50.0059 51.3652 50.6914 50.4746 51.8457 50.4746C52.9941 50.4746 53.6973 51.377 53.6973 52.8359V52.8477C53.6973 54.3066 52.9941 55.209 51.8457 55.209ZM60.4473 56H61.4668V50.5273H62.9023V49.6836H61.4668V49.0098C61.4668 48.3184 61.7598 47.9609 62.4863 47.9609C62.668 47.9609 62.8379 47.9668 62.9609 47.9902V47.1758C62.75 47.1348 62.5273 47.1172 62.2812 47.1172C61.0801 47.1172 60.4473 47.7207 60.4473 48.9805V49.6836H59.3984V50.5273H60.4473V56ZM64.9121 48.4648C65.2988 48.4648 65.6152 48.1484 65.6152 47.7617C65.6152 47.375 65.2988 47.0586 64.9121 47.0586C64.5254 47.0586 64.209 47.375 64.209 47.7617C64.209 48.1484 64.5254 48.4648 64.9121 48.4648ZM64.3965 56H65.416V49.6836H64.3965V56ZM67.3965 56H68.416V47.1758H67.3965V56ZM72.9512 56.1113C74.4395 56.1113 75.3418 55.2676 75.5586 54.4121L75.5703 54.3652H74.5508L74.5273 54.418C74.3574 54.7988 73.8301 55.2031 72.9746 55.2031C71.8496 55.2031 71.1289 54.4414 71.0996 53.1348H75.6465V52.7363C75.6465 50.8496 74.6035 49.5723 72.8867 49.5723C71.1699 49.5723 70.0566 50.9082 70.0566 52.8594V52.8652C70.0566 54.8457 71.1465 56.1113 72.9512 56.1113ZM72.8809 50.4805C73.8125 50.4805 74.5039 51.0723 74.6094 52.3203H71.1172C71.2285 51.1191 71.9434 50.4805 72.8809 50.4805ZM81.8223 56H82.8418L84.248 51.1133H84.3418L85.7539 56H86.7793L88.5488 49.6836H87.5352L86.293 54.7344H86.1992L84.7871 49.6836H83.8203L82.4082 54.7344H82.3145L81.0723 49.6836H80.0527L81.8223 56ZM90.4355 48.4648C90.8223 48.4648 91.1387 48.1484 91.1387 47.7617C91.1387 47.375 90.8223 47.0586 90.4355 47.0586C90.0488 47.0586 89.7324 47.375 89.7324 47.7617C89.7324 48.1484 90.0488 48.4648 90.4355 48.4648ZM89.9199 56H90.9395V49.6836H89.9199V56ZM95.1055 56.0469C95.3047 56.0469 95.498 56.0234 95.6973 55.9883V55.1211C95.5098 55.1387 95.4102 55.1445 95.2285 55.1445C94.5723 55.1445 94.3145 54.8457 94.3145 54.1016V50.5273H95.6973V49.6836H94.3145V48.0488H93.2598V49.6836H92.2637V50.5273H93.2598V54.3594C93.2598 55.5664 93.8047 56.0469 95.1055 56.0469ZM97.2793 56H98.2988V52.2617C98.2988 51.1543 98.9375 50.4746 99.9453 50.4746C100.953 50.4746 101.422 51.0195 101.422 52.1562V56H102.441V51.9102C102.441 50.4102 101.65 49.5723 100.232 49.5723C99.3008 49.5723 98.709 49.9648 98.3926 50.6328H98.2988V47.1758H97.2793V56ZM109.777 56.1113C110.703 56.1113 111.342 55.7305 111.652 55.0566H111.746V56H112.766V49.6836H111.746V53.4219C111.746 54.5293 111.154 55.209 110.041 55.209C109.033 55.209 108.623 54.6641 108.623 53.5273V49.6836H107.604V53.7734C107.604 55.2676 108.342 56.1113 109.777 56.1113ZM116.838 56.1113C118.273 56.1113 119.369 55.332 119.369 54.207V54.1953C119.369 53.293 118.795 52.7773 117.605 52.4902L116.633 52.2559C115.889 52.0742 115.572 51.8047 115.572 51.377V51.3652C115.572 50.8086 116.123 50.4219 116.873 50.4219C117.635 50.4219 118.127 50.7676 118.262 51.2656H119.264C119.123 50.2344 118.203 49.5723 116.879 49.5723C115.537 49.5723 114.529 50.3633 114.529 51.4121V51.418C114.529 52.3262 115.062 52.8418 116.246 53.123L117.225 53.3574C118.004 53.5449 118.326 53.8438 118.326 54.2715V54.2832C118.326 54.8574 117.723 55.2617 116.873 55.2617C116.064 55.2617 115.561 54.916 115.391 54.3887H114.348C114.465 55.4316 115.432 56.1113 116.838 56.1113ZM123.529 56.1113C125.018 56.1113 125.92 55.2676 126.137 54.4121L126.148 54.3652H125.129L125.105 54.418C124.936 54.7988 124.408 55.2031 123.553 55.2031C122.428 55.2031 121.707 54.4414 121.678 53.1348H126.225V52.7363C126.225 50.8496 125.182 49.5723 123.465 49.5723C121.748 49.5723 120.635 50.9082 120.635 52.8594V52.8652C120.635 54.8457 121.725 56.1113 123.529 56.1113ZM123.459 50.4805C124.391 50.4805 125.082 51.0723 125.188 52.3203H121.695C121.807 51.1191 122.521 50.4805 123.459 50.4805ZM127.807 56H128.826V52.0859C128.826 51.1602 129.518 50.5449 130.49 50.5449C130.713 50.5449 130.906 50.5684 131.117 50.6035V49.6133C131.018 49.5957 130.801 49.5723 130.607 49.5723C129.752 49.5723 129.16 49.959 128.92 50.6211H128.826V49.6836H127.807V56ZM138.084 56.1113C138.963 56.1113 139.666 55.6953 140.053 54.9922H140.146V56H141.166V47.1758H140.146V50.6797H140.053C139.707 50.0059 138.951 49.5723 138.084 49.5723C136.479 49.5723 135.436 50.8555 135.436 52.8359V52.8477C135.436 54.8164 136.484 56.1113 138.084 56.1113ZM138.318 55.209C137.164 55.209 136.479 54.3184 136.479 52.8477V52.8359C136.479 51.3652 137.164 50.4746 138.318 50.4746C139.467 50.4746 140.17 51.377 140.17 52.8359V52.8477C140.17 54.3066 139.467 55.209 138.318 55.209ZM144.857 56.1113C145.707 56.1113 146.369 55.7422 146.768 55.0684H146.861V56H147.881V51.6758C147.881 50.3633 147.02 49.5723 145.479 49.5723C144.131 49.5723 143.17 50.2402 143.006 51.2305L143 51.2656H144.02L144.025 51.248C144.189 50.7559 144.688 50.4746 145.443 50.4746C146.387 50.4746 146.861 50.8965 146.861 51.6758V52.25L145.051 52.3613C143.58 52.4492 142.748 53.0996 142.748 54.2246V54.2363C142.748 55.3848 143.656 56.1113 144.857 56.1113ZM143.791 54.2129V54.2012C143.791 53.5742 144.213 53.2344 145.174 53.1758L146.861 53.0703V53.6445C146.861 54.5469 146.105 55.2266 145.068 55.2266C144.336 55.2266 143.791 54.8516 143.791 54.2129ZM151.988 56.0469C152.188 56.0469 152.381 56.0234 152.58 55.9883V55.1211C152.393 55.1387 152.293 55.1445 152.111 55.1445C151.455 55.1445 151.197 54.8457 151.197 54.1016V50.5273H152.58V49.6836H151.197V48.0488H150.143V49.6836H149.146V50.5273H150.143V54.3594C150.143 55.5664 150.688 56.0469 151.988 56.0469ZM155.838 56.1113C156.688 56.1113 157.35 55.7422 157.748 55.0684H157.842V56H158.861V51.6758C158.861 50.3633 158 49.5723 156.459 49.5723C155.111 49.5723 154.15 50.2402 153.986 51.2305L153.98 51.2656H155L155.006 51.248C155.17 50.7559 155.668 50.4746 156.424 50.4746C157.367 50.4746 157.842 50.8965 157.842 51.6758V52.25L156.031 52.3613C154.561 52.4492 153.729 53.0996 153.729 54.2246V54.2363C153.729 55.3848 154.637 56.1113 155.838 56.1113ZM154.771 54.2129V54.2012C154.771 53.5742 155.193 53.2344 156.154 53.1758L157.842 53.0703V53.6445C157.842 54.5469 157.086 55.2266 156.049 55.2266C155.316 55.2266 154.771 54.8516 154.771 54.2129Z" fill="#1F2326"/>
</svg>
