<svg width="216" height="101" viewBox="0 0 216 101" fill="none" xmlns="http://www.w3.org/2000/svg">
<rect x="0.5" y="0.5" width="215" height="100" rx="2.5" fill="white" stroke="#EBEBEB"/>
<path d="M0 3C0 1.34315 1.34315 0 3 0H213C214.657 0 216 1.34315 216 3V5H0V3Z" fill="#59A869"/>
<path d="M14.0033 11C10.7674 10.9987 7.84932 12.9471 6.61009 15.9364C5.37086 18.9257 6.05454 22.3671 8.34228 24.6558C10.63 26.9444 14.0712 27.6294 17.061 26.3913C20.0508 25.1533 22.0002 22.236 22.0002 19C22.0006 16.8787 21.1584 14.8441 19.6586 13.3438C18.1589 11.8435 16.1247 11.0004 14.0033 11ZM13.1609 22.6895L9.48607 19.0147L10.7585 17.7412L13.1609 20.1445L17.8191 15.4854L19.0915 16.7588L13.1609 22.6895Z" fill="#59A869"/>
<rect x="28.5" y="25.5" width="161" height="23" rx="2.5" fill="white" stroke="#B8D1E5"/>
<path d="M46.6289 41H47.7363L48.5859 38.5801H51.9492L52.7988 41H53.9062L50.7891 32.5449H49.7461L46.6289 41ZM50.2207 33.9102H50.3145L51.6387 37.6836H48.8965L50.2207 33.9102ZM57.2402 41.1113C58.1191 41.1113 58.8223 40.6953 59.209 39.9922H59.3027V41H60.3223V32.1758H59.3027V35.6797H59.209C58.8633 35.0059 58.1074 34.5723 57.2402 34.5723C55.6348 34.5723 54.5918 35.8555 54.5918 37.8359V37.8477C54.5918 39.8164 55.6406 41.1113 57.2402 41.1113ZM57.4746 40.209C56.3203 40.209 55.6348 39.3184 55.6348 37.8477V37.8359C55.6348 36.3652 56.3203 35.4746 57.4746 35.4746C58.623 35.4746 59.3262 36.377 59.3262 37.8359V37.8477C59.3262 39.3066 58.623 40.209 57.4746 40.209ZM64.6113 41.1113C65.4902 41.1113 66.1934 40.6953 66.5801 39.9922H66.6738V41H67.6934V32.1758H66.6738V35.6797H66.5801C66.2344 35.0059 65.4785 34.5723 64.6113 34.5723C63.0059 34.5723 61.9629 35.8555 61.9629 37.8359V37.8477C61.9629 39.8164 63.0117 41.1113 64.6113 41.1113ZM64.8457 40.209C63.6914 40.209 63.0059 39.3184 63.0059 37.8477V37.8359C63.0059 36.3652 63.6914 35.4746 64.8457 35.4746C65.9941 35.4746 66.6973 36.377 66.6973 37.8359V37.8477C66.6973 39.3066 65.9941 40.209 64.8457 40.209ZM73.4473 41H74.4668V35.5273H75.9023V34.6836H74.4668V34.0098C74.4668 33.3184 74.7598 32.9609 75.4863 32.9609C75.668 32.9609 75.8379 32.9668 75.9609 32.9902V32.1758C75.75 32.1348 75.5273 32.1172 75.2812 32.1172C74.0801 32.1172 73.4473 32.7207 73.4473 33.9805V34.6836H72.3984V35.5273H73.4473V41ZM77.9121 33.4648C78.2988 33.4648 78.6152 33.1484 78.6152 32.7617C78.6152 32.375 78.2988 32.0586 77.9121 32.0586C77.5254 32.0586 77.209 32.375 77.209 32.7617C77.209 33.1484 77.5254 33.4648 77.9121 33.4648ZM77.3965 41H78.416V34.6836H77.3965V41ZM80.3965 41H81.416V32.1758H80.3965V41ZM85.9512 41.1113C87.4395 41.1113 88.3418 40.2676 88.5586 39.4121L88.5703 39.3652H87.5508L87.5273 39.418C87.3574 39.7988 86.8301 40.2031 85.9746 40.2031C84.8496 40.2031 84.1289 39.4414 84.0996 38.1348H88.6465V37.7363C88.6465 35.8496 87.6035 34.5723 85.8867 34.5723C84.1699 34.5723 83.0566 35.9082 83.0566 37.8594V37.8652C83.0566 39.8457 84.1465 41.1113 85.9512 41.1113ZM85.8809 35.4805C86.8125 35.4805 87.5039 36.0723 87.6094 37.3203H84.1172C84.2285 36.1191 84.9434 35.4805 85.8809 35.4805ZM94.8223 41H95.8418L97.248 36.1133H97.3418L98.7539 41H99.7793L101.549 34.6836H100.535L99.293 39.7344H99.1992L97.7871 34.6836H96.8203L95.4082 39.7344H95.3145L94.0723 34.6836H93.0527L94.8223 41ZM103.436 33.4648C103.822 33.4648 104.139 33.1484 104.139 32.7617C104.139 32.375 103.822 32.0586 103.436 32.0586C103.049 32.0586 102.732 32.375 102.732 32.7617C102.732 33.1484 103.049 33.4648 103.436 33.4648ZM102.92 41H103.939V34.6836H102.92V41ZM108.105 41.0469C108.305 41.0469 108.498 41.0234 108.697 40.9883V40.1211C108.51 40.1387 108.41 40.1445 108.229 40.1445C107.572 40.1445 107.314 39.8457 107.314 39.1016V35.5273H108.697V34.6836H107.314V33.0488H106.26V34.6836H105.264V35.5273H106.26V39.3594C106.26 40.5664 106.805 41.0469 108.105 41.0469ZM110.279 41H111.299V37.2617C111.299 36.1543 111.938 35.4746 112.945 35.4746C113.953 35.4746 114.422 36.0195 114.422 37.1562V41H115.441V36.9102C115.441 35.4102 114.65 34.5723 113.232 34.5723C112.301 34.5723 111.709 34.9648 111.393 35.6328H111.299V32.1758H110.279V41ZM122.777 41.1113C123.703 41.1113 124.342 40.7305 124.652 40.0566H124.746V41H125.766V34.6836H124.746V38.4219C124.746 39.5293 124.154 40.209 123.041 40.209C122.033 40.209 121.623 39.6641 121.623 38.5273V34.6836H120.604V38.7734C120.604 40.2676 121.342 41.1113 122.777 41.1113ZM129.838 41.1113C131.273 41.1113 132.369 40.332 132.369 39.207V39.1953C132.369 38.293 131.795 37.7773 130.605 37.4902L129.633 37.2559C128.889 37.0742 128.572 36.8047 128.572 36.377V36.3652C128.572 35.8086 129.123 35.4219 129.873 35.4219C130.635 35.4219 131.127 35.7676 131.262 36.2656H132.264C132.123 35.2344 131.203 34.5723 129.879 34.5723C128.537 34.5723 127.529 35.3633 127.529 36.4121V36.418C127.529 37.3262 128.062 37.8418 129.246 38.123L130.225 38.3574C131.004 38.5449 131.326 38.8438 131.326 39.2715V39.2832C131.326 39.8574 130.723 40.2617 129.873 40.2617C129.064 40.2617 128.561 39.916 128.391 39.3887H127.348C127.465 40.4316 128.432 41.1113 129.838 41.1113ZM136.529 41.1113C138.018 41.1113 138.92 40.2676 139.137 39.4121L139.148 39.3652H138.129L138.105 39.418C137.936 39.7988 137.408 40.2031 136.553 40.2031C135.428 40.2031 134.707 39.4414 134.678 38.1348H139.225V37.7363C139.225 35.8496 138.182 34.5723 136.465 34.5723C134.748 34.5723 133.635 35.9082 133.635 37.8594V37.8652C133.635 39.8457 134.725 41.1113 136.529 41.1113ZM136.459 35.4805C137.391 35.4805 138.082 36.0723 138.188 37.3203H134.695C134.807 36.1191 135.521 35.4805 136.459 35.4805ZM140.807 41H141.826V37.0859C141.826 36.1602 142.518 35.5449 143.49 35.5449C143.713 35.5449 143.906 35.5684 144.117 35.6035V34.6133C144.018 34.5957 143.801 34.5723 143.607 34.5723C142.752 34.5723 142.16 34.959 141.92 35.6211H141.826V34.6836H140.807V41ZM151.084 41.1113C151.963 41.1113 152.666 40.6953 153.053 39.9922H153.146V41H154.166V32.1758H153.146V35.6797H153.053C152.707 35.0059 151.951 34.5723 151.084 34.5723C149.479 34.5723 148.436 35.8555 148.436 37.8359V37.8477C148.436 39.8164 149.484 41.1113 151.084 41.1113ZM151.318 40.209C150.164 40.209 149.479 39.3184 149.479 37.8477V37.8359C149.479 36.3652 150.164 35.4746 151.318 35.4746C152.467 35.4746 153.17 36.377 153.17 37.8359V37.8477C153.17 39.3066 152.467 40.209 151.318 40.209ZM157.857 41.1113C158.707 41.1113 159.369 40.7422 159.768 40.0684H159.861V41H160.881V36.6758C160.881 35.3633 160.02 34.5723 158.479 34.5723C157.131 34.5723 156.17 35.2402 156.006 36.2305L156 36.2656H157.02L157.025 36.248C157.189 35.7559 157.688 35.4746 158.443 35.4746C159.387 35.4746 159.861 35.8965 159.861 36.6758V37.25L158.051 37.3613C156.58 37.4492 155.748 38.0996 155.748 39.2246V39.2363C155.748 40.3848 156.656 41.1113 157.857 41.1113ZM156.791 39.2129V39.2012C156.791 38.5742 157.213 38.2344 158.174 38.1758L159.861 38.0703V38.6445C159.861 39.5469 159.105 40.2266 158.068 40.2266C157.336 40.2266 156.791 39.8516 156.791 39.2129ZM164.988 41.0469C165.188 41.0469 165.381 41.0234 165.58 40.9883V40.1211C165.393 40.1387 165.293 40.1445 165.111 40.1445C164.455 40.1445 164.197 39.8457 164.197 39.1016V35.5273H165.58V34.6836H164.197V33.0488H163.143V34.6836H162.146V35.5273H163.143V39.3594C163.143 40.5664 163.688 41.0469 164.988 41.0469ZM168.838 41.1113C169.688 41.1113 170.35 40.7422 170.748 40.0684H170.842V41H171.861V36.6758C171.861 35.3633 171 34.5723 169.459 34.5723C168.111 34.5723 167.15 35.2402 166.986 36.2305L166.98 36.2656H168L168.006 36.248C168.17 35.7559 168.668 35.4746 169.424 35.4746C170.367 35.4746 170.842 35.8965 170.842 36.6758V37.25L169.031 37.3613C167.561 37.4492 166.729 38.0996 166.729 39.2246V39.2363C166.729 40.3848 167.637 41.1113 168.838 41.1113ZM167.771 39.2129V39.2012C167.771 38.5742 168.193 38.2344 169.154 38.1758L170.842 38.0703V38.6445C170.842 39.5469 170.086 40.2266 169.049 40.2266C168.316 40.2266 167.771 39.8516 167.771 39.2129Z" fill="#1F2326"/>
<path d="M34.4297 64.1992C36.5273 64.1992 37.7812 62.9336 37.7812 61.0938V55.5449H36.7266V61.0234C36.7266 62.3242 35.8945 63.2266 34.4297 63.2266C32.9648 63.2266 32.1211 62.3242 32.1211 61.0234V55.5449H31.0664V61.0938C31.0664 62.9336 32.332 64.1992 34.4297 64.1992ZM39.7969 66.1094H40.8164V63.0039H40.9102C41.2559 63.6777 42.0117 64.1113 42.8789 64.1113C44.4844 64.1113 45.5273 62.8281 45.5273 60.8477V60.8359C45.5273 58.8672 44.4785 57.5723 42.8789 57.5723C42 57.5723 41.2969 57.9883 40.9102 58.6914H40.8164V57.6836H39.7969V66.1094ZM42.6445 63.209C41.4961 63.209 40.793 62.3066 40.793 60.8477V60.8359C40.793 59.377 41.4961 58.4746 42.6445 58.4746C43.7988 58.4746 44.4844 59.3652 44.4844 60.8359V60.8477C44.4844 62.3184 43.7988 63.209 42.6445 63.209ZM47.1797 64H48.1992V55.1758H47.1797V64ZM52.752 64.1113C54.5508 64.1113 55.6641 62.8691 55.6641 60.8477V60.8359C55.6641 58.8086 54.5508 57.5723 52.752 57.5723C50.9531 57.5723 49.8398 58.8086 49.8398 60.8359V60.8477C49.8398 62.8691 50.9531 64.1113 52.752 64.1113ZM52.752 63.209C51.5566 63.209 50.8828 62.3359 50.8828 60.8477V60.8359C50.8828 59.3418 51.5566 58.4746 52.752 58.4746C53.9473 58.4746 54.6211 59.3418 54.6211 60.8359V60.8477C54.6211 62.3359 53.9473 63.209 52.752 63.209ZM58.9805 64.1113C59.8301 64.1113 60.4922 63.7422 60.8906 63.0684H60.9844V64H62.0039V59.6758C62.0039 58.3633 61.1426 57.5723 59.6016 57.5723C58.2539 57.5723 57.293 58.2402 57.1289 59.2305L57.123 59.2656H58.1426L58.1484 59.248C58.3125 58.7559 58.8105 58.4746 59.5664 58.4746C60.5098 58.4746 60.9844 58.8965 60.9844 59.6758V60.25L59.1738 60.3613C57.7031 60.4492 56.8711 61.0996 56.8711 62.2246V62.2363C56.8711 63.3848 57.7793 64.1113 58.9805 64.1113ZM57.9141 62.2129V62.2012C57.9141 61.5742 58.3359 61.2344 59.2969 61.1758L60.9844 61.0703V61.6445C60.9844 62.5469 60.2285 63.2266 59.1914 63.2266C58.459 63.2266 57.9141 62.8516 57.9141 62.2129ZM66.1992 64.1113C67.0781 64.1113 67.7812 63.6953 68.168 62.9922H68.2617V64H69.2812V55.1758H68.2617V58.6797H68.168C67.8223 58.0059 67.0664 57.5723 66.1992 57.5723C64.5938 57.5723 63.5508 58.8555 63.5508 60.8359V60.8477C63.5508 62.8164 64.5996 64.1113 66.1992 64.1113ZM66.4336 63.209C65.2793 63.209 64.5938 62.3184 64.5938 60.8477V60.8359C64.5938 59.3652 65.2793 58.4746 66.4336 58.4746C67.582 58.4746 68.2852 59.377 68.2852 60.8359V60.8477C68.2852 62.3066 67.582 63.209 66.4336 63.209ZM76.3477 64.1113C77.1973 64.1113 77.8594 63.7422 78.2578 63.0684H78.3516V64H79.3711V59.6758C79.3711 58.3633 78.5098 57.5723 76.9688 57.5723C75.6211 57.5723 74.6602 58.2402 74.4961 59.2305L74.4902 59.2656H75.5098L75.5156 59.248C75.6797 58.7559 76.1777 58.4746 76.9336 58.4746C77.877 58.4746 78.3516 58.8965 78.3516 59.6758V60.25L76.541 60.3613C75.0703 60.4492 74.2383 61.0996 74.2383 62.2246V62.2363C74.2383 63.3848 75.1465 64.1113 76.3477 64.1113ZM75.2812 62.2129V62.2012C75.2812 61.5742 75.7031 61.2344 76.6641 61.1758L78.3516 61.0703V61.6445C78.3516 62.5469 77.5957 63.2266 76.5586 63.2266C75.8262 63.2266 75.2812 62.8516 75.2812 62.2129ZM87.1934 64.1113C88.7109 64.1113 89.5605 63.2969 89.8184 62.1543L89.8301 62.0898L88.8223 62.0957L88.8105 62.1309C88.5762 62.834 88.0371 63.209 87.1875 63.209C86.0625 63.209 85.3359 62.2773 85.3359 60.8242V60.8125C85.3359 59.3887 86.0508 58.4746 87.1875 58.4746C88.0957 58.4746 88.6582 58.9785 88.8164 59.5996L88.8223 59.6172H89.8359L89.8301 59.582C89.6426 58.457 88.7227 57.5723 87.1875 57.5723C85.418 57.5723 84.293 58.8496 84.293 60.8125V60.8242C84.293 62.8281 85.4238 64.1113 87.1934 64.1113ZM93.9199 64.1113C95.7188 64.1113 96.832 62.8691 96.832 60.8477V60.8359C96.832 58.8086 95.7188 57.5723 93.9199 57.5723C92.1211 57.5723 91.0078 58.8086 91.0078 60.8359V60.8477C91.0078 62.8691 92.1211 64.1113 93.9199 64.1113ZM93.9199 63.209C92.7246 63.209 92.0508 62.3359 92.0508 60.8477V60.8359C92.0508 59.3418 92.7246 58.4746 93.9199 58.4746C95.1152 58.4746 95.7891 59.3418 95.7891 60.8359V60.8477C95.7891 62.3359 95.1152 63.209 93.9199 63.209ZM98.4141 66.1094H99.4336V63.0039H99.5273C99.873 63.6777 100.629 64.1113 101.496 64.1113C103.102 64.1113 104.145 62.8281 104.145 60.8477V60.8359C104.145 58.8672 103.096 57.5723 101.496 57.5723C100.617 57.5723 99.9141 57.9883 99.5273 58.6914H99.4336V57.6836H98.4141V66.1094ZM101.262 63.209C100.113 63.209 99.4102 62.3066 99.4102 60.8477V60.8359C99.4102 59.377 100.113 58.4746 101.262 58.4746C102.416 58.4746 103.102 59.3652 103.102 60.8359V60.8477C103.102 62.3184 102.416 63.209 101.262 63.209ZM106.043 66.2148C107.162 66.2148 107.684 65.8047 108.205 64.3867L110.672 57.6836H109.6L107.871 62.8809H107.777L106.043 57.6836H104.953L107.291 64.0059L107.174 64.3809C106.945 65.1074 106.594 65.3711 106.014 65.3711C105.873 65.3711 105.715 65.3652 105.592 65.3418V66.1797C105.732 66.2031 105.908 66.2148 106.043 66.2148ZM117.99 64.1113C119.789 64.1113 120.902 62.8691 120.902 60.8477V60.8359C120.902 58.8086 119.789 57.5723 117.99 57.5723C116.191 57.5723 115.078 58.8086 115.078 60.8359V60.8477C115.078 62.8691 116.191 64.1113 117.99 64.1113ZM117.99 63.209C116.795 63.209 116.121 62.3359 116.121 60.8477V60.8359C116.121 59.3418 116.795 58.4746 117.99 58.4746C119.186 58.4746 119.859 59.3418 119.859 60.8359V60.8477C119.859 62.3359 119.186 63.209 117.99 63.209ZM122.906 64H123.926V58.5273H125.361V57.6836H123.926V57.0098C123.926 56.3184 124.219 55.9609 124.945 55.9609C125.127 55.9609 125.297 55.9668 125.42 55.9902V55.1758C125.209 55.1348 124.986 55.1172 124.74 55.1172C123.539 55.1172 122.906 55.7207 122.906 56.9805V57.6836H121.857V58.5273H122.906V64ZM131.941 64.1113C132.791 64.1113 133.453 63.7422 133.852 63.0684H133.945V64H134.965V59.6758C134.965 58.3633 134.104 57.5723 132.562 57.5723C131.215 57.5723 130.254 58.2402 130.09 59.2305L130.084 59.2656H131.104L131.109 59.248C131.273 58.7559 131.771 58.4746 132.527 58.4746C133.471 58.4746 133.945 58.8965 133.945 59.6758V60.25L132.135 60.3613C130.664 60.4492 129.832 61.0996 129.832 62.2246V62.2363C129.832 63.3848 130.74 64.1113 131.941 64.1113ZM130.875 62.2129V62.2012C130.875 61.5742 131.297 61.2344 132.258 61.1758L133.945 61.0703V61.6445C133.945 62.5469 133.189 63.2266 132.152 63.2266C131.42 63.2266 130.875 62.8516 130.875 62.2129ZM143.736 64.1992C145.535 64.1992 146.871 63.1973 147.152 61.6504V61.6387H146.086L146.074 61.6504C145.811 62.623 144.914 63.2266 143.736 63.2266C142.107 63.2266 141.088 61.8965 141.088 59.7812V59.7695C141.088 57.6543 142.107 56.3184 143.73 56.3184C144.896 56.3184 145.799 57.0039 146.08 58.0879L146.086 58.0996H147.146L147.152 58.0879C146.9 56.4648 145.512 55.3457 143.73 55.3457C141.434 55.3457 140.004 57.0449 140.004 59.7695V59.7812C140.004 62.5 141.439 64.1992 143.736 64.1992ZM151.693 64.1992C153.58 64.1992 154.816 63.2148 154.816 61.6328V61.627C154.816 60.4082 154.119 59.6992 152.355 59.3066L151.418 59.0957C150.27 58.8438 149.807 58.3867 149.807 57.7129V57.707C149.807 56.8223 150.621 56.3242 151.676 56.3184C152.777 56.3125 153.48 56.8633 153.598 57.6074L153.609 57.6836H154.664L154.658 57.6016C154.57 56.3418 153.393 55.3457 151.705 55.3457C149.959 55.3457 148.734 56.3359 148.729 57.7363V57.7422C148.729 58.9668 149.461 59.7461 151.154 60.1211L152.092 60.3262C153.252 60.584 153.738 61.0645 153.738 61.7676V61.7734C153.738 62.6348 152.9 63.2266 151.752 63.2266C150.533 63.2266 149.654 62.6934 149.578 61.8496L149.572 61.7852H148.518L148.523 61.8496C148.646 63.2266 149.842 64.1992 151.693 64.1992ZM158.9 64H159.943L163.061 55.5449H161.953L159.469 62.6348H159.375L156.891 55.5449H155.783L158.9 64ZM168.211 64H169.23V58.5273H170.666V57.6836H169.23V57.0098C169.23 56.3184 169.523 55.9609 170.25 55.9609C170.432 55.9609 170.602 55.9668 170.725 55.9902V55.1758C170.514 55.1348 170.291 55.1172 170.045 55.1172C168.844 55.1172 168.211 55.7207 168.211 56.9805V57.6836H167.162V58.5273H168.211V64ZM172.676 56.4648C173.062 56.4648 173.379 56.1484 173.379 55.7617C173.379 55.375 173.062 55.0586 172.676 55.0586C172.289 55.0586 171.973 55.375 171.973 55.7617C171.973 56.1484 172.289 56.4648 172.676 56.4648ZM172.16 64H173.18V57.6836H172.16V64ZM175.16 64H176.18V55.1758H175.16V64ZM180.715 64.1113C182.203 64.1113 183.105 63.2676 183.322 62.4121L183.334 62.3652H182.314L182.291 62.418C182.121 62.7988 181.594 63.2031 180.738 63.2031C179.613 63.2031 178.893 62.4414 178.863 61.1348H183.41V60.7363C183.41 58.8496 182.367 57.5723 180.65 57.5723C178.934 57.5723 177.82 58.9082 177.82 60.8594V60.8652C177.82 62.8457 178.91 64.1113 180.715 64.1113ZM180.645 58.4805C181.576 58.4805 182.268 59.0723 182.373 60.3203H178.881C178.992 59.1191 179.707 58.4805 180.645 58.4805ZM33.1934 80.0469C33.3926 80.0469 33.5859 80.0234 33.7852 79.9883V79.1211C33.5977 79.1387 33.498 79.1445 33.3164 79.1445C32.6602 79.1445 32.4023 78.8457 32.4023 78.1016V74.5273H33.7852V73.6836H32.4023V72.0488H31.3477V73.6836H30.3516V74.5273H31.3477V78.3594C31.3477 79.5664 31.8926 80.0469 33.1934 80.0469ZM35.3672 80H36.3867V76.2617C36.3867 75.1543 37.0254 74.4746 38.0332 74.4746C39.041 74.4746 39.5098 75.0195 39.5098 76.1562V80H40.5293V75.9102C40.5293 74.4102 39.7383 73.5723 38.3203 73.5723C37.3887 73.5723 36.7969 73.9648 36.4805 74.6328H36.3867V71.1758H35.3672V80ZM44.1094 80.1113C44.959 80.1113 45.6211 79.7422 46.0195 79.0684H46.1133V80H47.1328V75.6758C47.1328 74.3633 46.2715 73.5723 44.7305 73.5723C43.3828 73.5723 42.4219 74.2402 42.2578 75.2305L42.252 75.2656H43.2715L43.2773 75.248C43.4414 74.7559 43.9395 74.4746 44.6953 74.4746C45.6387 74.4746 46.1133 74.8965 46.1133 75.6758V76.25L44.3027 76.3613C42.832 76.4492 42 77.0996 42 78.2246V78.2363C42 79.3848 42.9082 80.1113 44.1094 80.1113ZM43.043 78.2129V78.2012C43.043 77.5742 43.4648 77.2344 44.4258 77.1758L46.1133 77.0703V77.6445C46.1133 78.5469 45.3574 79.2266 44.3203 79.2266C43.5879 79.2266 43.043 78.8516 43.043 78.2129ZM51.2402 80.0469C51.4395 80.0469 51.6328 80.0234 51.832 79.9883V79.1211C51.6445 79.1387 51.5449 79.1445 51.3633 79.1445C50.707 79.1445 50.4492 78.8457 50.4492 78.1016V74.5273H51.832V73.6836H50.4492V72.0488H49.3945V73.6836H48.3984V74.5273H49.3945V78.3594C49.3945 79.5664 49.9395 80.0469 51.2402 80.0469ZM59.3145 80.1113C60.832 80.1113 61.6816 79.2969 61.9395 78.1543L61.9512 78.0898L60.9434 78.0957L60.9316 78.1309C60.6973 78.834 60.1582 79.209 59.3086 79.209C58.1836 79.209 57.457 78.2773 57.457 76.8242V76.8125C57.457 75.3887 58.1719 74.4746 59.3086 74.4746C60.2168 74.4746 60.7793 74.9785 60.9375 75.5996L60.9434 75.6172H61.957L61.9512 75.582C61.7637 74.457 60.8438 73.5723 59.3086 73.5723C57.5391 73.5723 56.4141 74.8496 56.4141 76.8125V76.8242C56.4141 78.8281 57.5449 80.1113 59.3145 80.1113ZM66.041 80.1113C67.8398 80.1113 68.9531 78.8691 68.9531 76.8477V76.8359C68.9531 74.8086 67.8398 73.5723 66.041 73.5723C64.2422 73.5723 63.1289 74.8086 63.1289 76.8359V76.8477C63.1289 78.8691 64.2422 80.1113 66.041 80.1113ZM66.041 79.209C64.8457 79.209 64.1719 78.3359 64.1719 76.8477V76.8359C64.1719 75.3418 64.8457 74.4746 66.041 74.4746C67.2363 74.4746 67.9102 75.3418 67.9102 76.8359V76.8477C67.9102 78.3359 67.2363 79.209 66.041 79.209ZM70.5352 80H71.5547V76.2617C71.5547 75.1543 72.1934 74.4746 73.2012 74.4746C74.209 74.4746 74.6777 75.0195 74.6777 76.1562V80H75.6973V75.9102C75.6973 74.4102 74.9062 73.5723 73.4883 73.5723C72.5566 73.5723 71.9648 73.9648 71.6484 74.6328H71.5547V73.6836H70.5352V80ZM79.7871 80.0469C79.9863 80.0469 80.1797 80.0234 80.3789 79.9883V79.1211C80.1914 79.1387 80.0918 79.1445 79.9102 79.1445C79.2539 79.1445 78.9961 78.8457 78.9961 78.1016V74.5273H80.3789V73.6836H78.9961V72.0488H77.9414V73.6836H76.9453V74.5273H77.9414V78.3594C77.9414 79.5664 78.4863 80.0469 79.7871 80.0469ZM83.6367 80.1113C84.4863 80.1113 85.1484 79.7422 85.5469 79.0684H85.6406V80H86.6602V75.6758C86.6602 74.3633 85.7988 73.5723 84.2578 73.5723C82.9102 73.5723 81.9492 74.2402 81.7852 75.2305L81.7793 75.2656H82.7988L82.8047 75.248C82.9688 74.7559 83.4668 74.4746 84.2227 74.4746C85.166 74.4746 85.6406 74.8965 85.6406 75.6758V76.25L83.8301 76.3613C82.3594 76.4492 81.5273 77.0996 81.5273 78.2246V78.2363C81.5273 79.3848 82.4355 80.1113 83.6367 80.1113ZM82.5703 78.2129V78.2012C82.5703 77.5742 82.9922 77.2344 83.9531 77.1758L85.6406 77.0703V77.6445C85.6406 78.5469 84.8848 79.2266 83.8477 79.2266C83.1152 79.2266 82.5703 78.8516 82.5703 78.2129ZM89.0625 72.4648C89.4492 72.4648 89.7656 72.1484 89.7656 71.7617C89.7656 71.375 89.4492 71.0586 89.0625 71.0586C88.6758 71.0586 88.3594 71.375 88.3594 71.7617C88.3594 72.1484 88.6758 72.4648 89.0625 72.4648ZM88.5469 80H89.5664V73.6836H88.5469V80ZM91.4883 80H92.5078V76.2617C92.5078 75.1543 93.1465 74.4746 94.1543 74.4746C95.1621 74.4746 95.6309 75.0195 95.6309 76.1562V80H96.6504V75.9102C96.6504 74.4102 95.8594 73.5723 94.4414 73.5723C93.5098 73.5723 92.918 73.9648 92.6016 74.6328H92.5078V73.6836H91.4883V80ZM100.664 80.1113C102.1 80.1113 103.195 79.332 103.195 78.207V78.1953C103.195 77.293 102.621 76.7773 101.432 76.4902L100.459 76.2559C99.7148 76.0742 99.3984 75.8047 99.3984 75.377V75.3652C99.3984 74.8086 99.9492 74.4219 100.699 74.4219C101.461 74.4219 101.953 74.7676 102.088 75.2656H103.09C102.949 74.2344 102.029 73.5723 100.705 73.5723C99.3633 73.5723 98.3555 74.3633 98.3555 75.4121V75.418C98.3555 76.3262 98.8887 76.8418 100.072 77.123L101.051 77.3574C101.83 77.5449 102.152 77.8438 102.152 78.2715V78.2832C102.152 78.8574 101.549 79.2617 100.699 79.2617C99.8906 79.2617 99.3867 78.916 99.2168 78.3887H98.1738C98.291 79.4316 99.2578 80.1113 100.664 80.1113ZM110.268 80.1113C111.193 80.1113 111.832 79.7305 112.143 79.0566H112.236V80H113.256V73.6836H112.236V77.4219C112.236 78.5293 111.645 79.209 110.531 79.209C109.523 79.209 109.113 78.6641 109.113 77.5273V73.6836H108.094V77.7734C108.094 79.2676 108.832 80.1113 110.268 80.1113ZM117.328 80.1113C118.764 80.1113 119.859 79.332 119.859 78.207V78.1953C119.859 77.293 119.285 76.7773 118.096 76.4902L117.123 76.2559C116.379 76.0742 116.062 75.8047 116.062 75.377V75.3652C116.062 74.8086 116.613 74.4219 117.363 74.4219C118.125 74.4219 118.617 74.7676 118.752 75.2656H119.754C119.613 74.2344 118.693 73.5723 117.369 73.5723C116.027 73.5723 115.02 74.3633 115.02 75.4121V75.418C115.02 76.3262 115.553 76.8418 116.736 77.123L117.715 77.3574C118.494 77.5449 118.816 77.8438 118.816 78.2715V78.2832C118.816 78.8574 118.213 79.2617 117.363 79.2617C116.555 79.2617 116.051 78.916 115.881 78.3887H114.838C114.955 79.4316 115.922 80.1113 117.328 80.1113ZM124.02 80.1113C125.508 80.1113 126.41 79.2676 126.627 78.4121L126.639 78.3652H125.619L125.596 78.418C125.426 78.7988 124.898 79.2031 124.043 79.2031C122.918 79.2031 122.197 78.4414 122.168 77.1348H126.715V76.7363C126.715 74.8496 125.672 73.5723 123.955 73.5723C122.238 73.5723 121.125 74.9082 121.125 76.8594V76.8652C121.125 78.8457 122.215 80.1113 124.02 80.1113ZM123.949 74.4805C124.881 74.4805 125.572 75.0723 125.678 76.3203H122.186C122.297 75.1191 123.012 74.4805 123.949 74.4805ZM128.297 80H129.316V76.0859C129.316 75.1602 130.008 74.5449 130.98 74.5449C131.203 74.5449 131.396 74.5684 131.607 74.6035V73.6133C131.508 73.5957 131.291 73.5723 131.098 73.5723C130.242 73.5723 129.65 73.959 129.41 74.6211H129.316V73.6836H128.297V80ZM138.574 80.1113C139.453 80.1113 140.156 79.6953 140.543 78.9922H140.637V80H141.656V71.1758H140.637V74.6797H140.543C140.197 74.0059 139.441 73.5723 138.574 73.5723C136.969 73.5723 135.926 74.8555 135.926 76.8359V76.8477C135.926 78.8164 136.975 80.1113 138.574 80.1113ZM138.809 79.209C137.654 79.209 136.969 78.3184 136.969 76.8477V76.8359C136.969 75.3652 137.654 74.4746 138.809 74.4746C139.957 74.4746 140.66 75.377 140.66 76.8359V76.8477C140.66 78.3066 139.957 79.209 138.809 79.209ZM145.348 80.1113C146.197 80.1113 146.859 79.7422 147.258 79.0684H147.352V80H148.371V75.6758C148.371 74.3633 147.51 73.5723 145.969 73.5723C144.621 73.5723 143.66 74.2402 143.496 75.2305L143.49 75.2656H144.51L144.516 75.248C144.68 74.7559 145.178 74.4746 145.934 74.4746C146.877 74.4746 147.352 74.8965 147.352 75.6758V76.25L145.541 76.3613C144.07 76.4492 143.238 77.0996 143.238 78.2246V78.2363C143.238 79.3848 144.146 80.1113 145.348 80.1113ZM144.281 78.2129V78.2012C144.281 77.5742 144.703 77.2344 145.664 77.1758L147.352 77.0703V77.6445C147.352 78.5469 146.596 79.2266 145.559 79.2266C144.826 79.2266 144.281 78.8516 144.281 78.2129ZM152.479 80.0469C152.678 80.0469 152.871 80.0234 153.07 79.9883V79.1211C152.883 79.1387 152.783 79.1445 152.602 79.1445C151.945 79.1445 151.688 78.8457 151.688 78.1016V74.5273H153.07V73.6836H151.688V72.0488H150.633V73.6836H149.637V74.5273H150.633V78.3594C150.633 79.5664 151.178 80.0469 152.479 80.0469ZM156.328 80.1113C157.178 80.1113 157.84 79.7422 158.238 79.0684H158.332V80H159.352V75.6758C159.352 74.3633 158.49 73.5723 156.949 73.5723C155.602 73.5723 154.641 74.2402 154.477 75.2305L154.471 75.2656H155.49L155.496 75.248C155.66 74.7559 156.158 74.4746 156.914 74.4746C157.857 74.4746 158.332 74.8965 158.332 75.6758V76.25L156.521 76.3613C155.051 76.4492 154.219 77.0996 154.219 78.2246V78.2363C154.219 79.3848 155.127 80.1113 156.328 80.1113ZM155.262 78.2129V78.2012C155.262 77.5742 155.684 77.2344 156.645 77.1758L158.332 77.0703V77.6445C158.332 78.5469 157.576 79.2266 156.539 79.2266C155.807 79.2266 155.262 78.8516 155.262 78.2129Z" fill="#737577"/>
</svg>
