<svg width="216" height="101" viewBox="0 0 216 101" fill="none" xmlns="http://www.w3.org/2000/svg">
<rect x="0.5" y="0.5" width="215" height="100" rx="2.5" fill="white" stroke="#EBEBEB"/>
<path d="M0 3C0 1.34315 1.34315 0 3 0H213C214.657 0 216 1.34315 216 3V5H0V3Z" fill="#DB5860"/>
<path d="M15.0021 11C11.7664 10.999 8.8488 12.9473 7.60986 15.9364C6.37093 18.9255 7.0547 22.3665 9.3423 24.6548C11.6299 26.9431 15.0707 27.628 18.0602 26.39C21.0496 25.152 22.9989 22.235 22.9989 18.9993C22.9996 14.5821 19.4193 11.0007 15.0021 11ZM18.8052 21.5299L17.5317 22.8034L15.0019 20.2736L12.4722 22.8034L11.1987 21.5299L13.7285 19.0001L11.1987 16.4703L12.4722 15.1969L15.0019 17.7267L17.5317 15.1969L18.8052 16.4703L16.2754 19.0001L18.8052 21.5299Z" fill="#DB5860"/>
<rect x="27.5" y="40.5" width="161" height="23" rx="2.5" fill="white" stroke="#B8D1E5"/>
<path d="M45.6289 56H46.7363L47.5859 53.5801H50.9492L51.7988 56H52.9062L49.7891 47.5449H48.7461L45.6289 56ZM49.2207 48.9102H49.3145L50.6387 52.6836H47.8965L49.2207 48.9102ZM56.2402 56.1113C57.1191 56.1113 57.8223 55.6953 58.209 54.9922H58.3027V56H59.3223V47.1758H58.3027V50.6797H58.209C57.8633 50.0059 57.1074 49.5723 56.2402 49.5723C54.6348 49.5723 53.5918 50.8555 53.5918 52.8359V52.8477C53.5918 54.8164 54.6406 56.1113 56.2402 56.1113ZM56.4746 55.209C55.3203 55.209 54.6348 54.3184 54.6348 52.8477V52.8359C54.6348 51.3652 55.3203 50.4746 56.4746 50.4746C57.623 50.4746 58.3262 51.377 58.3262 52.8359V52.8477C58.3262 54.3066 57.623 55.209 56.4746 55.209ZM63.6113 56.1113C64.4902 56.1113 65.1934 55.6953 65.5801 54.9922H65.6738V56H66.6934V47.1758H65.6738V50.6797H65.5801C65.2344 50.0059 64.4785 49.5723 63.6113 49.5723C62.0059 49.5723 60.9629 50.8555 60.9629 52.8359V52.8477C60.9629 54.8164 62.0117 56.1113 63.6113 56.1113ZM63.8457 55.209C62.6914 55.209 62.0059 54.3184 62.0059 52.8477V52.8359C62.0059 51.3652 62.6914 50.4746 63.8457 50.4746C64.9941 50.4746 65.6973 51.377 65.6973 52.8359V52.8477C65.6973 54.3066 64.9941 55.209 63.8457 55.209ZM72.4473 56H73.4668V50.5273H74.9023V49.6836H73.4668V49.0098C73.4668 48.3184 73.7598 47.9609 74.4863 47.9609C74.668 47.9609 74.8379 47.9668 74.9609 47.9902V47.1758C74.75 47.1348 74.5273 47.1172 74.2812 47.1172C73.0801 47.1172 72.4473 47.7207 72.4473 48.9805V49.6836H71.3984V50.5273H72.4473V56ZM76.9121 48.4648C77.2988 48.4648 77.6152 48.1484 77.6152 47.7617C77.6152 47.375 77.2988 47.0586 76.9121 47.0586C76.5254 47.0586 76.209 47.375 76.209 47.7617C76.209 48.1484 76.5254 48.4648 76.9121 48.4648ZM76.3965 56H77.416V49.6836H76.3965V56ZM79.3965 56H80.416V47.1758H79.3965V56ZM84.9512 56.1113C86.4395 56.1113 87.3418 55.2676 87.5586 54.4121L87.5703 54.3652H86.5508L86.5273 54.418C86.3574 54.7988 85.8301 55.2031 84.9746 55.2031C83.8496 55.2031 83.1289 54.4414 83.0996 53.1348H87.6465V52.7363C87.6465 50.8496 86.6035 49.5723 84.8867 49.5723C83.1699 49.5723 82.0566 50.9082 82.0566 52.8594V52.8652C82.0566 54.8457 83.1465 56.1113 84.9512 56.1113ZM84.8809 50.4805C85.8125 50.4805 86.5039 51.0723 86.6094 52.3203H83.1172C83.2285 51.1191 83.9434 50.4805 84.8809 50.4805ZM93.8223 56H94.8418L96.248 51.1133H96.3418L97.7539 56H98.7793L100.549 49.6836H99.5352L98.293 54.7344H98.1992L96.7871 49.6836H95.8203L94.4082 54.7344H94.3145L93.0723 49.6836H92.0527L93.8223 56ZM102.436 48.4648C102.822 48.4648 103.139 48.1484 103.139 47.7617C103.139 47.375 102.822 47.0586 102.436 47.0586C102.049 47.0586 101.732 47.375 101.732 47.7617C101.732 48.1484 102.049 48.4648 102.436 48.4648ZM101.92 56H102.939V49.6836H101.92V56ZM107.105 56.0469C107.305 56.0469 107.498 56.0234 107.697 55.9883V55.1211C107.51 55.1387 107.41 55.1445 107.229 55.1445C106.572 55.1445 106.314 54.8457 106.314 54.1016V50.5273H107.697V49.6836H106.314V48.0488H105.26V49.6836H104.264V50.5273H105.26V54.3594C105.26 55.5664 105.805 56.0469 107.105 56.0469ZM109.279 56H110.299V52.2617C110.299 51.1543 110.938 50.4746 111.945 50.4746C112.953 50.4746 113.422 51.0195 113.422 52.1562V56H114.441V51.9102C114.441 50.4102 113.65 49.5723 112.232 49.5723C111.301 49.5723 110.709 49.9648 110.393 50.6328H110.299V47.1758H109.279V56ZM121.777 56.1113C122.703 56.1113 123.342 55.7305 123.652 55.0566H123.746V56H124.766V49.6836H123.746V53.4219C123.746 54.5293 123.154 55.209 122.041 55.209C121.033 55.209 120.623 54.6641 120.623 53.5273V49.6836H119.604V53.7734C119.604 55.2676 120.342 56.1113 121.777 56.1113ZM128.838 56.1113C130.273 56.1113 131.369 55.332 131.369 54.207V54.1953C131.369 53.293 130.795 52.7773 129.605 52.4902L128.633 52.2559C127.889 52.0742 127.572 51.8047 127.572 51.377V51.3652C127.572 50.8086 128.123 50.4219 128.873 50.4219C129.635 50.4219 130.127 50.7676 130.262 51.2656H131.264C131.123 50.2344 130.203 49.5723 128.879 49.5723C127.537 49.5723 126.529 50.3633 126.529 51.4121V51.418C126.529 52.3262 127.062 52.8418 128.246 53.123L129.225 53.3574C130.004 53.5449 130.326 53.8438 130.326 54.2715V54.2832C130.326 54.8574 129.723 55.2617 128.873 55.2617C128.064 55.2617 127.561 54.916 127.391 54.3887H126.348C126.465 55.4316 127.432 56.1113 128.838 56.1113ZM135.529 56.1113C137.018 56.1113 137.92 55.2676 138.137 54.4121L138.148 54.3652H137.129L137.105 54.418C136.936 54.7988 136.408 55.2031 135.553 55.2031C134.428 55.2031 133.707 54.4414 133.678 53.1348H138.225V52.7363C138.225 50.8496 137.182 49.5723 135.465 49.5723C133.748 49.5723 132.635 50.9082 132.635 52.8594V52.8652C132.635 54.8457 133.725 56.1113 135.529 56.1113ZM135.459 50.4805C136.391 50.4805 137.082 51.0723 137.188 52.3203H133.695C133.807 51.1191 134.521 50.4805 135.459 50.4805ZM139.807 56H140.826V52.0859C140.826 51.1602 141.518 50.5449 142.49 50.5449C142.713 50.5449 142.906 50.5684 143.117 50.6035V49.6133C143.018 49.5957 142.801 49.5723 142.607 49.5723C141.752 49.5723 141.16 49.959 140.92 50.6211H140.826V49.6836H139.807V56ZM150.084 56.1113C150.963 56.1113 151.666 55.6953 152.053 54.9922H152.146V56H153.166V47.1758H152.146V50.6797H152.053C151.707 50.0059 150.951 49.5723 150.084 49.5723C148.479 49.5723 147.436 50.8555 147.436 52.8359V52.8477C147.436 54.8164 148.484 56.1113 150.084 56.1113ZM150.318 55.209C149.164 55.209 148.479 54.3184 148.479 52.8477V52.8359C148.479 51.3652 149.164 50.4746 150.318 50.4746C151.467 50.4746 152.17 51.377 152.17 52.8359V52.8477C152.17 54.3066 151.467 55.209 150.318 55.209ZM156.857 56.1113C157.707 56.1113 158.369 55.7422 158.768 55.0684H158.861V56H159.881V51.6758C159.881 50.3633 159.02 49.5723 157.479 49.5723C156.131 49.5723 155.17 50.2402 155.006 51.2305L155 51.2656H156.02L156.025 51.248C156.189 50.7559 156.688 50.4746 157.443 50.4746C158.387 50.4746 158.861 50.8965 158.861 51.6758V52.25L157.051 52.3613C155.58 52.4492 154.748 53.0996 154.748 54.2246V54.2363C154.748 55.3848 155.656 56.1113 156.857 56.1113ZM155.791 54.2129V54.2012C155.791 53.5742 156.213 53.2344 157.174 53.1758L158.861 53.0703V53.6445C158.861 54.5469 158.105 55.2266 157.068 55.2266C156.336 55.2266 155.791 54.8516 155.791 54.2129ZM163.988 56.0469C164.188 56.0469 164.381 56.0234 164.58 55.9883V55.1211C164.393 55.1387 164.293 55.1445 164.111 55.1445C163.455 55.1445 163.197 54.8457 163.197 54.1016V50.5273H164.58V49.6836H163.197V48.0488H162.143V49.6836H161.146V50.5273H162.143V54.3594C162.143 55.5664 162.688 56.0469 163.988 56.0469ZM167.838 56.1113C168.688 56.1113 169.35 55.7422 169.748 55.0684H169.842V56H170.861V51.6758C170.861 50.3633 170 49.5723 168.459 49.5723C167.111 49.5723 166.15 50.2402 165.986 51.2305L165.98 51.2656H167L167.006 51.248C167.17 50.7559 167.668 50.4746 168.424 50.4746C169.367 50.4746 169.842 50.8965 169.842 51.6758V52.25L168.031 52.3613C166.561 52.4492 165.729 53.0996 165.729 54.2246V54.2363C165.729 55.3848 166.637 56.1113 167.838 56.1113ZM166.771 54.2129V54.2012C166.771 53.5742 167.193 53.2344 168.154 53.1758L169.842 53.0703V53.6445C169.842 54.5469 169.086 55.2266 168.049 55.2266C167.316 55.2266 166.771 54.8516 166.771 54.2129Z" fill="#1F2326"/>
</svg>
