<svg width="320" height="188" viewBox="0 0 320 188" fill="none" xmlns="http://www.w3.org/2000/svg">
<rect x="0.5" y="0.5" width="319" height="187" rx="2.5" fill="white" stroke="#DFE5EB"/>
<path d="M1 3C1 1.89543 1.89543 1 3 1H317C318.105 1 319 1.89543 319 3V5H1V3Z" fill="#B8D1E5"/>
<rect x="116.5" y="79.5" width="13" height="13" rx="1.5" fill="#D4EDFF" stroke="#80C6FF"/>
<path d="M118 85.175L122.655 90L131.983 76.863L130.95 76L122.554 87.816L118.846 84.08L118 85.175Z" fill="#1A1918"/>
<rect x="116.5" y="102.5" width="13" height="13" rx="1.5" fill="#D4EDFF" stroke="#80C6FF"/>
<path d="M118 108.175L122.655 113L131.983 99.863L130.95 99L122.554 110.816L118.846 107.08L118 108.175Z" fill="#1A1918"/>
<path d="M139.168 89H140.311V79.8403H139.168V89ZM142.507 89H143.611V84.9502C143.611 83.7505 144.303 83.0142 145.395 83.0142C146.487 83.0142 146.995 83.6045 146.995 84.8359V89H148.099V84.5693C148.099 82.9443 147.242 82.0366 145.706 82.0366C144.697 82.0366 144.056 82.4619 143.713 83.1855H143.611V82.1572H142.507V89ZM152.53 89.0508C152.746 89.0508 152.955 89.0254 153.171 88.9873V88.0479C152.968 88.0669 152.86 88.0732 152.663 88.0732C151.952 88.0732 151.673 87.7495 151.673 86.9434V83.0713H153.171V82.1572H151.673V80.3862H150.53V82.1572H149.451V83.0713H150.53V87.2227C150.53 88.5303 151.121 89.0508 152.53 89.0508ZM157.513 89.1206C159.125 89.1206 160.103 88.2065 160.337 87.2798L160.35 87.229H159.246L159.22 87.2861C159.036 87.6987 158.465 88.1367 157.538 88.1367C156.319 88.1367 155.539 87.3115 155.507 85.896H160.433V85.4644C160.433 83.4204 159.303 82.0366 157.443 82.0366C155.583 82.0366 154.377 83.4839 154.377 85.5977V85.604C154.377 87.7495 155.558 89.1206 157.513 89.1206ZM157.437 83.0205C158.446 83.0205 159.195 83.6616 159.309 85.0137H155.526C155.646 83.7124 156.421 83.0205 157.437 83.0205ZM162.21 89H163.314V79.4404H162.21V89ZM165.498 89H166.603V79.4404H165.498V89ZM169.307 80.8369C169.726 80.8369 170.068 80.4941 170.068 80.0752C170.068 79.6562 169.726 79.3135 169.307 79.3135C168.888 79.3135 168.545 79.6562 168.545 80.0752C168.545 80.4941 168.888 80.8369 169.307 80.8369ZM168.748 89H169.853V82.1572H168.748V89ZM174.036 89.2158C175.73 89.2158 176.733 88.1875 176.733 86.4546V79.8403H175.591V86.4419C175.591 87.5591 175.045 88.1621 174.029 88.1621C173.122 88.1621 172.671 87.5845 172.601 86.8926L172.595 86.8291H171.452L171.458 86.918C171.554 88.2319 172.449 89.2158 174.036 89.2158Z" fill="#1F2326"/>
<rect x="116.5" y="127.5" width="13" height="13" rx="1.5" stroke="#80C6FF"/>
<path d="M141.066 113H142.145L144.252 105.77H144.329L146.436 113H147.515L150.01 103.84H148.816L146.995 111.286H146.918L144.868 103.84H143.713L141.663 111.286H141.586L139.765 103.84H138.571L141.066 113ZM153.768 113.121C155.38 113.121 156.357 112.207 156.592 111.28L156.605 111.229H155.5L155.475 111.286C155.291 111.699 154.72 112.137 153.793 112.137C152.574 112.137 151.793 111.312 151.762 109.896H156.688V109.464C156.688 107.42 155.558 106.037 153.698 106.037C151.838 106.037 150.632 107.484 150.632 109.598V109.604C150.632 111.75 151.812 113.121 153.768 113.121ZM153.691 107.021C154.701 107.021 155.45 107.662 155.564 109.014H151.781C151.901 107.712 152.676 107.021 153.691 107.021ZM161.804 113.121C163.537 113.121 164.673 111.718 164.673 109.585V109.572C164.673 107.427 163.543 106.037 161.804 106.037C160.864 106.037 160.045 106.506 159.671 107.236H159.569V103.44H158.465V113H159.569V111.908H159.671C160.09 112.67 160.852 113.121 161.804 113.121ZM161.55 112.143C160.306 112.143 159.544 111.166 159.544 109.585V109.572C159.544 107.992 160.306 107.014 161.55 107.014C162.8 107.014 163.543 107.979 163.543 109.572V109.585C163.543 111.178 162.8 112.143 161.55 112.143ZM169.529 113.216C171.573 113.216 172.912 112.149 172.912 110.436V110.429C172.912 109.109 172.157 108.341 170.246 107.916L169.23 107.687C167.986 107.414 167.485 106.919 167.485 106.189V106.183C167.485 105.224 168.367 104.685 169.51 104.678C170.703 104.672 171.465 105.269 171.592 106.075L171.604 106.157H172.747L172.741 106.068C172.646 104.704 171.37 103.625 169.542 103.625C167.65 103.625 166.323 104.697 166.317 106.214V106.221C166.317 107.547 167.11 108.392 168.945 108.798L169.96 109.02C171.217 109.299 171.744 109.82 171.744 110.582V110.588C171.744 111.521 170.836 112.162 169.592 112.162C168.272 112.162 167.32 111.584 167.237 110.67L167.231 110.601H166.088L166.095 110.67C166.228 112.162 167.523 113.216 169.529 113.216ZM177.108 113.051C177.324 113.051 177.533 113.025 177.749 112.987V112.048C177.546 112.067 177.438 112.073 177.241 112.073C176.53 112.073 176.251 111.75 176.251 110.943V107.071H177.749V106.157H176.251V104.386H175.108V106.157H174.029V107.071H175.108V111.223C175.108 112.53 175.699 113.051 177.108 113.051ZM182.11 113.121C184.059 113.121 185.265 111.775 185.265 109.585V109.572C185.265 107.376 184.059 106.037 182.11 106.037C180.161 106.037 178.955 107.376 178.955 109.572V109.585C178.955 111.775 180.161 113.121 182.11 113.121ZM182.11 112.143C180.815 112.143 180.085 111.197 180.085 109.585V109.572C180.085 107.954 180.815 107.014 182.11 107.014C183.405 107.014 184.135 107.954 184.135 109.572V109.585C184.135 111.197 183.405 112.143 182.11 112.143ZM186.979 113H188.083V108.76C188.083 107.757 188.832 107.09 189.886 107.09C190.127 107.09 190.336 107.116 190.565 107.154V106.081C190.457 106.062 190.222 106.037 190.013 106.037C189.086 106.037 188.445 106.456 188.185 107.173H188.083V106.157H186.979V113ZM192.057 113H193.161V108.76C193.161 107.795 193.84 107.014 194.735 107.014C195.599 107.014 196.157 107.541 196.157 108.354V113H197.262V108.601C197.262 107.731 197.89 107.014 198.842 107.014C199.807 107.014 200.271 107.516 200.271 108.525V113H201.375V108.271C201.375 106.836 200.594 106.037 199.198 106.037C198.252 106.037 197.471 106.513 197.103 107.236H197.001C196.684 106.525 196.037 106.037 195.11 106.037C194.215 106.037 193.567 106.462 193.263 107.198H193.161V106.157H192.057V113Z" fill="#1F2326"/>
<path d="M142.17 137.216C144.214 137.216 145.554 136.149 145.554 134.436V134.429C145.554 133.109 144.798 132.341 142.888 131.916L141.872 131.687C140.628 131.414 140.126 130.919 140.126 130.189V130.183C140.126 129.224 141.009 128.685 142.151 128.678C143.345 128.672 144.106 129.269 144.233 130.075L144.246 130.157H145.389L145.382 130.068C145.287 128.704 144.011 127.625 142.183 127.625C140.292 127.625 138.965 128.697 138.958 130.214V130.221C138.958 131.547 139.752 132.392 141.586 132.798L142.602 133.02C143.859 133.299 144.386 133.82 144.386 134.582V134.588C144.386 135.521 143.478 136.162 142.234 136.162C140.914 136.162 139.961 135.584 139.879 134.67L139.873 134.601H138.73L138.736 134.67C138.87 136.162 140.165 137.216 142.17 137.216ZM147.318 139.285H148.423V135.921H148.524C148.899 136.651 149.718 137.121 150.657 137.121C152.396 137.121 153.526 135.73 153.526 133.585V133.572C153.526 131.439 152.39 130.037 150.657 130.037C149.705 130.037 148.943 130.487 148.524 131.249H148.423V130.157H147.318V139.285ZM150.403 136.143C149.159 136.143 148.397 135.166 148.397 133.585V133.572C148.397 131.992 149.159 131.014 150.403 131.014C151.654 131.014 152.396 131.979 152.396 133.572V133.585C152.396 135.178 151.654 136.143 150.403 136.143ZM157.132 137.121C158.052 137.121 158.77 136.721 159.201 135.991H159.303V137H160.407V132.315C160.407 130.894 159.474 130.037 157.805 130.037C156.345 130.037 155.304 130.76 155.126 131.833L155.12 131.871H156.224L156.23 131.852C156.408 131.319 156.948 131.014 157.767 131.014C158.789 131.014 159.303 131.471 159.303 132.315V132.938L157.341 133.058C155.748 133.153 154.847 133.858 154.847 135.077V135.089C154.847 136.333 155.831 137.121 157.132 137.121ZM155.977 135.064V135.051C155.977 134.372 156.434 134.004 157.475 133.94L159.303 133.826V134.448C159.303 135.426 158.484 136.162 157.36 136.162C156.567 136.162 155.977 135.756 155.977 135.064ZM165.225 137.121C166.869 137.121 167.79 136.238 168.069 135L168.082 134.931L166.99 134.937L166.977 134.975C166.723 135.737 166.139 136.143 165.219 136.143C164 136.143 163.213 135.134 163.213 133.56V133.547C163.213 132.004 163.987 131.014 165.219 131.014C166.203 131.014 166.812 131.56 166.983 132.233L166.99 132.252H168.088L168.082 132.214C167.878 130.995 166.882 130.037 165.219 130.037C163.302 130.037 162.083 131.42 162.083 133.547V133.56C162.083 135.73 163.308 137.121 165.225 137.121ZM172.493 137.121C174.105 137.121 175.083 136.207 175.318 135.28L175.331 135.229H174.226L174.201 135.286C174.017 135.699 173.445 136.137 172.519 136.137C171.3 136.137 170.519 135.312 170.487 133.896H175.413V133.464C175.413 131.42 174.283 130.037 172.423 130.037C170.563 130.037 169.357 131.484 169.357 133.598V133.604C169.357 135.75 170.538 137.121 172.493 137.121ZM172.417 131.021C173.426 131.021 174.175 131.662 174.29 133.014H170.506C170.627 131.712 171.401 131.021 172.417 131.021Z" fill="#1F2326"/>
<path d="M117.168 65H118.311V61.731H120.621C122.341 61.731 123.56 60.5186 123.56 58.7793V58.7666C123.56 57.0273 122.341 55.8403 120.621 55.8403H117.168V65ZM120.329 56.856C121.637 56.856 122.392 57.5732 122.392 58.7793V58.792C122.392 59.998 121.637 60.7153 120.329 60.7153H118.311V56.856H120.329ZM125.293 65H126.397V60.7598C126.397 59.7568 127.146 59.0903 128.2 59.0903C128.441 59.0903 128.651 59.1157 128.879 59.1538V58.0811C128.771 58.062 128.537 58.0366 128.327 58.0366C127.4 58.0366 126.759 58.4556 126.499 59.1729H126.397V58.1572H125.293V65ZM132.866 65.1206C134.814 65.1206 136.021 63.7749 136.021 61.585V61.5723C136.021 59.376 134.814 58.0366 132.866 58.0366C130.917 58.0366 129.711 59.376 129.711 61.5723V61.585C129.711 63.7749 130.917 65.1206 132.866 65.1206ZM132.866 64.1431C131.571 64.1431 130.841 63.1973 130.841 61.585V61.5723C130.841 59.9536 131.571 59.0142 132.866 59.0142C134.161 59.0142 134.891 59.9536 134.891 61.5723V61.585C134.891 63.1973 134.161 64.1431 132.866 64.1431ZM140.261 65.1206C141.213 65.1206 141.975 64.6699 142.394 63.9082H142.495V65H143.6V55.4404H142.495V59.2363H142.394C142.019 58.5063 141.2 58.0366 140.261 58.0366C138.521 58.0366 137.392 59.4268 137.392 61.5723V61.585C137.392 63.7178 138.528 65.1206 140.261 65.1206ZM140.515 64.1431C139.264 64.1431 138.521 63.1782 138.521 61.585V61.5723C138.521 59.979 139.264 59.0142 140.515 59.0142C141.759 59.0142 142.521 59.9917 142.521 61.5723V61.585C142.521 63.1655 141.759 64.1431 140.515 64.1431ZM148.011 65.1206C149.014 65.1206 149.706 64.708 150.042 63.978H150.144V65H151.249V58.1572H150.144V62.207C150.144 63.4067 149.503 64.1431 148.297 64.1431C147.205 64.1431 146.761 63.5527 146.761 62.3213V58.1572H145.656V62.5879C145.656 64.2065 146.456 65.1206 148.011 65.1206ZM156.111 65.1206C157.755 65.1206 158.675 64.2383 158.955 63.0005L158.967 62.9307L157.875 62.937L157.863 62.9751C157.609 63.7368 157.025 64.1431 156.104 64.1431C154.886 64.1431 154.099 63.1338 154.099 61.5596V61.5469C154.099 60.0044 154.873 59.0142 156.104 59.0142C157.088 59.0142 157.698 59.5601 157.869 60.2329L157.875 60.252H158.974L158.967 60.2139C158.764 58.9951 157.768 58.0366 156.104 58.0366C154.188 58.0366 152.969 59.4204 152.969 61.5469V61.5596C152.969 63.7305 154.194 65.1206 156.111 65.1206ZM163.144 65.0508C163.36 65.0508 163.569 65.0254 163.785 64.9873V64.0479C163.582 64.0669 163.474 64.0732 163.277 64.0732C162.566 64.0732 162.287 63.7495 162.287 62.9434V59.0713H163.785V58.1572H162.287V56.3862H161.145V58.1572H160.065V59.0713H161.145V63.2227C161.145 64.5303 161.735 65.0508 163.144 65.0508Z" fill="#1F2326"/>
</svg>
