<svg width="320" height="188" viewBox="0 0 320 188" fill="none" xmlns="http://www.w3.org/2000/svg">
<rect x="0.5" y="0.5" width="319" height="187" rx="2.5" fill="white" stroke="#DFE5EB"/>
<path d="M1 3C1 1.89543 1.89543 1 3 1H317C318.105 1 319 1.89543 319 3V5H1V3Z" fill="#B8D1E5"/>
<rect x="65.5" y="61.5" width="13.0149" height="13" rx="1.5" fill="#D4EDFF" stroke="#80C6FF"/>
<path d="M67.0021 67.175L71.6621 72L81 58.863L79.9659 58L71.561 69.816L67.849 66.08L67.0021 67.175Z" fill="#1A1918"/>
<rect x="65.5" y="120.5" width="13" height="13" rx="1.5" fill="#D4EDFF" stroke="#80C6FF"/>
<path d="M67 126.175L71.655 131L80.983 117.863L79.95 117L71.554 128.816L67.846 125.08L67 126.175Z" fill="#1A1918"/>
<rect x="65.5" y="90.5" width="13" height="13" rx="1.5" stroke="#80C6FF"/>
<path d="M100.904 72L101.385 69.6387H103.312L102.826 72H103.664L104.15 69.6387H105.68L105.844 68.7949H104.32L104.76 66.6621H106.225L106.389 65.8242H104.93L105.398 63.5449H104.561L104.092 65.8242H102.164L102.633 63.5449H101.801L101.332 65.8242H99.8789L99.709 66.6621H101.162L100.729 68.7949H99.3398L99.1758 69.6387H100.553L100.072 72H100.904ZM101.561 68.7949L101.994 66.6621H103.922L103.488 68.7949H101.561ZM110.279 72.1992C111.996 72.1992 113.221 71.0098 113.221 69.3047V69.293C113.221 67.6582 112.078 66.4688 110.49 66.4688C109.723 66.4688 109.061 66.7793 108.686 67.3477H108.592L108.879 64.4883H112.752V63.5449H108.047L107.602 68.4023H108.516C108.621 68.2031 108.756 68.0391 108.902 67.8984C109.266 67.5527 109.746 67.3828 110.309 67.3828C111.404 67.3828 112.189 68.1855 112.189 69.3105V69.3223C112.189 70.4648 111.416 71.2676 110.291 71.2676C109.301 71.2676 108.568 70.623 108.469 69.8145L108.463 69.7676H107.449L107.455 69.832C107.578 71.1855 108.703 72.1992 110.279 72.1992ZM117.908 72.1992C119.613 72.1992 120.867 70.9746 120.867 69.2871V69.2754C120.867 67.6523 119.684 66.4453 118.096 66.4453C116.953 66.4453 116.156 67.0605 115.846 67.752H115.734C115.734 67.6875 115.734 67.6172 115.74 67.5527C115.805 65.7891 116.432 64.2891 117.967 64.2891C118.822 64.2891 119.414 64.7285 119.672 65.4375L119.695 65.502H120.756L120.738 65.4258C120.451 64.1777 119.396 63.3457 117.979 63.3457C115.928 63.3457 114.727 65.0332 114.727 67.916V67.9277C114.727 71.1094 116.361 72.1992 117.908 72.1992ZM115.986 69.2754V69.2695C115.986 68.168 116.818 67.3652 117.914 67.3652C119.01 67.3652 119.807 68.1738 119.807 69.2988V69.3105C119.807 70.4062 118.957 71.2676 117.896 71.2676C116.824 71.2676 115.986 70.3887 115.986 69.2754Z" fill="#0F5B99"/>
<path d="M100.904 130L101.385 127.639H103.312L102.826 130H103.664L104.15 127.639H105.68L105.844 126.795H104.32L104.76 124.662H106.225L106.389 123.824H104.93L105.398 121.545H104.561L104.092 123.824H102.164L102.633 121.545H101.801L101.332 123.824H99.8789L99.709 124.662H101.162L100.729 126.795H99.3398L99.1758 127.639H100.553L100.072 130H100.904ZM101.561 126.795L101.994 124.662H103.922L103.488 126.795H101.561ZM110.279 130.199C111.996 130.199 113.221 129.01 113.221 127.305V127.293C113.221 125.658 112.078 124.469 110.49 124.469C109.723 124.469 109.061 124.779 108.686 125.348H108.592L108.879 122.488H112.752V121.545H108.047L107.602 126.402H108.516C108.621 126.203 108.756 126.039 108.902 125.898C109.266 125.553 109.746 125.383 110.309 125.383C111.404 125.383 112.189 126.186 112.189 127.311V127.322C112.189 128.465 111.416 129.268 110.291 129.268C109.301 129.268 108.568 128.623 108.469 127.814L108.463 127.768H107.449L107.455 127.832C107.578 129.186 108.703 130.199 110.279 130.199ZM117.809 130.141C119.602 130.141 120.879 129.133 120.879 127.715V127.703C120.879 126.66 120.146 125.793 119.062 125.541V125.518C119.988 125.23 120.574 124.527 120.574 123.637V123.625C120.574 122.348 119.408 121.404 117.809 121.404C116.209 121.404 115.043 122.348 115.043 123.625V123.637C115.043 124.527 115.629 125.23 116.555 125.518V125.541C115.471 125.793 114.738 126.66 114.738 127.703V127.715C114.738 129.133 116.016 130.141 117.809 130.141ZM117.809 125.125C116.789 125.125 116.092 124.545 116.092 123.725V123.713C116.092 122.893 116.789 122.312 117.809 122.312C118.828 122.312 119.525 122.893 119.525 123.713V123.725C119.525 124.545 118.828 125.125 117.809 125.125ZM117.809 129.221C116.643 129.221 115.811 128.564 115.811 127.65V127.639C115.811 126.713 116.637 126.051 117.809 126.051C118.98 126.051 119.807 126.713 119.807 127.639V127.65C119.807 128.564 118.975 129.221 117.809 129.221Z" fill="#0F5B99"/>
<path d="M100.904 101L101.385 98.6387H103.312L102.826 101H103.664L104.15 98.6387H105.68L105.844 97.7949H104.32L104.76 95.6621H106.225L106.389 94.8242H104.93L105.398 92.5449H104.561L104.092 94.8242H102.164L102.633 92.5449H101.801L101.332 94.8242H99.8789L99.709 95.6621H101.162L100.729 97.7949H99.3398L99.1758 98.6387H100.553L100.072 101H100.904ZM101.561 97.7949L101.994 95.6621H103.922L103.488 97.7949H101.561ZM110.279 101.199C111.996 101.199 113.221 100.01 113.221 98.3047V98.293C113.221 96.6582 112.078 95.4688 110.49 95.4688C109.723 95.4688 109.061 95.7793 108.686 96.3477H108.592L108.879 93.4883H112.752V92.5449H108.047L107.602 97.4023H108.516C108.621 97.2031 108.756 97.0391 108.902 96.8984C109.266 96.5527 109.746 96.3828 110.309 96.3828C111.404 96.3828 112.189 97.1855 112.189 98.3105V98.3223C112.189 99.4648 111.416 100.268 110.291 100.268C109.301 100.268 108.568 99.623 108.469 98.8145L108.463 98.7676H107.449L107.455 98.832C107.578 100.186 108.703 101.199 110.279 101.199ZM115.271 101H116.379L120.141 93.5234V92.5449H114.545V93.4883H119.068V93.5703L115.271 101Z" fill="#0F5B99"/>
<path d="M182.078 72H183.133V63.5449H182.078V72ZM187.404 72.0469C187.604 72.0469 187.797 72.0234 187.996 71.9883V71.1211C187.809 71.1387 187.709 71.1445 187.527 71.1445C186.871 71.1445 186.613 70.8457 186.613 70.1016V66.5273H187.996V65.6836H186.613V64.0488H185.559V65.6836H184.562V66.5273H185.559V70.3594C185.559 71.5664 186.104 72.0469 187.404 72.0469ZM192.004 72.1113C193.492 72.1113 194.395 71.2676 194.611 70.4121L194.623 70.3652H193.604L193.58 70.418C193.41 70.7988 192.883 71.2031 192.027 71.2031C190.902 71.2031 190.182 70.4414 190.152 69.1348H194.699V68.7363C194.699 66.8496 193.656 65.5723 191.939 65.5723C190.223 65.5723 189.109 66.9082 189.109 68.8594V68.8652C189.109 70.8457 190.199 72.1113 192.004 72.1113ZM191.934 66.4805C192.865 66.4805 193.557 67.0723 193.662 68.3203H190.17C190.281 67.1191 190.996 66.4805 191.934 66.4805ZM196.281 72H197.301V68.0859C197.301 67.1953 197.928 66.4746 198.754 66.4746C199.551 66.4746 200.066 66.9609 200.066 67.7109V72H201.086V67.9395C201.086 67.1367 201.666 66.4746 202.545 66.4746C203.436 66.4746 203.863 66.9375 203.863 67.8691V72H204.883V67.6348C204.883 66.3105 204.162 65.5723 202.873 65.5723C202 65.5723 201.279 66.0117 200.939 66.6797H200.846C200.553 66.0234 199.955 65.5723 199.1 65.5723C198.273 65.5723 197.676 65.9648 197.395 66.6445H197.301V65.6836H196.281V72ZM212.16 72H213.215V63.5449H212.166L209.916 65.1621V66.2754L212.066 64.7168H212.16V72Z" fill="black"/>
<path d="M182.078 101H183.133V92.5449H182.078V101ZM187.404 101.047C187.604 101.047 187.797 101.023 187.996 100.988V100.121C187.809 100.139 187.709 100.145 187.527 100.145C186.871 100.145 186.613 99.8457 186.613 99.1016V95.5273H187.996V94.6836H186.613V93.0488H185.559V94.6836H184.562V95.5273H185.559V99.3594C185.559 100.566 186.104 101.047 187.404 101.047ZM192.004 101.111C193.492 101.111 194.395 100.268 194.611 99.4121L194.623 99.3652H193.604L193.58 99.418C193.41 99.7988 192.883 100.203 192.027 100.203C190.902 100.203 190.182 99.4414 190.152 98.1348H194.699V97.7363C194.699 95.8496 193.656 94.5723 191.939 94.5723C190.223 94.5723 189.109 95.9082 189.109 97.8594V97.8652C189.109 99.8457 190.199 101.111 192.004 101.111ZM191.934 95.4805C192.865 95.4805 193.557 96.0723 193.662 97.3203H190.17C190.281 96.1191 190.996 95.4805 191.934 95.4805ZM196.281 101H197.301V97.0859C197.301 96.1953 197.928 95.4746 198.754 95.4746C199.551 95.4746 200.066 95.9609 200.066 96.7109V101H201.086V96.9395C201.086 96.1367 201.666 95.4746 202.545 95.4746C203.436 95.4746 203.863 95.9375 203.863 96.8691V101H204.883V96.6348C204.883 95.3105 204.162 94.5723 202.873 94.5723C202 94.5723 201.279 95.0117 200.939 95.6797H200.846C200.553 95.0234 199.955 94.5723 199.1 94.5723C198.273 94.5723 197.676 94.9648 197.395 95.6445H197.301V94.6836H196.281V101ZM210.092 101H215.564V100.051H211.557V99.957L213.479 97.9707C215.008 96.3945 215.424 95.6914 215.424 94.7246V94.7129C215.424 93.3477 214.293 92.3457 212.816 92.3457C211.199 92.3457 210.039 93.4238 210.033 94.9238L210.045 94.9297L211.053 94.9355L211.059 94.9238C211.059 93.9277 211.732 93.2656 212.746 93.2656C213.742 93.2656 214.346 93.9336 214.346 94.8242V94.8359C214.346 95.5742 214.029 96.0137 212.951 97.1797L210.092 100.273V101Z" fill="black"/>
<path d="M182.078 130H183.133V121.545H182.078V130ZM187.404 130.047C187.604 130.047 187.797 130.023 187.996 129.988V129.121C187.809 129.139 187.709 129.145 187.527 129.145C186.871 129.145 186.613 128.846 186.613 128.102V124.527H187.996V123.684H186.613V122.049H185.559V123.684H184.562V124.527H185.559V128.359C185.559 129.566 186.104 130.047 187.404 130.047ZM192.004 130.111C193.492 130.111 194.395 129.268 194.611 128.412L194.623 128.365H193.604L193.58 128.418C193.41 128.799 192.883 129.203 192.027 129.203C190.902 129.203 190.182 128.441 190.152 127.135H194.699V126.736C194.699 124.85 193.656 123.572 191.939 123.572C190.223 123.572 189.109 124.908 189.109 126.859V126.865C189.109 128.846 190.199 130.111 192.004 130.111ZM191.934 124.48C192.865 124.48 193.557 125.072 193.662 126.32H190.17C190.281 125.119 190.996 124.48 191.934 124.48ZM196.281 130H197.301V126.086C197.301 125.195 197.928 124.475 198.754 124.475C199.551 124.475 200.066 124.961 200.066 125.711V130H201.086V125.939C201.086 125.137 201.666 124.475 202.545 124.475C203.436 124.475 203.863 124.938 203.863 125.869V130H204.883V125.635C204.883 124.311 204.162 123.572 202.873 123.572C202 123.572 201.279 124.012 200.939 124.68H200.846C200.553 124.023 199.955 123.572 199.1 123.572C198.273 123.572 197.676 123.965 197.395 124.645H197.301V123.684H196.281V130ZM212.969 130.141C214.662 130.141 215.904 129.098 215.904 127.686V127.674C215.904 126.473 215.066 125.705 213.836 125.6V125.576C214.891 125.354 215.629 124.639 215.629 123.596V123.584C215.629 122.301 214.568 121.404 212.957 121.404C211.375 121.404 210.285 122.324 210.15 123.701L210.145 123.76H211.158L211.164 123.701C211.252 122.846 211.961 122.318 212.957 122.318C213.988 122.318 214.568 122.828 214.568 123.713V123.725C214.568 124.568 213.865 125.189 212.857 125.189H211.844V126.08H212.904C214.088 126.08 214.832 126.66 214.832 127.697V127.709C214.832 128.605 214.076 129.227 212.969 129.227C211.844 129.227 211.076 128.652 210.994 127.82L210.988 127.762H209.975L209.98 127.832C210.092 129.168 211.223 130.141 212.969 130.141Z" fill="black"/>
<rect width="145" height="1" transform="matrix(1 0 0 -1 88 54)" fill="#DFE5EB"/>
<rect width="145" height="1" transform="matrix(1 0 0 -1 88 83)" fill="#DFE5EB"/>
<rect width="145" height="1" transform="matrix(1 0 0 -1 88 112)" fill="#DFE5EB"/>
<rect width="145" height="1" transform="matrix(1 0 0 -1 88 141)" fill="#DFE5EB"/>
</svg>
